<?xml version="1.0" encoding="utf-8" standalone="no"?>
<!DOCTYPE svg PUBLIC "-//W3C//DTD SVG 1.1//EN"
  "http://www.w3.org/Graphics/SVG/1.1/DTD/svg11.dtd">
<!-- Created with matplotlib (https://matplotlib.org/) -->
<svg height="360pt" version="1.1" viewBox="0 0 360 360" width="360pt" xmlns="http://www.w3.org/2000/svg" xmlns:xlink="http://www.w3.org/1999/xlink">
 <defs>
  <style type="text/css">
*{stroke-linecap:butt;stroke-linejoin:round;}
  </style>
 </defs>
 <g id="figure_1">
  <g id="patch_1">
   <path d="M 0 360 
L 360 360 
L 360 0 
L 0 0 
z
" style="fill:#ffffff;"/>
  </g>
  <g id="axes_1">
   <g id="patch_2">
    <path d="M 45 320.4 
L 324 320.4 
L 324 43.2 
L 45 43.2 
z
" style="fill:#ffffff;"/>
   </g>
   <g id="PathCollection_1">
    <defs>
     <path d="M 0 3 
C 0.795609 3 1.55874 2.683901 2.12132 2.12132 
C 2.683901 1.55874 3 0.795609 3 0 
C 3 -0.795609 2.683901 -1.55874 2.12132 -2.12132 
C 1.55874 -2.683901 0.795609 -3 0 -3 
C -0.795609 -3 -1.55874 -2.683901 -2.12132 -2.12132 
C -2.683901 -1.55874 -3 -0.795609 -3 0 
C -3 0.795609 -2.683901 1.55874 -2.12132 2.12132 
C -1.55874 2.683901 -0.795609 3 0 3 
z
" id="m7f27222c20" style="stroke:#1f77b4;"/>
    </defs>
    <g clip-path="url(#p0486a47bfc)">
     <use style="fill:#1f77b4;stroke:#1f77b4;" x="127.81894" xlink:href="#m7f27222c20" y="173.126287"/>
     <use style="fill:#1f77b4;stroke:#1f77b4;" x="132.59136" xlink:href="#m7f27222c20" y="172.663689"/>
     <use style="fill:#1f77b4;stroke:#1f77b4;" x="85.216365" xlink:href="#m7f27222c20" y="178.677463"/>
     <use style="fill:#1f77b4;stroke:#1f77b4;" x="114.025484" xlink:href="#m7f27222c20" y="183.187794"/>
     <use style="fill:#1f77b4;stroke:#1f77b4;" x="153.310645" xlink:href="#m7f27222c20" y="171.044596"/>
     <use style="fill:#1f77b4;stroke:#1f77b4;" x="187.241385" xlink:href="#m7f27222c20" y="218.345244"/>
     <use style="fill:#1f77b4;stroke:#1f77b4;" x="157.966664" xlink:href="#m7f27222c20" y="203.657757"/>
     <use style="fill:#1f77b4;stroke:#1f77b4;" x="113.15248" xlink:href="#m7f27222c20" y="177.752267"/>
     <use style="fill:#1f77b4;stroke:#1f77b4;" x="185.669978" xlink:href="#m7f27222c20" y="178.677463"/>
     <use style="fill:#1f77b4;stroke:#1f77b4;" x="225.595342" xlink:href="#m7f27222c20" y="205.045551"/>
     <use style="fill:#1f77b4;stroke:#1f77b4;" x="146.850419" xlink:href="#m7f27222c20" y="164.915172"/>
     <use style="fill:#1f77b4;stroke:#1f77b4;" x="121.358714" xlink:href="#m7f27222c20" y="179.718309"/>
     <use style="fill:#1f77b4;stroke:#1f77b4;" x="198.532231" xlink:href="#m7f27222c20" y="183.881691"/>
     <use style="fill:#1f77b4;stroke:#1f77b4;" x="351.863982" xlink:href="#m7f27222c20" y="-1"/>
     <use style="fill:#1f77b4;stroke:#1f77b4;" x="343.893998" xlink:href="#m7f27222c20" y="-1"/>
     <use style="fill:#1f77b4;stroke:#1f77b4;" x="109.951467" xlink:href="#m7f27222c20" y="181.106103"/>
     <use style="fill:#1f77b4;stroke:#1f77b4;" x="142.019799" xlink:href="#m7f27222c20" y="183.534743"/>
     <use style="fill:#1f77b4;stroke:#1f77b4;" x="125.31633" xlink:href="#m7f27222c20" y="176.942721"/>
     <use style="fill:#1f77b4;stroke:#1f77b4;" x="83.586759" xlink:href="#m7f27222c20" y="190.242414"/>
     <use style="fill:#1f77b4;stroke:#1f77b4;" x="229.261958" xlink:href="#m7f27222c20" y="167.922059"/>
     <use style="fill:#1f77b4;stroke:#1f77b4;" x="154.35825" xlink:href="#m7f27222c20" y="214.066213"/>
     <use style="fill:#1f77b4;stroke:#1f77b4;" x="108.729262" xlink:href="#m7f27222c20" y="147.220797"/>
     <use style="fill:#1f77b4;stroke:#1f77b4;" x="114.491086" xlink:href="#m7f27222c20" y="183.419093"/>
     <use style="fill:#1f77b4;stroke:#1f77b4;" x="199.056033" xlink:href="#m7f27222c20" y="144.907807"/>
     <use style="fill:#1f77b4;stroke:#1f77b4;" x="90.454387" xlink:href="#m7f27222c20" y="176.827071"/>
     <use style="fill:#1f77b4;stroke:#1f77b4;" x="142.077999" xlink:href="#m7f27222c20" y="196.603137"/>
     <use style="fill:#1f77b4;stroke:#1f77b4;" x="140.040991" xlink:href="#m7f27222c20" y="171.044596"/>
     <use style="fill:#1f77b4;stroke:#1f77b4;" x="170.246915" xlink:href="#m7f27222c20" y="166.534265"/>
     <use style="fill:#1f77b4;stroke:#1f77b4;" x="117.226497" xlink:href="#m7f27222c20" y="165.26212"/>
     <use style="fill:#1f77b4;stroke:#1f77b4;" x="86.787772" xlink:href="#m7f27222c20" y="149.418138"/>
     <use style="fill:#1f77b4;stroke:#1f77b4;" x="222.859931" xlink:href="#m7f27222c20" y="98.069756"/>
     <use style="fill:#1f77b4;stroke:#1f77b4;" x="242.00781" xlink:href="#m7f27222c20" y="138.200136"/>
     <use style="fill:#1f77b4;stroke:#1f77b4;" x="201.267642" xlink:href="#m7f27222c20" y="151.15288"/>
     <use style="fill:#1f77b4;stroke:#1f77b4;" x="89.755984" xlink:href="#m7f27222c20" y="170.581998"/>
     <use style="fill:#1f77b4;stroke:#1f77b4;" x="127.120538" xlink:href="#m7f27222c20" y="175.207978"/>
     <use style="fill:#1f77b4;stroke:#1f77b4;" x="76.835531" xlink:href="#m7f27222c20" y="168.962905"/>
     <use style="fill:#1f77b4;stroke:#1f77b4;" x="159.654471" xlink:href="#m7f27222c20" y="174.398432"/>
     <use style="fill:#1f77b4;stroke:#1f77b4;" x="95.517808" xlink:href="#m7f27222c20" y="163.989976"/>
     <use style="fill:#1f77b4;stroke:#1f77b4;" x="267.557715" xlink:href="#m7f27222c20" y="167.922059"/>
     <use style="fill:#1f77b4;stroke:#1f77b4;" x="128.808345" xlink:href="#m7f27222c20" y="140.860074"/>
     <use style="fill:#1f77b4;stroke:#1f77b4;" x="123.395722" xlink:href="#m7f27222c20" y="136.118444"/>
     <use style="fill:#1f77b4;stroke:#1f77b4;" x="116.237093" xlink:href="#m7f27222c20" y="167.459461"/>
     <use style="fill:#1f77b4;stroke:#1f77b4;" x="275.123746" xlink:href="#m7f27222c20" y="114.491987"/>
     <use style="fill:#1f77b4;stroke:#1f77b4;" x="136.956378" xlink:href="#m7f27222c20" y="193.133652"/>
     <use style="fill:#1f77b4;stroke:#1f77b4;" x="200.802041" xlink:href="#m7f27222c20" y="230.488443"/>
     <use style="fill:#1f77b4;stroke:#1f77b4;" x="134.104566" xlink:href="#m7f27222c20" y="180.759154"/>
     <use style="fill:#1f77b4;stroke:#1f77b4;" x="157.792064" xlink:href="#m7f27222c20" y="171.160245"/>
     <use style="fill:#1f77b4;stroke:#1f77b4;" x="110.70807" xlink:href="#m7f27222c20" y="163.180429"/>
     <use style="fill:#1f77b4;stroke:#1f77b4;" x="100.93043" xlink:href="#m7f27222c20" y="211.984522"/>
     <use style="fill:#1f77b4;stroke:#1f77b4;" x="105.993851" xlink:href="#m7f27222c20" y="166.071667"/>
     <use style="fill:#1f77b4;stroke:#1f77b4;" x="124.268726" xlink:href="#m7f27222c20" y="161.908285"/>
     <use style="fill:#1f77b4;stroke:#1f77b4;" x="187.008584" xlink:href="#m7f27222c20" y="159.595295"/>
     <use style="fill:#1f77b4;stroke:#1f77b4;" x="152.437642" xlink:href="#m7f27222c20" y="167.228162"/>
     <use style="fill:#1f77b4;stroke:#1f77b4;" x="101.454232" xlink:href="#m7f27222c20" y="166.534265"/>
     <use style="fill:#1f77b4;stroke:#1f77b4;" x="125.025329" xlink:href="#m7f27222c20" y="178.677463"/>
     <use style="fill:#1f77b4;stroke:#1f77b4;" x="103.607641" xlink:href="#m7f27222c20" y="180.527855"/>
     <use style="fill:#1f77b4;stroke:#1f77b4;" x="161.74968" xlink:href="#m7f27222c20" y="120.043163"/>
     <use style="fill:#1f77b4;stroke:#1f77b4;" x="172.924126" xlink:href="#m7f27222c20" y="178.793113"/>
     <use style="fill:#1f77b4;stroke:#1f77b4;" x="107.099655" xlink:href="#m7f27222c20" y="168.731606"/>
     <use style="fill:#1f77b4;stroke:#1f77b4;" x="186.19378" xlink:href="#m7f27222c20" y="174.398432"/>
     <use style="fill:#1f77b4;stroke:#1f77b4;" x="112.919679" xlink:href="#m7f27222c20" y="208.746335"/>
     <use style="fill:#1f77b4;stroke:#1f77b4;" x="185.669978" xlink:href="#m7f27222c20" y="160.867439"/>
     <use style="fill:#1f77b4;stroke:#1f77b4;" x="160.120073" xlink:href="#m7f27222c20" y="224.359019"/>
     <use style="fill:#1f77b4;stroke:#1f77b4;" x="86.32217" xlink:href="#m7f27222c20" y="170.466348"/>
     <use style="fill:#1f77b4;stroke:#1f77b4;" x="123.279322" xlink:href="#m7f27222c20" y="176.595772"/>
     <use style="fill:#1f77b4;stroke:#1f77b4;" x="122.988321" xlink:href="#m7f27222c20" y="159.363996"/>
     <use style="fill:#1f77b4;stroke:#1f77b4;" x="93.7136" xlink:href="#m7f27222c20" y="201.113468"/>
     <use style="fill:#1f77b4;stroke:#1f77b4;" x="139.98279" xlink:href="#m7f27222c20" y="157.051005"/>
     <use style="fill:#1f77b4;stroke:#1f77b4;" x="84.634363" xlink:href="#m7f27222c20" y="165.26212"/>
     <use style="fill:#1f77b4;stroke:#1f77b4;" x="127.353339" xlink:href="#m7f27222c20" y="175.207978"/>
     <use style="fill:#1f77b4;stroke:#1f77b4;" x="90.745388" xlink:href="#m7f27222c20" y="168.615956"/>
     <use style="fill:#1f77b4;stroke:#1f77b4;" x="107.972659" xlink:href="#m7f27222c20" y="157.976201"/>
     <use style="fill:#1f77b4;stroke:#1f77b4;" x="112.104876" xlink:href="#m7f27222c20" y="155.084964"/>
     <use style="fill:#1f77b4;stroke:#1f77b4;" x="174.961134" xlink:href="#m7f27222c20" y="144.907807"/>
     <use style="fill:#1f77b4;stroke:#1f77b4;" x="108.20546" xlink:href="#m7f27222c20" y="180.874804"/>
     <use style="fill:#1f77b4;stroke:#1f77b4;" x="161.69148" xlink:href="#m7f27222c20" y="179.833958"/>
     <use style="fill:#1f77b4;stroke:#1f77b4;" x="153.427046" xlink:href="#m7f27222c20" y="201.344767"/>
     <use style="fill:#1f77b4;stroke:#1f77b4;" x="101.628833" xlink:href="#m7f27222c20" y="157.397954"/>
     <use style="fill:#1f77b4;stroke:#1f77b4;" x="162.215282" xlink:href="#m7f27222c20" y="183.187794"/>
     <use style="fill:#1f77b4;stroke:#1f77b4;" x="157.559263" xlink:href="#m7f27222c20" y="185.500784"/>
     <use style="fill:#1f77b4;stroke:#1f77b4;" x="169.257511" xlink:href="#m7f27222c20" y="148.83989"/>
     <use style="fill:#1f77b4;stroke:#1f77b4;" x="151.506438" xlink:href="#m7f27222c20" y="213.256666"/>
     <use style="fill:#1f77b4;stroke:#1f77b4;" x="83.004756" xlink:href="#m7f27222c20" y="168.962905"/>
     <use style="fill:#1f77b4;stroke:#1f77b4;" x="78.814339" xlink:href="#m7f27222c20" y="162.94913"/>
     <use style="fill:#1f77b4;stroke:#1f77b4;" x="88.242778" xlink:href="#m7f27222c20" y="179.140061"/>
     <use style="fill:#1f77b4;stroke:#1f77b4;" x="90.628988" xlink:href="#m7f27222c20" y="177.867917"/>
     <use style="fill:#1f77b4;stroke:#1f77b4;" x="92.840597" xlink:href="#m7f27222c20" y="199.147426"/>
     <use style="fill:#1f77b4;stroke:#1f77b4;" x="105.004447" xlink:href="#m7f27222c20" y="178.677463"/>
    </g>
   </g>
   <g id="matplotlib.axis_1">
    <g id="xtick_1">
     <g id="line2d_1">
      <defs>
       <path d="M 0 0 
L 0 3.5 
" id="m77e4936508" style="stroke:#000000;stroke-width:0.8;"/>
      </defs>
      <g>
       <use style="stroke:#000000;stroke-width:0.8;" x="45" xlink:href="#m77e4936508" y="320.4"/>
      </g>
     </g>
     <g id="text_1">
      <!-- 0 -->
      <defs>
       <path d="M 31.78125 66.40625 
Q 24.171875 66.40625 20.328125 58.90625 
Q 16.5 51.421875 16.5 36.375 
Q 16.5 21.390625 20.328125 13.890625 
Q 24.171875 6.390625 31.78125 6.390625 
Q 39.453125 6.390625 43.28125 13.890625 
Q 47.125 21.390625 47.125 36.375 
Q 47.125 51.421875 43.28125 58.90625 
Q 39.453125 66.40625 31.78125 66.40625 
z
M 31.78125 74.21875 
Q 44.046875 74.21875 50.515625 64.515625 
Q 56.984375 54.828125 56.984375 36.375 
Q 56.984375 17.96875 50.515625 8.265625 
Q 44.046875 -1.421875 31.78125 -1.421875 
Q 19.53125 -1.421875 13.0625 8.265625 
Q 6.59375 17.96875 6.59375 36.375 
Q 6.59375 54.828125 13.0625 64.515625 
Q 19.53125 74.21875 31.78125 74.21875 
z
" id="DejaVuSans-48"/>
      </defs>
      <g transform="translate(41.81875 334.998438)scale(0.1 -0.1)">
       <use xlink:href="#DejaVuSans-48"/>
      </g>
     </g>
    </g>
    <g id="xtick_2">
     <g id="line2d_2">
      <g>
       <use style="stroke:#000000;stroke-width:0.8;" x="79.875" xlink:href="#m77e4936508" y="320.4"/>
      </g>
     </g>
     <g id="text_2">
      <!-- 10 -->
      <defs>
       <path d="M 12.40625 8.296875 
L 28.515625 8.296875 
L 28.515625 63.921875 
L 10.984375 60.40625 
L 10.984375 69.390625 
L 28.421875 72.90625 
L 38.28125 72.90625 
L 38.28125 8.296875 
L 54.390625 8.296875 
L 54.390625 0 
L 12.40625 0 
z
" id="DejaVuSans-49"/>
      </defs>
      <g transform="translate(73.5125 334.998438)scale(0.1 -0.1)">
       <use xlink:href="#DejaVuSans-49"/>
       <use x="63.623047" xlink:href="#DejaVuSans-48"/>
      </g>
     </g>
    </g>
    <g id="xtick_3">
     <g id="line2d_3">
      <g>
       <use style="stroke:#000000;stroke-width:0.8;" x="114.75" xlink:href="#m77e4936508" y="320.4"/>
      </g>
     </g>
     <g id="text_3">
      <!-- 20 -->
      <defs>
       <path d="M 19.1875 8.296875 
L 53.609375 8.296875 
L 53.609375 0 
L 7.328125 0 
L 7.328125 8.296875 
Q 12.9375 14.109375 22.625 23.890625 
Q 32.328125 33.6875 34.8125 36.53125 
Q 39.546875 41.84375 41.421875 45.53125 
Q 43.3125 49.21875 43.3125 52.78125 
Q 43.3125 58.59375 39.234375 62.25 
Q 35.15625 65.921875 28.609375 65.921875 
Q 23.96875 65.921875 18.8125 64.3125 
Q 13.671875 62.703125 7.8125 59.421875 
L 7.8125 69.390625 
Q 13.765625 71.78125 18.9375 73 
Q 24.125 74.21875 28.421875 74.21875 
Q 39.75 74.21875 46.484375 68.546875 
Q 53.21875 62.890625 53.21875 53.421875 
Q 53.21875 48.921875 51.53125 44.890625 
Q 49.859375 40.875 45.40625 35.40625 
Q 44.1875 33.984375 37.640625 27.21875 
Q 31.109375 20.453125 19.1875 8.296875 
z
" id="DejaVuSans-50"/>
      </defs>
      <g transform="translate(108.3875 334.998438)scale(0.1 -0.1)">
       <use xlink:href="#DejaVuSans-50"/>
       <use x="63.623047" xlink:href="#DejaVuSans-48"/>
      </g>
     </g>
    </g>
    <g id="xtick_4">
     <g id="line2d_4">
      <g>
       <use style="stroke:#000000;stroke-width:0.8;" x="149.625" xlink:href="#m77e4936508" y="320.4"/>
      </g>
     </g>
     <g id="text_4">
      <!-- 30 -->
      <defs>
       <path d="M 40.578125 39.3125 
Q 47.65625 37.796875 51.625 33 
Q 55.609375 28.21875 55.609375 21.1875 
Q 55.609375 10.40625 48.1875 4.484375 
Q 40.765625 -1.421875 27.09375 -1.421875 
Q 22.515625 -1.421875 17.65625 -0.515625 
Q 12.796875 0.390625 7.625 2.203125 
L 7.625 11.71875 
Q 11.71875 9.328125 16.59375 8.109375 
Q 21.484375 6.890625 26.8125 6.890625 
Q 36.078125 6.890625 40.9375 10.546875 
Q 45.796875 14.203125 45.796875 21.1875 
Q 45.796875 27.640625 41.28125 31.265625 
Q 36.765625 34.90625 28.71875 34.90625 
L 20.21875 34.90625 
L 20.21875 43.015625 
L 29.109375 43.015625 
Q 36.375 43.015625 40.234375 45.921875 
Q 44.09375 48.828125 44.09375 54.296875 
Q 44.09375 59.90625 40.109375 62.90625 
Q 36.140625 65.921875 28.71875 65.921875 
Q 24.65625 65.921875 20.015625 65.03125 
Q 15.375 64.15625 9.8125 62.3125 
L 9.8125 71.09375 
Q 15.4375 72.65625 20.34375 73.4375 
Q 25.25 74.21875 29.59375 74.21875 
Q 40.828125 74.21875 47.359375 69.109375 
Q 53.90625 64.015625 53.90625 55.328125 
Q 53.90625 49.265625 50.4375 45.09375 
Q 46.96875 40.921875 40.578125 39.3125 
z
" id="DejaVuSans-51"/>
      </defs>
      <g transform="translate(143.2625 334.998438)scale(0.1 -0.1)">
       <use xlink:href="#DejaVuSans-51"/>
       <use x="63.623047" xlink:href="#DejaVuSans-48"/>
      </g>
     </g>
    </g>
    <g id="xtick_5">
     <g id="line2d_5">
      <g>
       <use style="stroke:#000000;stroke-width:0.8;" x="184.5" xlink:href="#m77e4936508" y="320.4"/>
      </g>
     </g>
     <g id="text_5">
      <!-- 40 -->
      <defs>
       <path d="M 37.796875 64.3125 
L 12.890625 25.390625 
L 37.796875 25.390625 
z
M 35.203125 72.90625 
L 47.609375 72.90625 
L 47.609375 25.390625 
L 58.015625 25.390625 
L 58.015625 17.1875 
L 47.609375 17.1875 
L 47.609375 0 
L 37.796875 0 
L 37.796875 17.1875 
L 4.890625 17.1875 
L 4.890625 26.703125 
z
" id="DejaVuSans-52"/>
      </defs>
      <g transform="translate(178.1375 334.998438)scale(0.1 -0.1)">
       <use xlink:href="#DejaVuSans-52"/>
       <use x="63.623047" xlink:href="#DejaVuSans-48"/>
      </g>
     </g>
    </g>
    <g id="xtick_6">
     <g id="line2d_6">
      <g>
       <use style="stroke:#000000;stroke-width:0.8;" x="219.375" xlink:href="#m77e4936508" y="320.4"/>
      </g>
     </g>
     <g id="text_6">
      <!-- 50 -->
      <defs>
       <path d="M 10.796875 72.90625 
L 49.515625 72.90625 
L 49.515625 64.59375 
L 19.828125 64.59375 
L 19.828125 46.734375 
Q 21.96875 47.46875 24.109375 47.828125 
Q 26.265625 48.1875 28.421875 48.1875 
Q 40.625 48.1875 47.75 41.5 
Q 54.890625 34.8125 54.890625 23.390625 
Q 54.890625 11.625 47.5625 5.09375 
Q 40.234375 -1.421875 26.90625 -1.421875 
Q 22.3125 -1.421875 17.546875 -0.640625 
Q 12.796875 0.140625 7.71875 1.703125 
L 7.71875 11.625 
Q 12.109375 9.234375 16.796875 8.0625 
Q 21.484375 6.890625 26.703125 6.890625 
Q 35.15625 6.890625 40.078125 11.328125 
Q 45.015625 15.765625 45.015625 23.390625 
Q 45.015625 31 40.078125 35.4375 
Q 35.15625 39.890625 26.703125 39.890625 
Q 22.75 39.890625 18.8125 39.015625 
Q 14.890625 38.140625 10.796875 36.28125 
z
" id="DejaVuSans-53"/>
      </defs>
      <g transform="translate(213.0125 334.998438)scale(0.1 -0.1)">
       <use xlink:href="#DejaVuSans-53"/>
       <use x="63.623047" xlink:href="#DejaVuSans-48"/>
      </g>
     </g>
    </g>
    <g id="xtick_7">
     <g id="line2d_7">
      <g>
       <use style="stroke:#000000;stroke-width:0.8;" x="254.25" xlink:href="#m77e4936508" y="320.4"/>
      </g>
     </g>
     <g id="text_7">
      <!-- 60 -->
      <defs>
       <path d="M 33.015625 40.375 
Q 26.375 40.375 22.484375 35.828125 
Q 18.609375 31.296875 18.609375 23.390625 
Q 18.609375 15.53125 22.484375 10.953125 
Q 26.375 6.390625 33.015625 6.390625 
Q 39.65625 6.390625 43.53125 10.953125 
Q 47.40625 15.53125 47.40625 23.390625 
Q 47.40625 31.296875 43.53125 35.828125 
Q 39.65625 40.375 33.015625 40.375 
z
M 52.59375 71.296875 
L 52.59375 62.3125 
Q 48.875 64.0625 45.09375 64.984375 
Q 41.3125 65.921875 37.59375 65.921875 
Q 27.828125 65.921875 22.671875 59.328125 
Q 17.53125 52.734375 16.796875 39.40625 
Q 19.671875 43.65625 24.015625 45.921875 
Q 28.375 48.1875 33.59375 48.1875 
Q 44.578125 48.1875 50.953125 41.515625 
Q 57.328125 34.859375 57.328125 23.390625 
Q 57.328125 12.15625 50.6875 5.359375 
Q 44.046875 -1.421875 33.015625 -1.421875 
Q 20.359375 -1.421875 13.671875 8.265625 
Q 6.984375 17.96875 6.984375 36.375 
Q 6.984375 53.65625 15.1875 63.9375 
Q 23.390625 74.21875 37.203125 74.21875 
Q 40.921875 74.21875 44.703125 73.484375 
Q 48.484375 72.75 52.59375 71.296875 
z
" id="DejaVuSans-54"/>
      </defs>
      <g transform="translate(247.8875 334.998438)scale(0.1 -0.1)">
       <use xlink:href="#DejaVuSans-54"/>
       <use x="63.623047" xlink:href="#DejaVuSans-48"/>
      </g>
     </g>
    </g>
    <g id="xtick_8">
     <g id="line2d_8">
      <g>
       <use style="stroke:#000000;stroke-width:0.8;" x="289.125" xlink:href="#m77e4936508" y="320.4"/>
      </g>
     </g>
     <g id="text_8">
      <!-- 70 -->
      <defs>
       <path d="M 8.203125 72.90625 
L 55.078125 72.90625 
L 55.078125 68.703125 
L 28.609375 0 
L 18.3125 0 
L 43.21875 64.59375 
L 8.203125 64.59375 
z
" id="DejaVuSans-55"/>
      </defs>
      <g transform="translate(282.7625 334.998438)scale(0.1 -0.1)">
       <use xlink:href="#DejaVuSans-55"/>
       <use x="63.623047" xlink:href="#DejaVuSans-48"/>
      </g>
     </g>
    </g>
    <g id="xtick_9">
     <g id="line2d_9">
      <g>
       <use style="stroke:#000000;stroke-width:0.8;" x="324" xlink:href="#m77e4936508" y="320.4"/>
      </g>
     </g>
     <g id="text_9">
      <!-- 80 -->
      <defs>
       <path d="M 31.78125 34.625 
Q 24.75 34.625 20.71875 30.859375 
Q 16.703125 27.09375 16.703125 20.515625 
Q 16.703125 13.921875 20.71875 10.15625 
Q 24.75 6.390625 31.78125 6.390625 
Q 38.8125 6.390625 42.859375 10.171875 
Q 46.921875 13.96875 46.921875 20.515625 
Q 46.921875 27.09375 42.890625 30.859375 
Q 38.875 34.625 31.78125 34.625 
z
M 21.921875 38.8125 
Q 15.578125 40.375 12.03125 44.71875 
Q 8.5 49.078125 8.5 55.328125 
Q 8.5 64.0625 14.71875 69.140625 
Q 20.953125 74.21875 31.78125 74.21875 
Q 42.671875 74.21875 48.875 69.140625 
Q 55.078125 64.0625 55.078125 55.328125 
Q 55.078125 49.078125 51.53125 44.71875 
Q 48 40.375 41.703125 38.8125 
Q 48.828125 37.15625 52.796875 32.3125 
Q 56.78125 27.484375 56.78125 20.515625 
Q 56.78125 9.90625 50.3125 4.234375 
Q 43.84375 -1.421875 31.78125 -1.421875 
Q 19.734375 -1.421875 13.25 4.234375 
Q 6.78125 9.90625 6.78125 20.515625 
Q 6.78125 27.484375 10.78125 32.3125 
Q 14.796875 37.15625 21.921875 38.8125 
z
M 18.3125 54.390625 
Q 18.3125 48.734375 21.84375 45.5625 
Q 25.390625 42.390625 31.78125 42.390625 
Q 38.140625 42.390625 41.71875 45.5625 
Q 45.3125 48.734375 45.3125 54.390625 
Q 45.3125 60.0625 41.71875 63.234375 
Q 38.140625 66.40625 31.78125 66.40625 
Q 25.390625 66.40625 21.84375 63.234375 
Q 18.3125 60.0625 18.3125 54.390625 
z
" id="DejaVuSans-56"/>
      </defs>
      <g transform="translate(317.6375 334.998438)scale(0.1 -0.1)">
       <use xlink:href="#DejaVuSans-56"/>
       <use x="63.623047" xlink:href="#DejaVuSans-48"/>
      </g>
     </g>
    </g>
   </g>
   <g id="matplotlib.axis_2">
    <g id="ytick_1">
     <g id="line2d_10">
      <defs>
       <path d="M 0 0 
L -3.5 0 
" id="md4d5bf2852" style="stroke:#000000;stroke-width:0.8;"/>
      </defs>
      <g>
       <use style="stroke:#000000;stroke-width:0.8;" x="45" xlink:href="#md4d5bf2852" y="320.4"/>
      </g>
     </g>
     <g id="text_10">
      <!-- −40 -->
      <defs>
       <path d="M 10.59375 35.5 
L 73.1875 35.5 
L 73.1875 27.203125 
L 10.59375 27.203125 
z
" id="DejaVuSans-8722"/>
      </defs>
      <g transform="translate(16.895312 324.199219)scale(0.1 -0.1)">
       <use xlink:href="#DejaVuSans-8722"/>
       <use x="83.789062" xlink:href="#DejaVuSans-52"/>
       <use x="147.412109" xlink:href="#DejaVuSans-48"/>
      </g>
     </g>
    </g>
    <g id="ytick_2">
     <g id="line2d_11">
      <g>
       <use style="stroke:#000000;stroke-width:0.8;" x="45" xlink:href="#md4d5bf2852" y="285.75"/>
      </g>
     </g>
     <g id="text_11">
      <!-- −30 -->
      <g transform="translate(16.895312 289.549219)scale(0.1 -0.1)">
       <use xlink:href="#DejaVuSans-8722"/>
       <use x="83.789062" xlink:href="#DejaVuSans-51"/>
       <use x="147.412109" xlink:href="#DejaVuSans-48"/>
      </g>
     </g>
    </g>
    <g id="ytick_3">
     <g id="line2d_12">
      <g>
       <use style="stroke:#000000;stroke-width:0.8;" x="45" xlink:href="#md4d5bf2852" y="251.1"/>
      </g>
     </g>
     <g id="text_12">
      <!-- −20 -->
      <g transform="translate(16.895312 254.899219)scale(0.1 -0.1)">
       <use xlink:href="#DejaVuSans-8722"/>
       <use x="83.789062" xlink:href="#DejaVuSans-50"/>
       <use x="147.412109" xlink:href="#DejaVuSans-48"/>
      </g>
     </g>
    </g>
    <g id="ytick_4">
     <g id="line2d_13">
      <g>
       <use style="stroke:#000000;stroke-width:0.8;" x="45" xlink:href="#md4d5bf2852" y="216.45"/>
      </g>
     </g>
     <g id="text_13">
      <!-- −10 -->
      <g transform="translate(16.895312 220.249219)scale(0.1 -0.1)">
       <use xlink:href="#DejaVuSans-8722"/>
       <use x="83.789062" xlink:href="#DejaVuSans-49"/>
       <use x="147.412109" xlink:href="#DejaVuSans-48"/>
      </g>
     </g>
    </g>
    <g id="ytick_5">
     <g id="line2d_14">
      <g>
       <use style="stroke:#000000;stroke-width:0.8;" x="45" xlink:href="#md4d5bf2852" y="181.8"/>
      </g>
     </g>
     <g id="text_14">
      <!-- 0 -->
      <g transform="translate(31.6375 185.599219)scale(0.1 -0.1)">
       <use xlink:href="#DejaVuSans-48"/>
      </g>
     </g>
    </g>
    <g id="ytick_6">
     <g id="line2d_15">
      <g>
       <use style="stroke:#000000;stroke-width:0.8;" x="45" xlink:href="#md4d5bf2852" y="147.15"/>
      </g>
     </g>
     <g id="text_15">
      <!-- 10 -->
      <g transform="translate(25.275 150.949219)scale(0.1 -0.1)">
       <use xlink:href="#DejaVuSans-49"/>
       <use x="63.623047" xlink:href="#DejaVuSans-48"/>
      </g>
     </g>
    </g>
    <g id="ytick_7">
     <g id="line2d_16">
      <g>
       <use style="stroke:#000000;stroke-width:0.8;" x="45" xlink:href="#md4d5bf2852" y="112.5"/>
      </g>
     </g>
     <g id="text_16">
      <!-- 20 -->
      <g transform="translate(25.275 116.299219)scale(0.1 -0.1)">
       <use xlink:href="#DejaVuSans-50"/>
       <use x="63.623047" xlink:href="#DejaVuSans-48"/>
      </g>
     </g>
    </g>
    <g id="ytick_8">
     <g id="line2d_17">
      <g>
       <use style="stroke:#000000;stroke-width:0.8;" x="45" xlink:href="#md4d5bf2852" y="77.85"/>
      </g>
     </g>
     <g id="text_17">
      <!-- 30 -->
      <g transform="translate(25.275 81.649219)scale(0.1 -0.1)">
       <use xlink:href="#DejaVuSans-51"/>
       <use x="63.623047" xlink:href="#DejaVuSans-48"/>
      </g>
     </g>
    </g>
    <g id="ytick_9">
     <g id="line2d_18">
      <g>
       <use style="stroke:#000000;stroke-width:0.8;" x="45" xlink:href="#md4d5bf2852" y="43.2"/>
      </g>
     </g>
     <g id="text_18">
      <!-- 40 -->
      <g transform="translate(25.275 46.999219)scale(0.1 -0.1)">
       <use xlink:href="#DejaVuSans-52"/>
       <use x="63.623047" xlink:href="#DejaVuSans-48"/>
      </g>
     </g>
    </g>
   </g>
   <g id="line2d_19">
    <path clip-path="url(#p0486a47bfc)" d="M 45 170.924958 
L 324 170.924958 
" style="fill:none;stroke:#000000;stroke-linecap:square;stroke-opacity:0.5;stroke-width:1.5;"/>
   </g>
   <g id="line2d_20">
    <path clip-path="url(#p0486a47bfc)" d="M 45 111.847859 
L 324 111.847859 
" style="fill:none;stroke:#000000;stroke-dasharray:5.55,2.4;stroke-dashoffset:0;stroke-opacity:0.5;stroke-width:1.5;"/>
   </g>
   <g id="line2d_21">
    <path clip-path="url(#p0486a47bfc)" d="M 45 230.002058 
L 324 230.002058 
" style="fill:none;stroke:#000000;stroke-dasharray:5.55,2.4;stroke-dashoffset:0;stroke-opacity:0.5;stroke-width:1.5;"/>
   </g>
   <g id="patch_3">
    <path d="M 45 320.4 
L 45 43.2 
" style="fill:none;stroke:#000000;stroke-linecap:square;stroke-linejoin:miter;stroke-width:0.8;"/>
   </g>
   <g id="patch_4">
    <path d="M 324 320.4 
L 324 43.2 
" style="fill:none;stroke:#000000;stroke-linecap:square;stroke-linejoin:miter;stroke-width:0.8;"/>
   </g>
   <g id="patch_5">
    <path d="M 45 320.4 
L 324 320.4 
" style="fill:none;stroke:#000000;stroke-linecap:square;stroke-linejoin:miter;stroke-width:0.8;"/>
   </g>
   <g id="patch_6">
    <path d="M 45 43.2 
L 324 43.2 
" style="fill:none;stroke:#000000;stroke-linecap:square;stroke-linejoin:miter;stroke-width:0.8;"/>
   </g>
   <g id="text_19">
    <!-- auto vs manual (n = 87) -->
    <defs>
     <path d="M 34.28125 27.484375 
Q 23.390625 27.484375 19.1875 25 
Q 14.984375 22.515625 14.984375 16.5 
Q 14.984375 11.71875 18.140625 8.90625 
Q 21.296875 6.109375 26.703125 6.109375 
Q 34.1875 6.109375 38.703125 11.40625 
Q 43.21875 16.703125 43.21875 25.484375 
L 43.21875 27.484375 
z
M 52.203125 31.203125 
L 52.203125 0 
L 43.21875 0 
L 43.21875 8.296875 
Q 40.140625 3.328125 35.546875 0.953125 
Q 30.953125 -1.421875 24.3125 -1.421875 
Q 15.921875 -1.421875 10.953125 3.296875 
Q 6 8.015625 6 15.921875 
Q 6 25.140625 12.171875 29.828125 
Q 18.359375 34.515625 30.609375 34.515625 
L 43.21875 34.515625 
L 43.21875 35.40625 
Q 43.21875 41.609375 39.140625 45 
Q 35.0625 48.390625 27.6875 48.390625 
Q 23 48.390625 18.546875 47.265625 
Q 14.109375 46.140625 10.015625 43.890625 
L 10.015625 52.203125 
Q 14.9375 54.109375 19.578125 55.046875 
Q 24.21875 56 28.609375 56 
Q 40.484375 56 46.34375 49.84375 
Q 52.203125 43.703125 52.203125 31.203125 
z
" id="DejaVuSans-97"/>
     <path d="M 8.5 21.578125 
L 8.5 54.6875 
L 17.484375 54.6875 
L 17.484375 21.921875 
Q 17.484375 14.15625 20.5 10.265625 
Q 23.53125 6.390625 29.59375 6.390625 
Q 36.859375 6.390625 41.078125 11.03125 
Q 45.3125 15.671875 45.3125 23.6875 
L 45.3125 54.6875 
L 54.296875 54.6875 
L 54.296875 0 
L 45.3125 0 
L 45.3125 8.40625 
Q 42.046875 3.421875 37.71875 1 
Q 33.40625 -1.421875 27.6875 -1.421875 
Q 18.265625 -1.421875 13.375 4.4375 
Q 8.5 10.296875 8.5 21.578125 
z
M 31.109375 56 
z
" id="DejaVuSans-117"/>
     <path d="M 18.3125 70.21875 
L 18.3125 54.6875 
L 36.8125 54.6875 
L 36.8125 47.703125 
L 18.3125 47.703125 
L 18.3125 18.015625 
Q 18.3125 11.328125 20.140625 9.421875 
Q 21.96875 7.515625 27.59375 7.515625 
L 36.8125 7.515625 
L 36.8125 0 
L 27.59375 0 
Q 17.1875 0 13.234375 3.875 
Q 9.28125 7.765625 9.28125 18.015625 
L 9.28125 47.703125 
L 2.6875 47.703125 
L 2.6875 54.6875 
L 9.28125 54.6875 
L 9.28125 70.21875 
z
" id="DejaVuSans-116"/>
     <path d="M 30.609375 48.390625 
Q 23.390625 48.390625 19.1875 42.75 
Q 14.984375 37.109375 14.984375 27.296875 
Q 14.984375 17.484375 19.15625 11.84375 
Q 23.34375 6.203125 30.609375 6.203125 
Q 37.796875 6.203125 41.984375 11.859375 
Q 46.1875 17.53125 46.1875 27.296875 
Q 46.1875 37.015625 41.984375 42.703125 
Q 37.796875 48.390625 30.609375 48.390625 
z
M 30.609375 56 
Q 42.328125 56 49.015625 48.375 
Q 55.71875 40.765625 55.71875 27.296875 
Q 55.71875 13.875 49.015625 6.21875 
Q 42.328125 -1.421875 30.609375 -1.421875 
Q 18.84375 -1.421875 12.171875 6.21875 
Q 5.515625 13.875 5.515625 27.296875 
Q 5.515625 40.765625 12.171875 48.375 
Q 18.84375 56 30.609375 56 
z
" id="DejaVuSans-111"/>
     <path id="DejaVuSans-32"/>
     <path d="M 2.984375 54.6875 
L 12.5 54.6875 
L 29.59375 8.796875 
L 46.6875 54.6875 
L 56.203125 54.6875 
L 35.6875 0 
L 23.484375 0 
z
" id="DejaVuSans-118"/>
     <path d="M 44.28125 53.078125 
L 44.28125 44.578125 
Q 40.484375 46.53125 36.375 47.5 
Q 32.28125 48.484375 27.875 48.484375 
Q 21.1875 48.484375 17.84375 46.4375 
Q 14.5 44.390625 14.5 40.28125 
Q 14.5 37.15625 16.890625 35.375 
Q 19.28125 33.59375 26.515625 31.984375 
L 29.59375 31.296875 
Q 39.15625 29.25 43.1875 25.515625 
Q 47.21875 21.78125 47.21875 15.09375 
Q 47.21875 7.46875 41.1875 3.015625 
Q 35.15625 -1.421875 24.609375 -1.421875 
Q 20.21875 -1.421875 15.453125 -0.5625 
Q 10.6875 0.296875 5.421875 2 
L 5.421875 11.28125 
Q 10.40625 8.6875 15.234375 7.390625 
Q 20.0625 6.109375 24.8125 6.109375 
Q 31.15625 6.109375 34.5625 8.28125 
Q 37.984375 10.453125 37.984375 14.40625 
Q 37.984375 18.0625 35.515625 20.015625 
Q 33.0625 21.96875 24.703125 23.78125 
L 21.578125 24.515625 
Q 13.234375 26.265625 9.515625 29.90625 
Q 5.8125 33.546875 5.8125 39.890625 
Q 5.8125 47.609375 11.28125 51.796875 
Q 16.75 56 26.8125 56 
Q 31.78125 56 36.171875 55.265625 
Q 40.578125 54.546875 44.28125 53.078125 
z
" id="DejaVuSans-115"/>
     <path d="M 52 44.1875 
Q 55.375 50.25 60.0625 53.125 
Q 64.75 56 71.09375 56 
Q 79.640625 56 84.28125 50.015625 
Q 88.921875 44.046875 88.921875 33.015625 
L 88.921875 0 
L 79.890625 0 
L 79.890625 32.71875 
Q 79.890625 40.578125 77.09375 44.375 
Q 74.3125 48.1875 68.609375 48.1875 
Q 61.625 48.1875 57.5625 43.546875 
Q 53.515625 38.921875 53.515625 30.90625 
L 53.515625 0 
L 44.484375 0 
L 44.484375 32.71875 
Q 44.484375 40.625 41.703125 44.40625 
Q 38.921875 48.1875 33.109375 48.1875 
Q 26.21875 48.1875 22.15625 43.53125 
Q 18.109375 38.875 18.109375 30.90625 
L 18.109375 0 
L 9.078125 0 
L 9.078125 54.6875 
L 18.109375 54.6875 
L 18.109375 46.1875 
Q 21.1875 51.21875 25.484375 53.609375 
Q 29.78125 56 35.6875 56 
Q 41.65625 56 45.828125 52.96875 
Q 50 49.953125 52 44.1875 
z
" id="DejaVuSans-109"/>
     <path d="M 54.890625 33.015625 
L 54.890625 0 
L 45.90625 0 
L 45.90625 32.71875 
Q 45.90625 40.484375 42.875 44.328125 
Q 39.84375 48.1875 33.796875 48.1875 
Q 26.515625 48.1875 22.3125 43.546875 
Q 18.109375 38.921875 18.109375 30.90625 
L 18.109375 0 
L 9.078125 0 
L 9.078125 54.6875 
L 18.109375 54.6875 
L 18.109375 46.1875 
Q 21.34375 51.125 25.703125 53.5625 
Q 30.078125 56 35.796875 56 
Q 45.21875 56 50.046875 50.171875 
Q 54.890625 44.34375 54.890625 33.015625 
z
" id="DejaVuSans-110"/>
     <path d="M 9.421875 75.984375 
L 18.40625 75.984375 
L 18.40625 0 
L 9.421875 0 
z
" id="DejaVuSans-108"/>
     <path d="M 31 75.875 
Q 24.46875 64.65625 21.28125 53.65625 
Q 18.109375 42.671875 18.109375 31.390625 
Q 18.109375 20.125 21.3125 9.0625 
Q 24.515625 -2 31 -13.1875 
L 23.1875 -13.1875 
Q 15.875 -1.703125 12.234375 9.375 
Q 8.59375 20.453125 8.59375 31.390625 
Q 8.59375 42.28125 12.203125 53.3125 
Q 15.828125 64.359375 23.1875 75.875 
z
" id="DejaVuSans-40"/>
     <path d="M 10.59375 45.40625 
L 73.1875 45.40625 
L 73.1875 37.203125 
L 10.59375 37.203125 
z
M 10.59375 25.484375 
L 73.1875 25.484375 
L 73.1875 17.1875 
L 10.59375 17.1875 
z
" id="DejaVuSans-61"/>
     <path d="M 8.015625 75.875 
L 15.828125 75.875 
Q 23.140625 64.359375 26.78125 53.3125 
Q 30.421875 42.28125 30.421875 31.390625 
Q 30.421875 20.453125 26.78125 9.375 
Q 23.140625 -1.703125 15.828125 -13.1875 
L 8.015625 -13.1875 
Q 14.5 -2 17.703125 9.0625 
Q 20.90625 20.125 20.90625 31.390625 
Q 20.90625 42.671875 17.703125 53.65625 
Q 14.5 64.65625 8.015625 75.875 
z
" id="DejaVuSans-41"/>
    </defs>
    <g transform="translate(111.16875 37.2)scale(0.12 -0.12)">
     <use xlink:href="#DejaVuSans-97"/>
     <use x="61.279297" xlink:href="#DejaVuSans-117"/>
     <use x="124.658203" xlink:href="#DejaVuSans-116"/>
     <use x="163.867188" xlink:href="#DejaVuSans-111"/>
     <use x="225.048828" xlink:href="#DejaVuSans-32"/>
     <use x="256.835938" xlink:href="#DejaVuSans-118"/>
     <use x="316.015625" xlink:href="#DejaVuSans-115"/>
     <use x="368.115234" xlink:href="#DejaVuSans-32"/>
     <use x="399.902344" xlink:href="#DejaVuSans-109"/>
     <use x="497.314453" xlink:href="#DejaVuSans-97"/>
     <use x="558.59375" xlink:href="#DejaVuSans-110"/>
     <use x="621.972656" xlink:href="#DejaVuSans-117"/>
     <use x="685.351562" xlink:href="#DejaVuSans-97"/>
     <use x="746.630859" xlink:href="#DejaVuSans-108"/>
     <use x="774.414062" xlink:href="#DejaVuSans-32"/>
     <use x="806.201172" xlink:href="#DejaVuSans-40"/>
     <use x="845.214844" xlink:href="#DejaVuSans-110"/>
     <use x="908.59375" xlink:href="#DejaVuSans-32"/>
     <use x="940.380859" xlink:href="#DejaVuSans-61"/>
     <use x="1024.169922" xlink:href="#DejaVuSans-32"/>
     <use x="1055.957031" xlink:href="#DejaVuSans-56"/>
     <use x="1119.580078" xlink:href="#DejaVuSans-55"/>
     <use x="1183.203125" xlink:href="#DejaVuSans-41"/>
    </g>
   </g>
  </g>
 </g>
 <defs>
  <clipPath id="p0486a47bfc">
   <rect height="277.2" width="279" x="45" y="43.2"/>
  </clipPath>
 </defs>
</svg>
