<?xml version="1.0" encoding="utf-8" standalone="no"?>
<!DOCTYPE svg PUBLIC "-//W3C//DTD SVG 1.1//EN"
  "http://www.w3.org/Graphics/SVG/1.1/DTD/svg11.dtd">
<!-- Created with matplotlib (https://matplotlib.org/) -->
<svg height="432pt" version="1.1" viewBox="0 0 432 432" width="432pt" xmlns="http://www.w3.org/2000/svg" xmlns:xlink="http://www.w3.org/1999/xlink">
 <defs>
  <style type="text/css">
*{stroke-linecap:butt;stroke-linejoin:round;}
  </style>
 </defs>
 <g id="figure_1">
  <g id="patch_1">
   <path d="M 0 432 
L 432 432 
L 432 0 
L 0 0 
z
" style="fill:#ffffff;"/>
  </g>
  <g id="axes_1">
   <g id="patch_2">
    <path d="M 54 378 
L 388.8 378 
L 388.8 51.84 
L 54 51.84 
z
" style="fill:#ffffff;"/>
   </g>
   <g id="PolyCollection_1">
    <defs>
     <path d="M 54 -54 
L 54 -54 
L 57.381818 -60.203411 
L 60.763636 -66.787204 
L 64.145455 -72.224635 
L 67.527273 -79.008269 
L 70.909091 -89.466141 
L 74.290909 -95.91421 
L 77.672727 -101.197857 
L 81.054545 -109.049002 
L 84.436364 -117.369646 
L 87.818182 -123.078451 
L 91.2 -128.315515 
L 94.581818 -132.721647 
L 97.963636 -138.767091 
L 101.345455 -144.731323 
L 104.727273 -151.375532 
L 108.109091 -156.398109 
L 111.490909 -160.946504 
L 114.872727 -167.939475 
L 118.254545 -173.205653 
L 121.636364 -177.858601 
L 125.018182 -185.424068 
L 128.4 -189.545619 
L 131.781818 -195.333833 
L 135.163636 -200.396358 
L 138.545455 -204.740778 
L 141.927273 -209.117206 
L 145.309091 -211.848596 
L 148.690909 -215.567973 
L 152.072727 -219.308066 
L 155.454545 -223.715656 
L 158.836364 -226.777154 
L 162.218182 -231.047921 
L 165.6 -232.727715 
L 168.981818 -236.116854 
L 172.363636 -241.504773 
L 175.745455 -244.184852 
L 179.127273 -248.191917 
L 182.509091 -251.598301 
L 185.890909 -256.491987 
L 189.272727 -259.877306 
L 192.654545 -263.7625 
L 196.036364 -267.306089 
L 199.418182 -270.030294 
L 202.8 -273.475436 
L 206.181818 -275.929361 
L 209.563636 -279.232547 
L 212.945455 -282.309633 
L 216.327273 -285.777285 
L 219.709091 -287.417715 
L 223.090909 -289.830733 
L 226.472727 -293.329725 
L 229.854545 -296.68271 
L 233.236364 -298.134742 
L 236.618182 -300.817528 
L 240 -302.437211 
L 243.381818 -304.810875 
L 246.763636 -306.959904 
L 250.145455 -310.644112 
L 253.527273 -312.732668 
L 256.909091 -314.257574 
L 260.290909 -316.592255 
L 263.672727 -318.915544 
L 267.054545 -320.814365 
L 270.436364 -322.47474 
L 273.818182 -324.852481 
L 277.2 -327.787072 
L 280.581818 -329.542755 
L 283.963636 -330.363351 
L 287.345455 -332.079079 
L 290.727273 -333.607652 
L 294.109091 -335.47048 
L 297.490909 -337.091615 
L 300.872727 -339.489086 
L 304.254545 -341.637115 
L 307.636364 -344.357533 
L 311.018182 -346.008478 
L 314.4 -347.344488 
L 317.781818 -349.166923 
L 321.163636 -351.241207 
L 324.545455 -352.531238 
L 327.927273 -353.248099 
L 331.309091 -356.115788 
L 334.690909 -357.580796 
L 338.072727 -358.353067 
L 341.454545 -359.693178 
L 344.836364 -361.688064 
L 348.218182 -362.506589 
L 351.6 -363.516158 
L 354.981818 -364.376069 
L 358.363636 -367.407853 
L 361.745455 -369.673332 
L 365.127273 -371.153312 
L 368.509091 -372.240289 
L 371.890909 -373.695004 
L 375.272727 -374.096872 
L 378.654545 -375.521438 
L 382.036364 -377.193375 
L 385.418182 -377.954428 
L 388.8 -380.16 
L 388.8 -380.16 
L 388.8 -380.16 
L 385.418182 -379.270033 
L 382.036364 -378.741405 
L 378.654545 -378.349138 
L 375.272727 -376.163008 
L 371.890909 -375.791373 
L 368.509091 -375.518871 
L 365.127273 -374.979692 
L 361.745455 -373.621966 
L 358.363636 -372.533561 
L 354.981818 -371.179615 
L 351.6 -370.233666 
L 348.218182 -369.437887 
L 344.836364 -367.934884 
L 341.454545 -366.318053 
L 338.072727 -365.078803 
L 334.690909 -363.41886 
L 331.309091 -362.158381 
L 327.927273 -360.641871 
L 324.545455 -359.810707 
L 321.163636 -358.521376 
L 317.781818 -357.757955 
L 314.4 -357.258862 
L 311.018182 -356.273346 
L 307.636364 -354.829772 
L 304.254545 -354.453629 
L 300.872727 -352.990961 
L 297.490909 -351.261557 
L 294.109091 -349.529318 
L 290.727273 -347.780938 
L 287.345455 -345.697793 
L 283.963636 -343.287157 
L 280.581818 -341.528902 
L 277.2 -339.932232 
L 273.818182 -338.101121 
L 270.436364 -336.730937 
L 267.054545 -335.296283 
L 263.672727 -332.965356 
L 260.290909 -330.490629 
L 256.909091 -328.182767 
L 253.527273 -325.06564 
L 250.145455 -323.286176 
L 246.763636 -320.261084 
L 243.381818 -317.962617 
L 240 -315.49971 
L 236.618182 -310.930357 
L 233.236364 -306.907417 
L 229.854545 -306.296266 
L 226.472727 -303.436775 
L 223.090909 -301.285327 
L 219.709091 -298.540133 
L 216.327273 -294.507195 
L 212.945455 -292.817146 
L 209.563636 -290.478697 
L 206.181818 -287.573189 
L 202.8 -285.141798 
L 199.418182 -281.879682 
L 196.036364 -278.411276 
L 192.654545 -273.96048 
L 189.272727 -269.592944 
L 185.890909 -266.014193 
L 182.509091 -263.686994 
L 179.127273 -261.909634 
L 175.745455 -257.947336 
L 172.363636 -251.597609 
L 168.981818 -249.887561 
L 165.6 -246.448058 
L 162.218182 -241.936262 
L 158.836364 -238.985125 
L 155.454545 -235.014098 
L 152.072727 -230.977025 
L 148.690909 -226.78631 
L 145.309091 -219.863768 
L 141.927273 -216.404589 
L 138.545455 -211.238096 
L 135.163636 -207.329275 
L 131.781818 -202.846326 
L 128.4 -199.607288 
L 125.018182 -195.986672 
L 121.636364 -189.623486 
L 118.254545 -186.023704 
L 114.872727 -180.972949 
L 111.490909 -176.100451 
L 108.109091 -170.829823 
L 104.727273 -165.553224 
L 101.345455 -158.529167 
L 97.963636 -152.371628 
L 94.581818 -147.58447 
L 91.2 -141.92895 
L 87.818182 -137.105893 
L 84.436364 -130.176748 
L 81.054545 -121.473711 
L 77.672727 -113.592388 
L 74.290909 -105.109417 
L 70.909091 -98.496605 
L 67.527273 -90.123915 
L 64.145455 -84.526922 
L 60.763636 -75.777868 
L 57.381818 -65.336959 
L 54 -54 
z
" id="m7136d47159" style="stroke:#1f77b4;stroke-opacity:0.2;"/>
    </defs>
    <g clip-path="url(#pf88e977795)">
     <use style="fill:#1f77b4;fill-opacity:0.2;stroke:#1f77b4;stroke-opacity:0.2;" x="0" xlink:href="#m7136d47159" y="432"/>
    </g>
   </g>
   <g id="PolyCollection_2">
    <defs>
     <path d="M 54 -54 
L 54 -54 
L 57.381818 -78.119504 
L 60.763636 -93.662975 
L 64.145455 -104.741545 
L 67.527273 -118.115708 
L 70.909091 -130.774939 
L 74.290909 -141.889059 
L 77.672727 -153.431319 
L 81.054545 -161.904556 
L 84.436364 -170.055974 
L 87.818182 -178.280571 
L 91.2 -184.640807 
L 94.581818 -190.669064 
L 97.963636 -195.508878 
L 101.345455 -201.204107 
L 104.727273 -208.755236 
L 108.109091 -212.974497 
L 111.490909 -217.397782 
L 114.872727 -223.249296 
L 118.254545 -230.381233 
L 121.636364 -234.418973 
L 125.018182 -240.114313 
L 128.4 -245.103277 
L 131.781818 -248.304248 
L 135.163636 -251.511372 
L 138.545455 -256.803311 
L 141.927273 -260.615305 
L 145.309091 -264.075383 
L 148.690909 -266.479099 
L 152.072727 -270.865586 
L 155.454545 -274.316806 
L 158.836364 -276.161609 
L 162.218182 -278.162179 
L 165.6 -282.213461 
L 168.981818 -285.74325 
L 172.363636 -288.708041 
L 175.745455 -291.919698 
L 179.127273 -294.528064 
L 182.509091 -298.564603 
L 185.890909 -299.430757 
L 189.272727 -302.189586 
L 192.654545 -304.903374 
L 196.036364 -308.315568 
L 199.418182 -310.447291 
L 202.8 -312.877337 
L 206.181818 -315.437689 
L 209.563636 -318.254552 
L 212.945455 -319.747088 
L 216.327273 -321.375231 
L 219.709091 -322.791158 
L 223.090909 -325.52517 
L 226.472727 -327.046978 
L 229.854545 -329.083486 
L 233.236364 -330.664086 
L 236.618182 -332.079985 
L 240 -333.425528 
L 243.381818 -334.746298 
L 246.763636 -335.952599 
L 250.145455 -339.13512 
L 253.527273 -341.786139 
L 256.909091 -342.71291 
L 260.290909 -344.547652 
L 263.672727 -346.603598 
L 267.054545 -349.667445 
L 270.436364 -350.803415 
L 273.818182 -351.861732 
L 277.2 -352.635195 
L 280.581818 -353.532478 
L 283.963636 -353.994749 
L 287.345455 -354.565057 
L 290.727273 -355.51781 
L 294.109091 -356.029348 
L 297.490909 -356.307593 
L 300.872727 -356.89183 
L 304.254545 -357.739482 
L 307.636364 -359.160354 
L 311.018182 -360.316983 
L 314.4 -361.205992 
L 317.781818 -362.795366 
L 321.163636 -363.133307 
L 324.545455 -364.549048 
L 327.927273 -365.315045 
L 331.309091 -365.825949 
L 334.690909 -366.283762 
L 338.072727 -366.816783 
L 341.454545 -368.360333 
L 344.836364 -369.831322 
L 348.218182 -371.735594 
L 351.6 -372.759564 
L 354.981818 -373.49057 
L 358.363636 -375.157524 
L 361.745455 -375.900461 
L 365.127273 -376.715903 
L 368.509091 -377.606186 
L 371.890909 -377.644775 
L 375.272727 -378.246483 
L 378.654545 -378.598263 
L 382.036364 -379.161645 
L 385.418182 -379.585817 
L 388.8 -380.16 
L 388.8 -380.16 
L 388.8 -380.16 
L 385.418182 -380.16 
L 382.036364 -380.126508 
L 378.654545 -379.915368 
L 375.272727 -379.751479 
L 371.890909 -379.578664 
L 368.509091 -379.359419 
L 365.127273 -379.475179 
L 361.745455 -379.00094 
L 358.363636 -377.93904 
L 354.981818 -377.284467 
L 351.6 -376.467448 
L 348.218182 -375.427724 
L 344.836364 -374.494801 
L 341.454545 -373.901586 
L 338.072727 -373.381444 
L 334.690909 -373.139942 
L 331.309091 -372.565908 
L 327.927273 -371.014141 
L 324.545455 -370.233133 
L 321.163636 -369.842504 
L 317.781818 -369.406433 
L 314.4 -368.67479 
L 311.018182 -367.758451 
L 307.636364 -367.108711 
L 304.254545 -365.691877 
L 300.872727 -364.734181 
L 297.490909 -363.513069 
L 294.109091 -362.502144 
L 290.727273 -361.724512 
L 287.345455 -359.84058 
L 283.963636 -358.863374 
L 280.581818 -358.551633 
L 277.2 -358.159235 
L 273.818182 -357.385184 
L 270.436364 -355.349493 
L 267.054545 -354.164446 
L 263.672727 -354.133774 
L 260.290909 -352.578002 
L 256.909091 -350.542681 
L 253.527273 -349.148436 
L 250.145455 -348.447614 
L 246.763636 -348.019948 
L 243.381818 -346.646887 
L 240 -345.646131 
L 236.618182 -344.411803 
L 233.236364 -342.218025 
L 229.854545 -340.961941 
L 226.472727 -339.90393 
L 223.090909 -337.556186 
L 219.709091 -335.645613 
L 216.327273 -333.190966 
L 212.945455 -329.660898 
L 209.563636 -327.284903 
L 206.181818 -325.97489 
L 202.8 -324.14798 
L 199.418182 -321.678159 
L 196.036364 -318.908483 
L 192.654545 -317.161445 
L 189.272727 -314.71651 
L 185.890909 -311.800949 
L 182.509091 -308.540738 
L 179.127273 -305.87053 
L 175.745455 -302.288838 
L 172.363636 -300.600118 
L 168.981818 -298.148353 
L 165.6 -294.197382 
L 162.218182 -290.510069 
L 158.836364 -287.094595 
L 155.454545 -284.296854 
L 152.072727 -281.043369 
L 148.690909 -280.014832 
L 145.309091 -276.744158 
L 141.927273 -274.013667 
L 138.545455 -269.831276 
L 135.163636 -266.611629 
L 131.781818 -261.820794 
L 128.4 -254.962155 
L 125.018182 -250.407176 
L 121.636364 -242.432719 
L 118.254545 -238.216708 
L 114.872727 -233.48573 
L 111.490909 -227.986421 
L 108.109091 -225.70449 
L 104.727273 -219.088087 
L 101.345455 -214.774257 
L 97.963636 -209.637395 
L 94.581818 -203.903462 
L 91.2 -197.032361 
L 87.818182 -188.690444 
L 84.436364 -179.118879 
L 81.054545 -171.537318 
L 77.672727 -164.277065 
L 74.290909 -151.569655 
L 70.909091 -141.533218 
L 67.527273 -127.881129 
L 64.145455 -116.237736 
L 60.763636 -102.295687 
L 57.381818 -82.241219 
L 54 -54 
z
" id="m312ea28600" style="stroke:#ff7f0e;stroke-opacity:0.2;"/>
    </defs>
    <g clip-path="url(#pf88e977795)">
     <use style="fill:#ff7f0e;fill-opacity:0.2;stroke:#ff7f0e;stroke-opacity:0.2;" x="0" xlink:href="#m312ea28600" y="432"/>
    </g>
   </g>
   <g id="matplotlib.axis_1">
    <g id="xtick_1">
     <g id="line2d_1">
      <defs>
       <path d="M 0 0 
L 0 3.5 
" id="m0c50391b66" style="stroke:#000000;stroke-width:0.8;"/>
      </defs>
      <g>
       <use style="stroke:#000000;stroke-width:0.8;" x="54" xlink:href="#m0c50391b66" y="378"/>
      </g>
     </g>
     <g id="text_1">
      <!-- 0.0 -->
      <defs>
       <path d="M 31.78125 66.40625 
Q 24.171875 66.40625 20.328125 58.90625 
Q 16.5 51.421875 16.5 36.375 
Q 16.5 21.390625 20.328125 13.890625 
Q 24.171875 6.390625 31.78125 6.390625 
Q 39.453125 6.390625 43.28125 13.890625 
Q 47.125 21.390625 47.125 36.375 
Q 47.125 51.421875 43.28125 58.90625 
Q 39.453125 66.40625 31.78125 66.40625 
z
M 31.78125 74.21875 
Q 44.046875 74.21875 50.515625 64.515625 
Q 56.984375 54.828125 56.984375 36.375 
Q 56.984375 17.96875 50.515625 8.265625 
Q 44.046875 -1.421875 31.78125 -1.421875 
Q 19.53125 -1.421875 13.0625 8.265625 
Q 6.59375 17.96875 6.59375 36.375 
Q 6.59375 54.828125 13.0625 64.515625 
Q 19.53125 74.21875 31.78125 74.21875 
z
" id="DejaVuSans-48"/>
       <path d="M 10.6875 12.40625 
L 21 12.40625 
L 21 0 
L 10.6875 0 
z
" id="DejaVuSans-46"/>
      </defs>
      <g transform="translate(46.048437 392.598437)scale(0.1 -0.1)">
       <use xlink:href="#DejaVuSans-48"/>
       <use x="63.623047" xlink:href="#DejaVuSans-46"/>
       <use x="95.410156" xlink:href="#DejaVuSans-48"/>
      </g>
     </g>
    </g>
    <g id="xtick_2">
     <g id="line2d_2">
      <g>
       <use style="stroke:#000000;stroke-width:0.8;" x="120.96" xlink:href="#m0c50391b66" y="378"/>
      </g>
     </g>
     <g id="text_2">
      <!-- 0.2 -->
      <defs>
       <path d="M 19.1875 8.296875 
L 53.609375 8.296875 
L 53.609375 0 
L 7.328125 0 
L 7.328125 8.296875 
Q 12.9375 14.109375 22.625 23.890625 
Q 32.328125 33.6875 34.8125 36.53125 
Q 39.546875 41.84375 41.421875 45.53125 
Q 43.3125 49.21875 43.3125 52.78125 
Q 43.3125 58.59375 39.234375 62.25 
Q 35.15625 65.921875 28.609375 65.921875 
Q 23.96875 65.921875 18.8125 64.3125 
Q 13.671875 62.703125 7.8125 59.421875 
L 7.8125 69.390625 
Q 13.765625 71.78125 18.9375 73 
Q 24.125 74.21875 28.421875 74.21875 
Q 39.75 74.21875 46.484375 68.546875 
Q 53.21875 62.890625 53.21875 53.421875 
Q 53.21875 48.921875 51.53125 44.890625 
Q 49.859375 40.875 45.40625 35.40625 
Q 44.1875 33.984375 37.640625 27.21875 
Q 31.109375 20.453125 19.1875 8.296875 
z
" id="DejaVuSans-50"/>
      </defs>
      <g transform="translate(113.008438 392.598437)scale(0.1 -0.1)">
       <use xlink:href="#DejaVuSans-48"/>
       <use x="63.623047" xlink:href="#DejaVuSans-46"/>
       <use x="95.410156" xlink:href="#DejaVuSans-50"/>
      </g>
     </g>
    </g>
    <g id="xtick_3">
     <g id="line2d_3">
      <g>
       <use style="stroke:#000000;stroke-width:0.8;" x="187.92" xlink:href="#m0c50391b66" y="378"/>
      </g>
     </g>
     <g id="text_3">
      <!-- 0.4 -->
      <defs>
       <path d="M 37.796875 64.3125 
L 12.890625 25.390625 
L 37.796875 25.390625 
z
M 35.203125 72.90625 
L 47.609375 72.90625 
L 47.609375 25.390625 
L 58.015625 25.390625 
L 58.015625 17.1875 
L 47.609375 17.1875 
L 47.609375 0 
L 37.796875 0 
L 37.796875 17.1875 
L 4.890625 17.1875 
L 4.890625 26.703125 
z
" id="DejaVuSans-52"/>
      </defs>
      <g transform="translate(179.968438 392.598437)scale(0.1 -0.1)">
       <use xlink:href="#DejaVuSans-48"/>
       <use x="63.623047" xlink:href="#DejaVuSans-46"/>
       <use x="95.410156" xlink:href="#DejaVuSans-52"/>
      </g>
     </g>
    </g>
    <g id="xtick_4">
     <g id="line2d_4">
      <g>
       <use style="stroke:#000000;stroke-width:0.8;" x="254.88" xlink:href="#m0c50391b66" y="378"/>
      </g>
     </g>
     <g id="text_4">
      <!-- 0.6 -->
      <defs>
       <path d="M 33.015625 40.375 
Q 26.375 40.375 22.484375 35.828125 
Q 18.609375 31.296875 18.609375 23.390625 
Q 18.609375 15.53125 22.484375 10.953125 
Q 26.375 6.390625 33.015625 6.390625 
Q 39.65625 6.390625 43.53125 10.953125 
Q 47.40625 15.53125 47.40625 23.390625 
Q 47.40625 31.296875 43.53125 35.828125 
Q 39.65625 40.375 33.015625 40.375 
z
M 52.59375 71.296875 
L 52.59375 62.3125 
Q 48.875 64.0625 45.09375 64.984375 
Q 41.3125 65.921875 37.59375 65.921875 
Q 27.828125 65.921875 22.671875 59.328125 
Q 17.53125 52.734375 16.796875 39.40625 
Q 19.671875 43.65625 24.015625 45.921875 
Q 28.375 48.1875 33.59375 48.1875 
Q 44.578125 48.1875 50.953125 41.515625 
Q 57.328125 34.859375 57.328125 23.390625 
Q 57.328125 12.15625 50.6875 5.359375 
Q 44.046875 -1.421875 33.015625 -1.421875 
Q 20.359375 -1.421875 13.671875 8.265625 
Q 6.984375 17.96875 6.984375 36.375 
Q 6.984375 53.65625 15.1875 63.9375 
Q 23.390625 74.21875 37.203125 74.21875 
Q 40.921875 74.21875 44.703125 73.484375 
Q 48.484375 72.75 52.59375 71.296875 
z
" id="DejaVuSans-54"/>
      </defs>
      <g transform="translate(246.928438 392.598437)scale(0.1 -0.1)">
       <use xlink:href="#DejaVuSans-48"/>
       <use x="63.623047" xlink:href="#DejaVuSans-46"/>
       <use x="95.410156" xlink:href="#DejaVuSans-54"/>
      </g>
     </g>
    </g>
    <g id="xtick_5">
     <g id="line2d_5">
      <g>
       <use style="stroke:#000000;stroke-width:0.8;" x="321.84" xlink:href="#m0c50391b66" y="378"/>
      </g>
     </g>
     <g id="text_5">
      <!-- 0.8 -->
      <defs>
       <path d="M 31.78125 34.625 
Q 24.75 34.625 20.71875 30.859375 
Q 16.703125 27.09375 16.703125 20.515625 
Q 16.703125 13.921875 20.71875 10.15625 
Q 24.75 6.390625 31.78125 6.390625 
Q 38.8125 6.390625 42.859375 10.171875 
Q 46.921875 13.96875 46.921875 20.515625 
Q 46.921875 27.09375 42.890625 30.859375 
Q 38.875 34.625 31.78125 34.625 
z
M 21.921875 38.8125 
Q 15.578125 40.375 12.03125 44.71875 
Q 8.5 49.078125 8.5 55.328125 
Q 8.5 64.0625 14.71875 69.140625 
Q 20.953125 74.21875 31.78125 74.21875 
Q 42.671875 74.21875 48.875 69.140625 
Q 55.078125 64.0625 55.078125 55.328125 
Q 55.078125 49.078125 51.53125 44.71875 
Q 48 40.375 41.703125 38.8125 
Q 48.828125 37.15625 52.796875 32.3125 
Q 56.78125 27.484375 56.78125 20.515625 
Q 56.78125 9.90625 50.3125 4.234375 
Q 43.84375 -1.421875 31.78125 -1.421875 
Q 19.734375 -1.421875 13.25 4.234375 
Q 6.78125 9.90625 6.78125 20.515625 
Q 6.78125 27.484375 10.78125 32.3125 
Q 14.796875 37.15625 21.921875 38.8125 
z
M 18.3125 54.390625 
Q 18.3125 48.734375 21.84375 45.5625 
Q 25.390625 42.390625 31.78125 42.390625 
Q 38.140625 42.390625 41.71875 45.5625 
Q 45.3125 48.734375 45.3125 54.390625 
Q 45.3125 60.0625 41.71875 63.234375 
Q 38.140625 66.40625 31.78125 66.40625 
Q 25.390625 66.40625 21.84375 63.234375 
Q 18.3125 60.0625 18.3125 54.390625 
z
" id="DejaVuSans-56"/>
      </defs>
      <g transform="translate(313.888438 392.598437)scale(0.1 -0.1)">
       <use xlink:href="#DejaVuSans-48"/>
       <use x="63.623047" xlink:href="#DejaVuSans-46"/>
       <use x="95.410156" xlink:href="#DejaVuSans-56"/>
      </g>
     </g>
    </g>
    <g id="xtick_6">
     <g id="line2d_6">
      <g>
       <use style="stroke:#000000;stroke-width:0.8;" x="388.8" xlink:href="#m0c50391b66" y="378"/>
      </g>
     </g>
     <g id="text_6">
      <!-- 1.0 -->
      <defs>
       <path d="M 12.40625 8.296875 
L 28.515625 8.296875 
L 28.515625 63.921875 
L 10.984375 60.40625 
L 10.984375 69.390625 
L 28.421875 72.90625 
L 38.28125 72.90625 
L 38.28125 8.296875 
L 54.390625 8.296875 
L 54.390625 0 
L 12.40625 0 
z
" id="DejaVuSans-49"/>
      </defs>
      <g transform="translate(380.848437 392.598437)scale(0.1 -0.1)">
       <use xlink:href="#DejaVuSans-49"/>
       <use x="63.623047" xlink:href="#DejaVuSans-46"/>
       <use x="95.410156" xlink:href="#DejaVuSans-48"/>
      </g>
     </g>
    </g>
    <g id="text_7">
     <!-- False positive rate (1 - specificity) -->
     <defs>
      <path d="M 9.8125 72.90625 
L 51.703125 72.90625 
L 51.703125 64.59375 
L 19.671875 64.59375 
L 19.671875 43.109375 
L 48.578125 43.109375 
L 48.578125 34.8125 
L 19.671875 34.8125 
L 19.671875 0 
L 9.8125 0 
z
" id="DejaVuSans-70"/>
      <path d="M 34.28125 27.484375 
Q 23.390625 27.484375 19.1875 25 
Q 14.984375 22.515625 14.984375 16.5 
Q 14.984375 11.71875 18.140625 8.90625 
Q 21.296875 6.109375 26.703125 6.109375 
Q 34.1875 6.109375 38.703125 11.40625 
Q 43.21875 16.703125 43.21875 25.484375 
L 43.21875 27.484375 
z
M 52.203125 31.203125 
L 52.203125 0 
L 43.21875 0 
L 43.21875 8.296875 
Q 40.140625 3.328125 35.546875 0.953125 
Q 30.953125 -1.421875 24.3125 -1.421875 
Q 15.921875 -1.421875 10.953125 3.296875 
Q 6 8.015625 6 15.921875 
Q 6 25.140625 12.171875 29.828125 
Q 18.359375 34.515625 30.609375 34.515625 
L 43.21875 34.515625 
L 43.21875 35.40625 
Q 43.21875 41.609375 39.140625 45 
Q 35.0625 48.390625 27.6875 48.390625 
Q 23 48.390625 18.546875 47.265625 
Q 14.109375 46.140625 10.015625 43.890625 
L 10.015625 52.203125 
Q 14.9375 54.109375 19.578125 55.046875 
Q 24.21875 56 28.609375 56 
Q 40.484375 56 46.34375 49.84375 
Q 52.203125 43.703125 52.203125 31.203125 
z
" id="DejaVuSans-97"/>
      <path d="M 9.421875 75.984375 
L 18.40625 75.984375 
L 18.40625 0 
L 9.421875 0 
z
" id="DejaVuSans-108"/>
      <path d="M 44.28125 53.078125 
L 44.28125 44.578125 
Q 40.484375 46.53125 36.375 47.5 
Q 32.28125 48.484375 27.875 48.484375 
Q 21.1875 48.484375 17.84375 46.4375 
Q 14.5 44.390625 14.5 40.28125 
Q 14.5 37.15625 16.890625 35.375 
Q 19.28125 33.59375 26.515625 31.984375 
L 29.59375 31.296875 
Q 39.15625 29.25 43.1875 25.515625 
Q 47.21875 21.78125 47.21875 15.09375 
Q 47.21875 7.46875 41.1875 3.015625 
Q 35.15625 -1.421875 24.609375 -1.421875 
Q 20.21875 -1.421875 15.453125 -0.5625 
Q 10.6875 0.296875 5.421875 2 
L 5.421875 11.28125 
Q 10.40625 8.6875 15.234375 7.390625 
Q 20.0625 6.109375 24.8125 6.109375 
Q 31.15625 6.109375 34.5625 8.28125 
Q 37.984375 10.453125 37.984375 14.40625 
Q 37.984375 18.0625 35.515625 20.015625 
Q 33.0625 21.96875 24.703125 23.78125 
L 21.578125 24.515625 
Q 13.234375 26.265625 9.515625 29.90625 
Q 5.8125 33.546875 5.8125 39.890625 
Q 5.8125 47.609375 11.28125 51.796875 
Q 16.75 56 26.8125 56 
Q 31.78125 56 36.171875 55.265625 
Q 40.578125 54.546875 44.28125 53.078125 
z
" id="DejaVuSans-115"/>
      <path d="M 56.203125 29.59375 
L 56.203125 25.203125 
L 14.890625 25.203125 
Q 15.484375 15.921875 20.484375 11.0625 
Q 25.484375 6.203125 34.421875 6.203125 
Q 39.59375 6.203125 44.453125 7.46875 
Q 49.3125 8.734375 54.109375 11.28125 
L 54.109375 2.78125 
Q 49.265625 0.734375 44.1875 -0.34375 
Q 39.109375 -1.421875 33.890625 -1.421875 
Q 20.796875 -1.421875 13.15625 6.1875 
Q 5.515625 13.8125 5.515625 26.8125 
Q 5.515625 40.234375 12.765625 48.109375 
Q 20.015625 56 32.328125 56 
Q 43.359375 56 49.78125 48.890625 
Q 56.203125 41.796875 56.203125 29.59375 
z
M 47.21875 32.234375 
Q 47.125 39.59375 43.09375 43.984375 
Q 39.0625 48.390625 32.421875 48.390625 
Q 24.90625 48.390625 20.390625 44.140625 
Q 15.875 39.890625 15.1875 32.171875 
z
" id="DejaVuSans-101"/>
      <path id="DejaVuSans-32"/>
      <path d="M 18.109375 8.203125 
L 18.109375 -20.796875 
L 9.078125 -20.796875 
L 9.078125 54.6875 
L 18.109375 54.6875 
L 18.109375 46.390625 
Q 20.953125 51.265625 25.265625 53.625 
Q 29.59375 56 35.59375 56 
Q 45.5625 56 51.78125 48.09375 
Q 58.015625 40.1875 58.015625 27.296875 
Q 58.015625 14.40625 51.78125 6.484375 
Q 45.5625 -1.421875 35.59375 -1.421875 
Q 29.59375 -1.421875 25.265625 0.953125 
Q 20.953125 3.328125 18.109375 8.203125 
z
M 48.6875 27.296875 
Q 48.6875 37.203125 44.609375 42.84375 
Q 40.53125 48.484375 33.40625 48.484375 
Q 26.265625 48.484375 22.1875 42.84375 
Q 18.109375 37.203125 18.109375 27.296875 
Q 18.109375 17.390625 22.1875 11.75 
Q 26.265625 6.109375 33.40625 6.109375 
Q 40.53125 6.109375 44.609375 11.75 
Q 48.6875 17.390625 48.6875 27.296875 
z
" id="DejaVuSans-112"/>
      <path d="M 30.609375 48.390625 
Q 23.390625 48.390625 19.1875 42.75 
Q 14.984375 37.109375 14.984375 27.296875 
Q 14.984375 17.484375 19.15625 11.84375 
Q 23.34375 6.203125 30.609375 6.203125 
Q 37.796875 6.203125 41.984375 11.859375 
Q 46.1875 17.53125 46.1875 27.296875 
Q 46.1875 37.015625 41.984375 42.703125 
Q 37.796875 48.390625 30.609375 48.390625 
z
M 30.609375 56 
Q 42.328125 56 49.015625 48.375 
Q 55.71875 40.765625 55.71875 27.296875 
Q 55.71875 13.875 49.015625 6.21875 
Q 42.328125 -1.421875 30.609375 -1.421875 
Q 18.84375 -1.421875 12.171875 6.21875 
Q 5.515625 13.875 5.515625 27.296875 
Q 5.515625 40.765625 12.171875 48.375 
Q 18.84375 56 30.609375 56 
z
" id="DejaVuSans-111"/>
      <path d="M 9.421875 54.6875 
L 18.40625 54.6875 
L 18.40625 0 
L 9.421875 0 
z
M 9.421875 75.984375 
L 18.40625 75.984375 
L 18.40625 64.59375 
L 9.421875 64.59375 
z
" id="DejaVuSans-105"/>
      <path d="M 18.3125 70.21875 
L 18.3125 54.6875 
L 36.8125 54.6875 
L 36.8125 47.703125 
L 18.3125 47.703125 
L 18.3125 18.015625 
Q 18.3125 11.328125 20.140625 9.421875 
Q 21.96875 7.515625 27.59375 7.515625 
L 36.8125 7.515625 
L 36.8125 0 
L 27.59375 0 
Q 17.1875 0 13.234375 3.875 
Q 9.28125 7.765625 9.28125 18.015625 
L 9.28125 47.703125 
L 2.6875 47.703125 
L 2.6875 54.6875 
L 9.28125 54.6875 
L 9.28125 70.21875 
z
" id="DejaVuSans-116"/>
      <path d="M 2.984375 54.6875 
L 12.5 54.6875 
L 29.59375 8.796875 
L 46.6875 54.6875 
L 56.203125 54.6875 
L 35.6875 0 
L 23.484375 0 
z
" id="DejaVuSans-118"/>
      <path d="M 41.109375 46.296875 
Q 39.59375 47.171875 37.8125 47.578125 
Q 36.03125 48 33.890625 48 
Q 26.265625 48 22.1875 43.046875 
Q 18.109375 38.09375 18.109375 28.8125 
L 18.109375 0 
L 9.078125 0 
L 9.078125 54.6875 
L 18.109375 54.6875 
L 18.109375 46.1875 
Q 20.953125 51.171875 25.484375 53.578125 
Q 30.03125 56 36.53125 56 
Q 37.453125 56 38.578125 55.875 
Q 39.703125 55.765625 41.0625 55.515625 
z
" id="DejaVuSans-114"/>
      <path d="M 31 75.875 
Q 24.46875 64.65625 21.28125 53.65625 
Q 18.109375 42.671875 18.109375 31.390625 
Q 18.109375 20.125 21.3125 9.0625 
Q 24.515625 -2 31 -13.1875 
L 23.1875 -13.1875 
Q 15.875 -1.703125 12.234375 9.375 
Q 8.59375 20.453125 8.59375 31.390625 
Q 8.59375 42.28125 12.203125 53.3125 
Q 15.828125 64.359375 23.1875 75.875 
z
" id="DejaVuSans-40"/>
      <path d="M 4.890625 31.390625 
L 31.203125 31.390625 
L 31.203125 23.390625 
L 4.890625 23.390625 
z
" id="DejaVuSans-45"/>
      <path d="M 48.78125 52.59375 
L 48.78125 44.1875 
Q 44.96875 46.296875 41.140625 47.34375 
Q 37.3125 48.390625 33.40625 48.390625 
Q 24.65625 48.390625 19.8125 42.84375 
Q 14.984375 37.3125 14.984375 27.296875 
Q 14.984375 17.28125 19.8125 11.734375 
Q 24.65625 6.203125 33.40625 6.203125 
Q 37.3125 6.203125 41.140625 7.25 
Q 44.96875 8.296875 48.78125 10.40625 
L 48.78125 2.09375 
Q 45.015625 0.34375 40.984375 -0.53125 
Q 36.96875 -1.421875 32.421875 -1.421875 
Q 20.0625 -1.421875 12.78125 6.34375 
Q 5.515625 14.109375 5.515625 27.296875 
Q 5.515625 40.671875 12.859375 48.328125 
Q 20.21875 56 33.015625 56 
Q 37.15625 56 41.109375 55.140625 
Q 45.0625 54.296875 48.78125 52.59375 
z
" id="DejaVuSans-99"/>
      <path d="M 37.109375 75.984375 
L 37.109375 68.5 
L 28.515625 68.5 
Q 23.6875 68.5 21.796875 66.546875 
Q 19.921875 64.59375 19.921875 59.515625 
L 19.921875 54.6875 
L 34.71875 54.6875 
L 34.71875 47.703125 
L 19.921875 47.703125 
L 19.921875 0 
L 10.890625 0 
L 10.890625 47.703125 
L 2.296875 47.703125 
L 2.296875 54.6875 
L 10.890625 54.6875 
L 10.890625 58.5 
Q 10.890625 67.625 15.140625 71.796875 
Q 19.390625 75.984375 28.609375 75.984375 
z
" id="DejaVuSans-102"/>
      <path d="M 32.171875 -5.078125 
Q 28.375 -14.84375 24.75 -17.8125 
Q 21.140625 -20.796875 15.09375 -20.796875 
L 7.90625 -20.796875 
L 7.90625 -13.28125 
L 13.1875 -13.28125 
Q 16.890625 -13.28125 18.9375 -11.515625 
Q 21 -9.765625 23.484375 -3.21875 
L 25.09375 0.875 
L 2.984375 54.6875 
L 12.5 54.6875 
L 29.59375 11.921875 
L 46.6875 54.6875 
L 56.203125 54.6875 
z
" id="DejaVuSans-121"/>
      <path d="M 8.015625 75.875 
L 15.828125 75.875 
Q 23.140625 64.359375 26.78125 53.3125 
Q 30.421875 42.28125 30.421875 31.390625 
Q 30.421875 20.453125 26.78125 9.375 
Q 23.140625 -1.703125 15.828125 -13.1875 
L 8.015625 -13.1875 
Q 14.5 -2 17.703125 9.0625 
Q 20.90625 20.125 20.90625 31.390625 
Q 20.90625 42.671875 17.703125 53.65625 
Q 14.5 64.65625 8.015625 75.875 
z
" id="DejaVuSans-41"/>
     </defs>
     <g transform="translate(136.595313 406.276563)scale(0.1 -0.1)">
      <use xlink:href="#DejaVuSans-70"/>
      <use x="57.378906" xlink:href="#DejaVuSans-97"/>
      <use x="118.658203" xlink:href="#DejaVuSans-108"/>
      <use x="146.441406" xlink:href="#DejaVuSans-115"/>
      <use x="198.541016" xlink:href="#DejaVuSans-101"/>
      <use x="260.064453" xlink:href="#DejaVuSans-32"/>
      <use x="291.851562" xlink:href="#DejaVuSans-112"/>
      <use x="355.328125" xlink:href="#DejaVuSans-111"/>
      <use x="416.509766" xlink:href="#DejaVuSans-115"/>
      <use x="468.609375" xlink:href="#DejaVuSans-105"/>
      <use x="496.392578" xlink:href="#DejaVuSans-116"/>
      <use x="535.601562" xlink:href="#DejaVuSans-105"/>
      <use x="563.384766" xlink:href="#DejaVuSans-118"/>
      <use x="622.564453" xlink:href="#DejaVuSans-101"/>
      <use x="684.087891" xlink:href="#DejaVuSans-32"/>
      <use x="715.875" xlink:href="#DejaVuSans-114"/>
      <use x="756.988281" xlink:href="#DejaVuSans-97"/>
      <use x="818.267578" xlink:href="#DejaVuSans-116"/>
      <use x="857.476562" xlink:href="#DejaVuSans-101"/>
      <use x="919" xlink:href="#DejaVuSans-32"/>
      <use x="950.787109" xlink:href="#DejaVuSans-40"/>
      <use x="989.800781" xlink:href="#DejaVuSans-49"/>
      <use x="1053.423828" xlink:href="#DejaVuSans-32"/>
      <use x="1085.210938" xlink:href="#DejaVuSans-45"/>
      <use x="1121.294922" xlink:href="#DejaVuSans-32"/>
      <use x="1153.082031" xlink:href="#DejaVuSans-115"/>
      <use x="1205.181641" xlink:href="#DejaVuSans-112"/>
      <use x="1268.658203" xlink:href="#DejaVuSans-101"/>
      <use x="1330.181641" xlink:href="#DejaVuSans-99"/>
      <use x="1385.162109" xlink:href="#DejaVuSans-105"/>
      <use x="1412.945312" xlink:href="#DejaVuSans-102"/>
      <use x="1448.150391" xlink:href="#DejaVuSans-105"/>
      <use x="1475.933594" xlink:href="#DejaVuSans-99"/>
      <use x="1530.914062" xlink:href="#DejaVuSans-105"/>
      <use x="1558.697266" xlink:href="#DejaVuSans-116"/>
      <use x="1597.90625" xlink:href="#DejaVuSans-121"/>
      <use x="1657.085938" xlink:href="#DejaVuSans-41"/>
     </g>
    </g>
   </g>
   <g id="matplotlib.axis_2">
    <g id="ytick_1">
     <g id="line2d_7">
      <defs>
       <path d="M 0 0 
L -3.5 0 
" id="m113cc102e7" style="stroke:#000000;stroke-width:0.8;"/>
      </defs>
      <g>
       <use style="stroke:#000000;stroke-width:0.8;" x="54" xlink:href="#m113cc102e7" y="378"/>
      </g>
     </g>
     <g id="text_8">
      <!-- 0.0 -->
      <g transform="translate(31.096875 381.799219)scale(0.1 -0.1)">
       <use xlink:href="#DejaVuSans-48"/>
       <use x="63.623047" xlink:href="#DejaVuSans-46"/>
       <use x="95.410156" xlink:href="#DejaVuSans-48"/>
      </g>
     </g>
    </g>
    <g id="ytick_2">
     <g id="line2d_8">
      <g>
       <use style="stroke:#000000;stroke-width:0.8;" x="54" xlink:href="#m113cc102e7" y="312.768"/>
      </g>
     </g>
     <g id="text_9">
      <!-- 0.2 -->
      <g transform="translate(31.096875 316.567219)scale(0.1 -0.1)">
       <use xlink:href="#DejaVuSans-48"/>
       <use x="63.623047" xlink:href="#DejaVuSans-46"/>
       <use x="95.410156" xlink:href="#DejaVuSans-50"/>
      </g>
     </g>
    </g>
    <g id="ytick_3">
     <g id="line2d_9">
      <g>
       <use style="stroke:#000000;stroke-width:0.8;" x="54" xlink:href="#m113cc102e7" y="247.536"/>
      </g>
     </g>
     <g id="text_10">
      <!-- 0.4 -->
      <g transform="translate(31.096875 251.335219)scale(0.1 -0.1)">
       <use xlink:href="#DejaVuSans-48"/>
       <use x="63.623047" xlink:href="#DejaVuSans-46"/>
       <use x="95.410156" xlink:href="#DejaVuSans-52"/>
      </g>
     </g>
    </g>
    <g id="ytick_4">
     <g id="line2d_10">
      <g>
       <use style="stroke:#000000;stroke-width:0.8;" x="54" xlink:href="#m113cc102e7" y="182.304"/>
      </g>
     </g>
     <g id="text_11">
      <!-- 0.6 -->
      <g transform="translate(31.096875 186.103219)scale(0.1 -0.1)">
       <use xlink:href="#DejaVuSans-48"/>
       <use x="63.623047" xlink:href="#DejaVuSans-46"/>
       <use x="95.410156" xlink:href="#DejaVuSans-54"/>
      </g>
     </g>
    </g>
    <g id="ytick_5">
     <g id="line2d_11">
      <g>
       <use style="stroke:#000000;stroke-width:0.8;" x="54" xlink:href="#m113cc102e7" y="117.072"/>
      </g>
     </g>
     <g id="text_12">
      <!-- 0.8 -->
      <g transform="translate(31.096875 120.871219)scale(0.1 -0.1)">
       <use xlink:href="#DejaVuSans-48"/>
       <use x="63.623047" xlink:href="#DejaVuSans-46"/>
       <use x="95.410156" xlink:href="#DejaVuSans-56"/>
      </g>
     </g>
    </g>
    <g id="ytick_6">
     <g id="line2d_12">
      <g>
       <use style="stroke:#000000;stroke-width:0.8;" x="54" xlink:href="#m113cc102e7" y="51.84"/>
      </g>
     </g>
     <g id="text_13">
      <!-- 1.0 -->
      <g transform="translate(31.096875 55.639219)scale(0.1 -0.1)">
       <use xlink:href="#DejaVuSans-49"/>
       <use x="63.623047" xlink:href="#DejaVuSans-46"/>
       <use x="95.410156" xlink:href="#DejaVuSans-48"/>
      </g>
     </g>
    </g>
    <g id="text_14">
     <!-- True positive rate (sensitivity) -->
     <defs>
      <path d="M -0.296875 72.90625 
L 61.375 72.90625 
L 61.375 64.59375 
L 35.5 64.59375 
L 35.5 0 
L 25.59375 0 
L 25.59375 64.59375 
L -0.296875 64.59375 
z
" id="DejaVuSans-84"/>
      <path d="M 8.5 21.578125 
L 8.5 54.6875 
L 17.484375 54.6875 
L 17.484375 21.921875 
Q 17.484375 14.15625 20.5 10.265625 
Q 23.53125 6.390625 29.59375 6.390625 
Q 36.859375 6.390625 41.078125 11.03125 
Q 45.3125 15.671875 45.3125 23.6875 
L 45.3125 54.6875 
L 54.296875 54.6875 
L 54.296875 0 
L 45.3125 0 
L 45.3125 8.40625 
Q 42.046875 3.421875 37.71875 1 
Q 33.40625 -1.421875 27.6875 -1.421875 
Q 18.265625 -1.421875 13.375 4.4375 
Q 8.5 10.296875 8.5 21.578125 
z
M 31.109375 56 
z
" id="DejaVuSans-117"/>
      <path d="M 54.890625 33.015625 
L 54.890625 0 
L 45.90625 0 
L 45.90625 32.71875 
Q 45.90625 40.484375 42.875 44.328125 
Q 39.84375 48.1875 33.796875 48.1875 
Q 26.515625 48.1875 22.3125 43.546875 
Q 18.109375 38.921875 18.109375 30.90625 
L 18.109375 0 
L 9.078125 0 
L 9.078125 54.6875 
L 18.109375 54.6875 
L 18.109375 46.1875 
Q 21.34375 51.125 25.703125 53.5625 
Q 30.078125 56 35.796875 56 
Q 45.21875 56 50.046875 50.171875 
Q 54.890625 44.34375 54.890625 33.015625 
z
" id="DejaVuSans-110"/>
     </defs>
     <g transform="translate(25.017187 290.162187)rotate(-90)scale(0.1 -0.1)">
      <use xlink:href="#DejaVuSans-84"/>
      <use x="60.865234" xlink:href="#DejaVuSans-114"/>
      <use x="101.978516" xlink:href="#DejaVuSans-117"/>
      <use x="165.357422" xlink:href="#DejaVuSans-101"/>
      <use x="226.880859" xlink:href="#DejaVuSans-32"/>
      <use x="258.667969" xlink:href="#DejaVuSans-112"/>
      <use x="322.144531" xlink:href="#DejaVuSans-111"/>
      <use x="383.326172" xlink:href="#DejaVuSans-115"/>
      <use x="435.425781" xlink:href="#DejaVuSans-105"/>
      <use x="463.208984" xlink:href="#DejaVuSans-116"/>
      <use x="502.417969" xlink:href="#DejaVuSans-105"/>
      <use x="530.201172" xlink:href="#DejaVuSans-118"/>
      <use x="589.380859" xlink:href="#DejaVuSans-101"/>
      <use x="650.904297" xlink:href="#DejaVuSans-32"/>
      <use x="682.691406" xlink:href="#DejaVuSans-114"/>
      <use x="723.804688" xlink:href="#DejaVuSans-97"/>
      <use x="785.083984" xlink:href="#DejaVuSans-116"/>
      <use x="824.292969" xlink:href="#DejaVuSans-101"/>
      <use x="885.816406" xlink:href="#DejaVuSans-32"/>
      <use x="917.603516" xlink:href="#DejaVuSans-40"/>
      <use x="956.617188" xlink:href="#DejaVuSans-115"/>
      <use x="1008.716797" xlink:href="#DejaVuSans-101"/>
      <use x="1070.240234" xlink:href="#DejaVuSans-110"/>
      <use x="1133.619141" xlink:href="#DejaVuSans-115"/>
      <use x="1185.71875" xlink:href="#DejaVuSans-105"/>
      <use x="1213.501953" xlink:href="#DejaVuSans-116"/>
      <use x="1252.710938" xlink:href="#DejaVuSans-105"/>
      <use x="1280.494141" xlink:href="#DejaVuSans-118"/>
      <use x="1339.673828" xlink:href="#DejaVuSans-105"/>
      <use x="1367.457031" xlink:href="#DejaVuSans-116"/>
      <use x="1406.666016" xlink:href="#DejaVuSans-121"/>
      <use x="1465.845703" xlink:href="#DejaVuSans-41"/>
     </g>
    </g>
   </g>
   <g id="line2d_13">
    <path clip-path="url(#pf88e977795)" d="M 54 378 
L 388.8 51.84 
" style="fill:none;stroke:#000000;stroke-dasharray:7.4,3.2;stroke-dashoffset:0;stroke-opacity:0.8;stroke-width:2;"/>
   </g>
   <g id="line2d_14">
    <path clip-path="url(#pf88e977795)" d="M 54 378 
L 57.381818 369.229815 
L 60.763636 360.717464 
L 64.145455 353.624221 
L 67.527273 347.433908 
L 70.909091 338.018627 
L 74.290909 331.488187 
L 77.672727 324.604878 
L 81.054545 316.738643 
L 84.436364 308.226803 
L 87.818182 301.907828 
L 91.2 296.877768 
L 94.581818 291.846941 
L 97.963636 286.430641 
L 101.345455 280.369755 
L 104.727273 273.535622 
L 108.109091 268.386034 
L 111.490909 263.476523 
L 114.872727 257.543788 
L 118.254545 252.385321 
L 121.636364 248.258956 
L 125.018182 241.29463 
L 128.4 237.423547 
L 131.781818 232.90992 
L 135.163636 228.137183 
L 138.545455 224.010563 
L 141.927273 219.239102 
L 145.309091 216.143818 
L 148.690909 210.822858 
L 152.072727 206.857454 
L 155.454545 202.635123 
L 158.836364 199.118861 
L 162.218182 195.507908 
L 165.6 192.412114 
L 168.981818 188.997792 
L 172.363636 185.448809 
L 175.745455 180.933906 
L 179.127273 176.949225 
L 182.509091 174.357352 
L 185.890909 170.74691 
L 189.272727 167.264875 
L 192.654545 163.13851 
L 196.036364 159.141317 
L 199.418182 156.045012 
L 202.8 152.691383 
L 206.181818 150.248725 
L 209.563636 147.144378 
L 212.945455 144.436611 
L 216.327273 141.85776 
L 219.709091 139.021076 
L 223.090909 136.44197 
L 226.472727 133.61675 
L 229.854545 130.510512 
L 233.236364 129.478921 
L 236.618182 126.126058 
L 240 123.031539 
L 243.381818 120.613254 
L 246.763636 118.389506 
L 250.145455 115.034856 
L 253.527273 113.100846 
L 256.909091 110.779829 
L 260.290909 108.458558 
L 263.672727 106.05955 
L 267.054545 103.944676 
L 270.436364 102.397161 
L 273.818182 100.523199 
L 277.2 98.140348 
L 280.581818 96.464171 
L 283.963636 95.174746 
L 287.345455 93.111564 
L 290.727273 91.305705 
L 294.109091 89.500101 
L 297.490909 87.823414 
L 300.872727 85.759976 
L 304.254545 83.954628 
L 307.636364 82.406347 
L 311.018182 80.859088 
L 314.4 79.698325 
L 317.781818 78.537561 
L 321.163636 77.118708 
L 324.545455 75.829028 
L 327.927273 75.055015 
L 331.309091 72.862916 
L 334.690909 71.500172 
L 338.072727 70.284065 
L 341.454545 68.994385 
L 344.836364 67.188526 
L 348.218182 66.027762 
L 351.6 65.125088 
L 354.981818 64.222158 
L 358.363636 62.029293 
L 361.745455 60.352351 
L 365.127273 58.933498 
L 368.509091 58.12042 
L 371.890909 57.256811 
L 375.272727 56.87006 
L 378.654545 55.064712 
L 382.036364 54.03261 
L 385.418182 53.38777 
L 388.8 51.84 
" style="fill:none;stroke:#1f77b4;stroke-linecap:square;stroke-opacity:0.8;stroke-width:2;"/>
   </g>
   <g id="line2d_15">
    <path clip-path="url(#pf88e977795)" d="M 54 378 
L 57.381818 351.819639 
L 60.763636 334.020669 
L 64.145455 321.510359 
L 67.527273 309.001581 
L 70.909091 295.845921 
L 74.290909 285.270643 
L 77.672727 273.145808 
L 81.054545 265.279063 
L 84.436364 257.412574 
L 87.818182 248.514493 
L 91.2 241.163416 
L 94.581818 234.713737 
L 97.963636 229.426864 
L 101.345455 224.010818 
L 104.727273 218.078339 
L 108.109091 212.660506 
L 111.490909 209.307899 
L 114.872727 203.632487 
L 118.254545 197.701029 
L 121.636364 193.574154 
L 125.018182 186.739255 
L 128.4 181.967284 
L 131.781818 176.937479 
L 135.163636 172.938499 
L 138.545455 168.682707 
L 141.927273 164.685514 
L 145.309091 161.59023 
L 148.690909 158.753035 
L 152.072727 156.045523 
L 155.454545 152.69317 
L 158.836364 150.371898 
L 162.218182 147.663876 
L 165.6 143.794579 
L 168.981818 140.054199 
L 172.363636 137.345921 
L 175.745455 134.895732 
L 179.127273 131.800703 
L 182.509091 128.447329 
L 185.890909 126.384147 
L 189.272727 123.546952 
L 192.654545 120.967591 
L 196.036364 118.387974 
L 199.418182 115.937275 
L 202.8 113.487342 
L 206.181818 111.29371 
L 209.563636 109.230273 
L 212.945455 107.296007 
L 216.327273 104.716901 
L 219.709091 102.781615 
L 223.090909 100.459322 
L 226.472727 98.524546 
L 229.854545 96.977287 
L 233.236364 95.558944 
L 236.618182 93.754106 
L 240 92.464171 
L 243.381818 91.303407 
L 246.763636 90.013727 
L 250.145455 88.208633 
L 253.527273 86.532712 
L 256.909091 85.372204 
L 260.290909 83.437173 
L 263.672727 81.631314 
L 267.054545 80.084055 
L 270.436364 78.923546 
L 273.818182 77.376542 
L 277.2 76.602785 
L 280.581818 75.957945 
L 283.963636 75.570939 
L 287.345455 74.797181 
L 290.727273 73.378839 
L 294.109091 72.734254 
L 297.490909 72.089669 
L 300.872727 71.186995 
L 304.254545 70.284321 
L 307.636364 68.865468 
L 311.018182 67.962283 
L 314.4 67.059609 
L 317.781818 65.8991 
L 321.163636 65.512094 
L 324.545455 64.608909 
L 327.927273 63.835407 
L 331.309091 62.804071 
L 334.690909 62.288148 
L 338.072727 61.900887 
L 341.454545 60.86904 
L 344.836364 59.836938 
L 348.218182 58.418341 
L 351.6 57.386494 
L 354.981818 56.612482 
L 358.363636 55.451718 
L 361.745455 54.549299 
L 365.127273 53.904459 
L 368.509091 53.517197 
L 371.890909 53.38828 
L 375.272727 53.001019 
L 378.654545 52.743185 
L 382.036364 52.355923 
L 385.418182 52.098089 
L 388.8 51.84 
" style="fill:none;stroke:#ff7f0e;stroke-linecap:square;stroke-opacity:0.8;stroke-width:2;"/>
   </g>
   <g id="patch_3">
    <path d="M 54 378 
L 54 51.84 
" style="fill:none;stroke:#000000;stroke-linecap:square;stroke-linejoin:miter;stroke-width:0.8;"/>
   </g>
   <g id="patch_4">
    <path d="M 388.8 378 
L 388.8 51.84 
" style="fill:none;stroke:#000000;stroke-linecap:square;stroke-linejoin:miter;stroke-width:0.8;"/>
   </g>
   <g id="patch_5">
    <path d="M 54 378 
L 388.8 378 
" style="fill:none;stroke:#000000;stroke-linecap:square;stroke-linejoin:miter;stroke-width:0.8;"/>
   </g>
   <g id="patch_6">
    <path d="M 54 51.84 
L 388.8 51.84 
" style="fill:none;stroke:#000000;stroke-linecap:square;stroke-linejoin:miter;stroke-width:0.8;"/>
   </g>
   <g id="legend_1">
    <g id="patch_7">
     <path d="M 90 373 
L 381.8 373 
Q 383.8 373 383.8 371 
L 383.8 327.965625 
Q 383.8 325.965625 381.8 325.965625 
L 90 325.965625 
Q 88 325.965625 88 327.965625 
L 88 371 
Q 88 373 90 373 
z
" style="fill:#ffffff;opacity:0.8;stroke:#cccccc;stroke-linejoin:miter;"/>
    </g>
    <g id="line2d_16">
     <path d="M 92 334.064062 
L 112 334.064062 
" style="fill:none;stroke:#000000;stroke-dasharray:7.4,3.2;stroke-dashoffset:0;stroke-opacity:0.8;stroke-width:2;"/>
    </g>
    <g id="line2d_17"/>
    <g id="text_15">
     <!-- Chance -->
     <defs>
      <path d="M 64.40625 67.28125 
L 64.40625 56.890625 
Q 59.421875 61.53125 53.78125 63.8125 
Q 48.140625 66.109375 41.796875 66.109375 
Q 29.296875 66.109375 22.65625 58.46875 
Q 16.015625 50.828125 16.015625 36.375 
Q 16.015625 21.96875 22.65625 14.328125 
Q 29.296875 6.6875 41.796875 6.6875 
Q 48.140625 6.6875 53.78125 8.984375 
Q 59.421875 11.28125 64.40625 15.921875 
L 64.40625 5.609375 
Q 59.234375 2.09375 53.4375 0.328125 
Q 47.65625 -1.421875 41.21875 -1.421875 
Q 24.65625 -1.421875 15.125 8.703125 
Q 5.609375 18.84375 5.609375 36.375 
Q 5.609375 53.953125 15.125 64.078125 
Q 24.65625 74.21875 41.21875 74.21875 
Q 47.75 74.21875 53.53125 72.484375 
Q 59.328125 70.75 64.40625 67.28125 
z
" id="DejaVuSans-67"/>
      <path d="M 54.890625 33.015625 
L 54.890625 0 
L 45.90625 0 
L 45.90625 32.71875 
Q 45.90625 40.484375 42.875 44.328125 
Q 39.84375 48.1875 33.796875 48.1875 
Q 26.515625 48.1875 22.3125 43.546875 
Q 18.109375 38.921875 18.109375 30.90625 
L 18.109375 0 
L 9.078125 0 
L 9.078125 75.984375 
L 18.109375 75.984375 
L 18.109375 46.1875 
Q 21.34375 51.125 25.703125 53.5625 
Q 30.078125 56 35.796875 56 
Q 45.21875 56 50.046875 50.171875 
Q 54.890625 44.34375 54.890625 33.015625 
z
" id="DejaVuSans-104"/>
     </defs>
     <g transform="translate(120 337.564062)scale(0.1 -0.1)">
      <use xlink:href="#DejaVuSans-67"/>
      <use x="69.824219" xlink:href="#DejaVuSans-104"/>
      <use x="133.203125" xlink:href="#DejaVuSans-97"/>
      <use x="194.482422" xlink:href="#DejaVuSans-110"/>
      <use x="257.861328" xlink:href="#DejaVuSans-99"/>
      <use x="312.841797" xlink:href="#DejaVuSans-101"/>
     </g>
    </g>
    <g id="line2d_18">
     <path d="M 92 348.742188 
L 112 348.742188 
" style="fill:none;stroke:#1f77b4;stroke-linecap:square;stroke-opacity:0.8;stroke-width:2;"/>
    </g>
    <g id="line2d_19"/>
    <g id="text_16">
     <!-- Univariate model, mean ROC (AUC = 0.66 $\pm$ 0.01) -->
     <defs>
      <path d="M 8.6875 72.90625 
L 18.609375 72.90625 
L 18.609375 28.609375 
Q 18.609375 16.890625 22.84375 11.734375 
Q 27.09375 6.59375 36.625 6.59375 
Q 46.09375 6.59375 50.34375 11.734375 
Q 54.59375 16.890625 54.59375 28.609375 
L 54.59375 72.90625 
L 64.5 72.90625 
L 64.5 27.390625 
Q 64.5 13.140625 57.4375 5.859375 
Q 50.390625 -1.421875 36.625 -1.421875 
Q 22.796875 -1.421875 15.734375 5.859375 
Q 8.6875 13.140625 8.6875 27.390625 
z
" id="DejaVuSans-85"/>
      <path d="M 52 44.1875 
Q 55.375 50.25 60.0625 53.125 
Q 64.75 56 71.09375 56 
Q 79.640625 56 84.28125 50.015625 
Q 88.921875 44.046875 88.921875 33.015625 
L 88.921875 0 
L 79.890625 0 
L 79.890625 32.71875 
Q 79.890625 40.578125 77.09375 44.375 
Q 74.3125 48.1875 68.609375 48.1875 
Q 61.625 48.1875 57.5625 43.546875 
Q 53.515625 38.921875 53.515625 30.90625 
L 53.515625 0 
L 44.484375 0 
L 44.484375 32.71875 
Q 44.484375 40.625 41.703125 44.40625 
Q 38.921875 48.1875 33.109375 48.1875 
Q 26.21875 48.1875 22.15625 43.53125 
Q 18.109375 38.875 18.109375 30.90625 
L 18.109375 0 
L 9.078125 0 
L 9.078125 54.6875 
L 18.109375 54.6875 
L 18.109375 46.1875 
Q 21.1875 51.21875 25.484375 53.609375 
Q 29.78125 56 35.6875 56 
Q 41.65625 56 45.828125 52.96875 
Q 50 49.953125 52 44.1875 
z
" id="DejaVuSans-109"/>
      <path d="M 45.40625 46.390625 
L 45.40625 75.984375 
L 54.390625 75.984375 
L 54.390625 0 
L 45.40625 0 
L 45.40625 8.203125 
Q 42.578125 3.328125 38.25 0.953125 
Q 33.9375 -1.421875 27.875 -1.421875 
Q 17.96875 -1.421875 11.734375 6.484375 
Q 5.515625 14.40625 5.515625 27.296875 
Q 5.515625 40.1875 11.734375 48.09375 
Q 17.96875 56 27.875 56 
Q 33.9375 56 38.25 53.625 
Q 42.578125 51.265625 45.40625 46.390625 
z
M 14.796875 27.296875 
Q 14.796875 17.390625 18.875 11.75 
Q 22.953125 6.109375 30.078125 6.109375 
Q 37.203125 6.109375 41.296875 11.75 
Q 45.40625 17.390625 45.40625 27.296875 
Q 45.40625 37.203125 41.296875 42.84375 
Q 37.203125 48.484375 30.078125 48.484375 
Q 22.953125 48.484375 18.875 42.84375 
Q 14.796875 37.203125 14.796875 27.296875 
z
" id="DejaVuSans-100"/>
      <path d="M 11.71875 12.40625 
L 22.015625 12.40625 
L 22.015625 4 
L 14.015625 -11.625 
L 7.71875 -11.625 
L 11.71875 4 
z
" id="DejaVuSans-44"/>
      <path d="M 44.390625 34.1875 
Q 47.5625 33.109375 50.5625 29.59375 
Q 53.5625 26.078125 56.59375 19.921875 
L 66.609375 0 
L 56 0 
L 46.6875 18.703125 
Q 43.0625 26.03125 39.671875 28.421875 
Q 36.28125 30.8125 30.421875 30.8125 
L 19.671875 30.8125 
L 19.671875 0 
L 9.8125 0 
L 9.8125 72.90625 
L 32.078125 72.90625 
Q 44.578125 72.90625 50.734375 67.671875 
Q 56.890625 62.453125 56.890625 51.90625 
Q 56.890625 45.015625 53.6875 40.46875 
Q 50.484375 35.9375 44.390625 34.1875 
z
M 19.671875 64.796875 
L 19.671875 38.921875 
L 32.078125 38.921875 
Q 39.203125 38.921875 42.84375 42.21875 
Q 46.484375 45.515625 46.484375 51.90625 
Q 46.484375 58.296875 42.84375 61.546875 
Q 39.203125 64.796875 32.078125 64.796875 
z
" id="DejaVuSans-82"/>
      <path d="M 39.40625 66.21875 
Q 28.65625 66.21875 22.328125 58.203125 
Q 16.015625 50.203125 16.015625 36.375 
Q 16.015625 22.609375 22.328125 14.59375 
Q 28.65625 6.59375 39.40625 6.59375 
Q 50.140625 6.59375 56.421875 14.59375 
Q 62.703125 22.609375 62.703125 36.375 
Q 62.703125 50.203125 56.421875 58.203125 
Q 50.140625 66.21875 39.40625 66.21875 
z
M 39.40625 74.21875 
Q 54.734375 74.21875 63.90625 63.9375 
Q 73.09375 53.65625 73.09375 36.375 
Q 73.09375 19.140625 63.90625 8.859375 
Q 54.734375 -1.421875 39.40625 -1.421875 
Q 24.03125 -1.421875 14.8125 8.828125 
Q 5.609375 19.09375 5.609375 36.375 
Q 5.609375 53.65625 14.8125 63.9375 
Q 24.03125 74.21875 39.40625 74.21875 
z
" id="DejaVuSans-79"/>
      <path d="M 34.1875 63.1875 
L 20.796875 26.90625 
L 47.609375 26.90625 
z
M 28.609375 72.90625 
L 39.796875 72.90625 
L 67.578125 0 
L 57.328125 0 
L 50.6875 18.703125 
L 17.828125 18.703125 
L 11.1875 0 
L 0.78125 0 
z
" id="DejaVuSans-65"/>
      <path d="M 10.59375 45.40625 
L 73.1875 45.40625 
L 73.1875 37.203125 
L 10.59375 37.203125 
z
M 10.59375 25.484375 
L 73.1875 25.484375 
L 73.1875 17.1875 
L 10.59375 17.1875 
z
" id="DejaVuSans-61"/>
      <path d="M 46 62.703125 
L 46 43.796875 
L 73.1875 43.796875 
L 73.1875 35.5 
L 46 35.5 
L 46 16.609375 
L 37.796875 16.609375 
L 37.796875 35.5 
L 10.59375 35.5 
L 10.59375 43.796875 
L 37.796875 43.796875 
L 37.796875 62.703125 
z
M 10.59375 8.296875 
L 73.1875 8.296875 
L 73.1875 0 
L 10.59375 0 
z
" id="DejaVuSans-177"/>
     </defs>
     <g transform="translate(120 352.242188)scale(0.1 -0.1)">
      <use transform="translate(0 0.015625)" xlink:href="#DejaVuSans-85"/>
      <use transform="translate(73.193359 0.015625)" xlink:href="#DejaVuSans-110"/>
      <use transform="translate(136.572266 0.015625)" xlink:href="#DejaVuSans-105"/>
      <use transform="translate(164.355469 0.015625)" xlink:href="#DejaVuSans-118"/>
      <use transform="translate(223.535156 0.015625)" xlink:href="#DejaVuSans-97"/>
      <use transform="translate(284.814453 0.015625)" xlink:href="#DejaVuSans-114"/>
      <use transform="translate(325.927734 0.015625)" xlink:href="#DejaVuSans-105"/>
      <use transform="translate(353.710938 0.015625)" xlink:href="#DejaVuSans-97"/>
      <use transform="translate(414.990234 0.015625)" xlink:href="#DejaVuSans-116"/>
      <use transform="translate(454.199219 0.015625)" xlink:href="#DejaVuSans-101"/>
      <use transform="translate(515.722656 0.015625)" xlink:href="#DejaVuSans-32"/>
      <use transform="translate(547.509766 0.015625)" xlink:href="#DejaVuSans-109"/>
      <use transform="translate(644.921875 0.015625)" xlink:href="#DejaVuSans-111"/>
      <use transform="translate(706.103516 0.015625)" xlink:href="#DejaVuSans-100"/>
      <use transform="translate(769.580078 0.015625)" xlink:href="#DejaVuSans-101"/>
      <use transform="translate(831.103516 0.015625)" xlink:href="#DejaVuSans-108"/>
      <use transform="translate(858.886719 0.015625)" xlink:href="#DejaVuSans-44"/>
      <use transform="translate(890.673828 0.015625)" xlink:href="#DejaVuSans-32"/>
      <use transform="translate(922.460938 0.015625)" xlink:href="#DejaVuSans-109"/>
      <use transform="translate(1019.873047 0.015625)" xlink:href="#DejaVuSans-101"/>
      <use transform="translate(1081.396484 0.015625)" xlink:href="#DejaVuSans-97"/>
      <use transform="translate(1142.675781 0.015625)" xlink:href="#DejaVuSans-110"/>
      <use transform="translate(1206.054688 0.015625)" xlink:href="#DejaVuSans-32"/>
      <use transform="translate(1237.841797 0.015625)" xlink:href="#DejaVuSans-82"/>
      <use transform="translate(1307.324219 0.015625)" xlink:href="#DejaVuSans-79"/>
      <use transform="translate(1386.035156 0.015625)" xlink:href="#DejaVuSans-67"/>
      <use transform="translate(1455.859375 0.015625)" xlink:href="#DejaVuSans-32"/>
      <use transform="translate(1487.646484 0.015625)" xlink:href="#DejaVuSans-40"/>
      <use transform="translate(1526.660156 0.015625)" xlink:href="#DejaVuSans-65"/>
      <use transform="translate(1595.068359 0.015625)" xlink:href="#DejaVuSans-85"/>
      <use transform="translate(1668.261719 0.015625)" xlink:href="#DejaVuSans-67"/>
      <use transform="translate(1738.085938 0.015625)" xlink:href="#DejaVuSans-32"/>
      <use transform="translate(1769.873047 0.015625)" xlink:href="#DejaVuSans-61"/>
      <use transform="translate(1853.662109 0.015625)" xlink:href="#DejaVuSans-32"/>
      <use transform="translate(1885.449219 0.015625)" xlink:href="#DejaVuSans-48"/>
      <use transform="translate(1949.072266 0.015625)" xlink:href="#DejaVuSans-46"/>
      <use transform="translate(1980.859375 0.015625)" xlink:href="#DejaVuSans-54"/>
      <use transform="translate(2044.482422 0.015625)" xlink:href="#DejaVuSans-54"/>
      <use transform="translate(2108.105469 0.015625)" xlink:href="#DejaVuSans-32"/>
      <use transform="translate(2139.892578 0.015625)" xlink:href="#DejaVuSans-177"/>
      <use transform="translate(2223.681641 0.015625)" xlink:href="#DejaVuSans-32"/>
      <use transform="translate(2255.46875 0.015625)" xlink:href="#DejaVuSans-48"/>
      <use transform="translate(2319.091797 0.015625)" xlink:href="#DejaVuSans-46"/>
      <use transform="translate(2350.878906 0.015625)" xlink:href="#DejaVuSans-48"/>
      <use transform="translate(2414.501953 0.015625)" xlink:href="#DejaVuSans-49"/>
      <use transform="translate(2478.125 0.015625)" xlink:href="#DejaVuSans-41"/>
     </g>
    </g>
    <g id="line2d_20">
     <path d="M 92 363.420313 
L 112 363.420313 
" style="fill:none;stroke:#ff7f0e;stroke-linecap:square;stroke-opacity:0.8;stroke-width:2;"/>
    </g>
    <g id="line2d_21"/>
    <g id="text_17">
     <!-- Multivariate model, mean ROC (AUC = 0.76 $\pm$ 0.01) -->
     <defs>
      <path d="M 9.8125 72.90625 
L 24.515625 72.90625 
L 43.109375 23.296875 
L 61.8125 72.90625 
L 76.515625 72.90625 
L 76.515625 0 
L 66.890625 0 
L 66.890625 64.015625 
L 48.09375 14.015625 
L 38.1875 14.015625 
L 19.390625 64.015625 
L 19.390625 0 
L 9.8125 0 
z
" id="DejaVuSans-77"/>
      <path d="M 8.203125 72.90625 
L 55.078125 72.90625 
L 55.078125 68.703125 
L 28.609375 0 
L 18.3125 0 
L 43.21875 64.59375 
L 8.203125 64.59375 
z
" id="DejaVuSans-55"/>
     </defs>
     <g transform="translate(120 366.920313)scale(0.1 -0.1)">
      <use transform="translate(0 0.015625)" xlink:href="#DejaVuSans-77"/>
      <use transform="translate(86.279297 0.015625)" xlink:href="#DejaVuSans-117"/>
      <use transform="translate(149.658203 0.015625)" xlink:href="#DejaVuSans-108"/>
      <use transform="translate(177.441406 0.015625)" xlink:href="#DejaVuSans-116"/>
      <use transform="translate(216.650391 0.015625)" xlink:href="#DejaVuSans-105"/>
      <use transform="translate(244.433594 0.015625)" xlink:href="#DejaVuSans-118"/>
      <use transform="translate(303.613281 0.015625)" xlink:href="#DejaVuSans-97"/>
      <use transform="translate(364.892578 0.015625)" xlink:href="#DejaVuSans-114"/>
      <use transform="translate(406.005859 0.015625)" xlink:href="#DejaVuSans-105"/>
      <use transform="translate(433.789062 0.015625)" xlink:href="#DejaVuSans-97"/>
      <use transform="translate(495.068359 0.015625)" xlink:href="#DejaVuSans-116"/>
      <use transform="translate(534.277344 0.015625)" xlink:href="#DejaVuSans-101"/>
      <use transform="translate(595.800781 0.015625)" xlink:href="#DejaVuSans-32"/>
      <use transform="translate(627.587891 0.015625)" xlink:href="#DejaVuSans-109"/>
      <use transform="translate(725 0.015625)" xlink:href="#DejaVuSans-111"/>
      <use transform="translate(786.181641 0.015625)" xlink:href="#DejaVuSans-100"/>
      <use transform="translate(849.658203 0.015625)" xlink:href="#DejaVuSans-101"/>
      <use transform="translate(911.181641 0.015625)" xlink:href="#DejaVuSans-108"/>
      <use transform="translate(938.964844 0.015625)" xlink:href="#DejaVuSans-44"/>
      <use transform="translate(970.751953 0.015625)" xlink:href="#DejaVuSans-32"/>
      <use transform="translate(1002.539062 0.015625)" xlink:href="#DejaVuSans-109"/>
      <use transform="translate(1099.951172 0.015625)" xlink:href="#DejaVuSans-101"/>
      <use transform="translate(1161.474609 0.015625)" xlink:href="#DejaVuSans-97"/>
      <use transform="translate(1222.753906 0.015625)" xlink:href="#DejaVuSans-110"/>
      <use transform="translate(1286.132812 0.015625)" xlink:href="#DejaVuSans-32"/>
      <use transform="translate(1317.919922 0.015625)" xlink:href="#DejaVuSans-82"/>
      <use transform="translate(1387.402344 0.015625)" xlink:href="#DejaVuSans-79"/>
      <use transform="translate(1466.113281 0.015625)" xlink:href="#DejaVuSans-67"/>
      <use transform="translate(1535.9375 0.015625)" xlink:href="#DejaVuSans-32"/>
      <use transform="translate(1567.724609 0.015625)" xlink:href="#DejaVuSans-40"/>
      <use transform="translate(1606.738281 0.015625)" xlink:href="#DejaVuSans-65"/>
      <use transform="translate(1675.146484 0.015625)" xlink:href="#DejaVuSans-85"/>
      <use transform="translate(1748.339844 0.015625)" xlink:href="#DejaVuSans-67"/>
      <use transform="translate(1818.164062 0.015625)" xlink:href="#DejaVuSans-32"/>
      <use transform="translate(1849.951172 0.015625)" xlink:href="#DejaVuSans-61"/>
      <use transform="translate(1933.740234 0.015625)" xlink:href="#DejaVuSans-32"/>
      <use transform="translate(1965.527344 0.015625)" xlink:href="#DejaVuSans-48"/>
      <use transform="translate(2029.150391 0.015625)" xlink:href="#DejaVuSans-46"/>
      <use transform="translate(2060.828125 0.015625)" xlink:href="#DejaVuSans-55"/>
      <use transform="translate(2124.451172 0.015625)" xlink:href="#DejaVuSans-54"/>
      <use transform="translate(2188.074219 0.015625)" xlink:href="#DejaVuSans-32"/>
      <use transform="translate(2219.861328 0.015625)" xlink:href="#DejaVuSans-177"/>
      <use transform="translate(2303.650391 0.015625)" xlink:href="#DejaVuSans-32"/>
      <use transform="translate(2335.4375 0.015625)" xlink:href="#DejaVuSans-48"/>
      <use transform="translate(2399.060547 0.015625)" xlink:href="#DejaVuSans-46"/>
      <use transform="translate(2430.847656 0.015625)" xlink:href="#DejaVuSans-48"/>
      <use transform="translate(2494.470703 0.015625)" xlink:href="#DejaVuSans-49"/>
      <use transform="translate(2558.09375 0.015625)" xlink:href="#DejaVuSans-41"/>
     </g>
    </g>
   </g>
  </g>
 </g>
 <defs>
  <clipPath id="pf88e977795">
   <rect height="326.16" width="334.8" x="54" y="51.84"/>
  </clipPath>
 </defs>
</svg>
