<?xml version="1.0" encoding="utf-8" standalone="no"?>
<!DOCTYPE svg PUBLIC "-//W3C//DTD SVG 1.1//EN"
  "http://www.w3.org/Graphics/SVG/1.1/DTD/svg11.dtd">
<!-- Created with matplotlib (https://matplotlib.org/) -->
<svg height="864pt" version="1.1" viewBox="0 0 864 864" width="864pt" xmlns="http://www.w3.org/2000/svg" xmlns:xlink="http://www.w3.org/1999/xlink">
 <defs>
  <style type="text/css">
*{stroke-linecap:butt;stroke-linejoin:round;}
  </style>
 </defs>
 <g id="figure_1">
  <g id="patch_1">
   <path d="M 0 864 
L 864 864 
L 864 0 
L 0 0 
z
" style="fill:#ffffff;"/>
  </g>
  <g id="axes_1">
   <g id="patch_2">
    <path d="M 108 400.189091 
L 412.363636 400.189091 
L 412.363636 103.68 
L 108 103.68 
z
" style="fill:#ffffff;"/>
   </g>
   <g id="matplotlib.axis_1">
    <g id="xtick_1">
     <g id="line2d_1">
      <defs>
       <path d="M 0 0 
L 0 3.5 
" id="m3c354d467d" style="stroke:#000000;stroke-width:0.8;"/>
      </defs>
      <g>
       <use style="stroke:#000000;stroke-width:0.8;" x="121.834711" xlink:href="#m3c354d467d" y="400.189091"/>
      </g>
     </g>
     <g id="text_1">
      <!-- 3 -->
      <defs>
       <path d="M 40.578125 39.3125 
Q 47.65625 37.796875 51.625 33 
Q 55.609375 28.21875 55.609375 21.1875 
Q 55.609375 10.40625 48.1875 4.484375 
Q 40.765625 -1.421875 27.09375 -1.421875 
Q 22.515625 -1.421875 17.65625 -0.515625 
Q 12.796875 0.390625 7.625 2.203125 
L 7.625 11.71875 
Q 11.71875 9.328125 16.59375 8.109375 
Q 21.484375 6.890625 26.8125 6.890625 
Q 36.078125 6.890625 40.9375 10.546875 
Q 45.796875 14.203125 45.796875 21.1875 
Q 45.796875 27.640625 41.28125 31.265625 
Q 36.765625 34.90625 28.71875 34.90625 
L 20.21875 34.90625 
L 20.21875 43.015625 
L 29.109375 43.015625 
Q 36.375 43.015625 40.234375 45.921875 
Q 44.09375 48.828125 44.09375 54.296875 
Q 44.09375 59.90625 40.109375 62.90625 
Q 36.140625 65.921875 28.71875 65.921875 
Q 24.65625 65.921875 20.015625 65.03125 
Q 15.375 64.15625 9.8125 62.3125 
L 9.8125 71.09375 
Q 15.4375 72.65625 20.34375 73.4375 
Q 25.25 74.21875 29.59375 74.21875 
Q 40.828125 74.21875 47.359375 69.109375 
Q 53.90625 64.015625 53.90625 55.328125 
Q 53.90625 49.265625 50.4375 45.09375 
Q 46.96875 40.921875 40.578125 39.3125 
z
" id="DejaVuSans-51"/>
      </defs>
      <g transform="translate(118.653461 414.787528)scale(0.1 -0.1)">
       <use xlink:href="#DejaVuSans-51"/>
      </g>
     </g>
    </g>
    <g id="xtick_2">
     <g id="line2d_2">
      <g>
       <use style="stroke:#000000;stroke-width:0.8;" x="167.950413" xlink:href="#m3c354d467d" y="400.189091"/>
      </g>
     </g>
     <g id="text_2">
      <!-- 4 -->
      <defs>
       <path d="M 37.796875 64.3125 
L 12.890625 25.390625 
L 37.796875 25.390625 
z
M 35.203125 72.90625 
L 47.609375 72.90625 
L 47.609375 25.390625 
L 58.015625 25.390625 
L 58.015625 17.1875 
L 47.609375 17.1875 
L 47.609375 0 
L 37.796875 0 
L 37.796875 17.1875 
L 4.890625 17.1875 
L 4.890625 26.703125 
z
" id="DejaVuSans-52"/>
      </defs>
      <g transform="translate(164.769163 414.787528)scale(0.1 -0.1)">
       <use xlink:href="#DejaVuSans-52"/>
      </g>
     </g>
    </g>
    <g id="xtick_3">
     <g id="line2d_3">
      <g>
       <use style="stroke:#000000;stroke-width:0.8;" x="214.066116" xlink:href="#m3c354d467d" y="400.189091"/>
      </g>
     </g>
     <g id="text_3">
      <!-- 5 -->
      <defs>
       <path d="M 10.796875 72.90625 
L 49.515625 72.90625 
L 49.515625 64.59375 
L 19.828125 64.59375 
L 19.828125 46.734375 
Q 21.96875 47.46875 24.109375 47.828125 
Q 26.265625 48.1875 28.421875 48.1875 
Q 40.625 48.1875 47.75 41.5 
Q 54.890625 34.8125 54.890625 23.390625 
Q 54.890625 11.625 47.5625 5.09375 
Q 40.234375 -1.421875 26.90625 -1.421875 
Q 22.3125 -1.421875 17.546875 -0.640625 
Q 12.796875 0.140625 7.71875 1.703125 
L 7.71875 11.625 
Q 12.109375 9.234375 16.796875 8.0625 
Q 21.484375 6.890625 26.703125 6.890625 
Q 35.15625 6.890625 40.078125 11.328125 
Q 45.015625 15.765625 45.015625 23.390625 
Q 45.015625 31 40.078125 35.4375 
Q 35.15625 39.890625 26.703125 39.890625 
Q 22.75 39.890625 18.8125 39.015625 
Q 14.890625 38.140625 10.796875 36.28125 
z
" id="DejaVuSans-53"/>
      </defs>
      <g transform="translate(210.884866 414.787528)scale(0.1 -0.1)">
       <use xlink:href="#DejaVuSans-53"/>
      </g>
     </g>
    </g>
    <g id="xtick_4">
     <g id="line2d_4">
      <g>
       <use style="stroke:#000000;stroke-width:0.8;" x="260.181818" xlink:href="#m3c354d467d" y="400.189091"/>
      </g>
     </g>
     <g id="text_4">
      <!-- 6 -->
      <defs>
       <path d="M 33.015625 40.375 
Q 26.375 40.375 22.484375 35.828125 
Q 18.609375 31.296875 18.609375 23.390625 
Q 18.609375 15.53125 22.484375 10.953125 
Q 26.375 6.390625 33.015625 6.390625 
Q 39.65625 6.390625 43.53125 10.953125 
Q 47.40625 15.53125 47.40625 23.390625 
Q 47.40625 31.296875 43.53125 35.828125 
Q 39.65625 40.375 33.015625 40.375 
z
M 52.59375 71.296875 
L 52.59375 62.3125 
Q 48.875 64.0625 45.09375 64.984375 
Q 41.3125 65.921875 37.59375 65.921875 
Q 27.828125 65.921875 22.671875 59.328125 
Q 17.53125 52.734375 16.796875 39.40625 
Q 19.671875 43.65625 24.015625 45.921875 
Q 28.375 48.1875 33.59375 48.1875 
Q 44.578125 48.1875 50.953125 41.515625 
Q 57.328125 34.859375 57.328125 23.390625 
Q 57.328125 12.15625 50.6875 5.359375 
Q 44.046875 -1.421875 33.015625 -1.421875 
Q 20.359375 -1.421875 13.671875 8.265625 
Q 6.984375 17.96875 6.984375 36.375 
Q 6.984375 53.65625 15.1875 63.9375 
Q 23.390625 74.21875 37.203125 74.21875 
Q 40.921875 74.21875 44.703125 73.484375 
Q 48.484375 72.75 52.59375 71.296875 
z
" id="DejaVuSans-54"/>
      </defs>
      <g transform="translate(257.000568 414.787528)scale(0.1 -0.1)">
       <use xlink:href="#DejaVuSans-54"/>
      </g>
     </g>
    </g>
    <g id="xtick_5">
     <g id="line2d_5">
      <g>
       <use style="stroke:#000000;stroke-width:0.8;" x="306.297521" xlink:href="#m3c354d467d" y="400.189091"/>
      </g>
     </g>
     <g id="text_5">
      <!-- 7 -->
      <defs>
       <path d="M 8.203125 72.90625 
L 55.078125 72.90625 
L 55.078125 68.703125 
L 28.609375 0 
L 18.3125 0 
L 43.21875 64.59375 
L 8.203125 64.59375 
z
" id="DejaVuSans-55"/>
      </defs>
      <g transform="translate(303.116271 414.787528)scale(0.1 -0.1)">
       <use xlink:href="#DejaVuSans-55"/>
      </g>
     </g>
    </g>
    <g id="xtick_6">
     <g id="line2d_6">
      <g>
       <use style="stroke:#000000;stroke-width:0.8;" x="352.413223" xlink:href="#m3c354d467d" y="400.189091"/>
      </g>
     </g>
     <g id="text_6">
      <!-- 8 -->
      <defs>
       <path d="M 31.78125 34.625 
Q 24.75 34.625 20.71875 30.859375 
Q 16.703125 27.09375 16.703125 20.515625 
Q 16.703125 13.921875 20.71875 10.15625 
Q 24.75 6.390625 31.78125 6.390625 
Q 38.8125 6.390625 42.859375 10.171875 
Q 46.921875 13.96875 46.921875 20.515625 
Q 46.921875 27.09375 42.890625 30.859375 
Q 38.875 34.625 31.78125 34.625 
z
M 21.921875 38.8125 
Q 15.578125 40.375 12.03125 44.71875 
Q 8.5 49.078125 8.5 55.328125 
Q 8.5 64.0625 14.71875 69.140625 
Q 20.953125 74.21875 31.78125 74.21875 
Q 42.671875 74.21875 48.875 69.140625 
Q 55.078125 64.0625 55.078125 55.328125 
Q 55.078125 49.078125 51.53125 44.71875 
Q 48 40.375 41.703125 38.8125 
Q 48.828125 37.15625 52.796875 32.3125 
Q 56.78125 27.484375 56.78125 20.515625 
Q 56.78125 9.90625 50.3125 4.234375 
Q 43.84375 -1.421875 31.78125 -1.421875 
Q 19.734375 -1.421875 13.25 4.234375 
Q 6.78125 9.90625 6.78125 20.515625 
Q 6.78125 27.484375 10.78125 32.3125 
Q 14.796875 37.15625 21.921875 38.8125 
z
M 18.3125 54.390625 
Q 18.3125 48.734375 21.84375 45.5625 
Q 25.390625 42.390625 31.78125 42.390625 
Q 38.140625 42.390625 41.71875 45.5625 
Q 45.3125 48.734375 45.3125 54.390625 
Q 45.3125 60.0625 41.71875 63.234375 
Q 38.140625 66.40625 31.78125 66.40625 
Q 25.390625 66.40625 21.84375 63.234375 
Q 18.3125 60.0625 18.3125 54.390625 
z
" id="DejaVuSans-56"/>
      </defs>
      <g transform="translate(349.231973 414.787528)scale(0.1 -0.1)">
       <use xlink:href="#DejaVuSans-56"/>
      </g>
     </g>
    </g>
    <g id="xtick_7">
     <g id="line2d_7">
      <g>
       <use style="stroke:#000000;stroke-width:0.8;" x="398.528926" xlink:href="#m3c354d467d" y="400.189091"/>
      </g>
     </g>
     <g id="text_7">
      <!-- 9 -->
      <defs>
       <path d="M 10.984375 1.515625 
L 10.984375 10.5 
Q 14.703125 8.734375 18.5 7.8125 
Q 22.3125 6.890625 25.984375 6.890625 
Q 35.75 6.890625 40.890625 13.453125 
Q 46.046875 20.015625 46.78125 33.40625 
Q 43.953125 29.203125 39.59375 26.953125 
Q 35.25 24.703125 29.984375 24.703125 
Q 19.046875 24.703125 12.671875 31.3125 
Q 6.296875 37.9375 6.296875 49.421875 
Q 6.296875 60.640625 12.9375 67.421875 
Q 19.578125 74.21875 30.609375 74.21875 
Q 43.265625 74.21875 49.921875 64.515625 
Q 56.59375 54.828125 56.59375 36.375 
Q 56.59375 19.140625 48.40625 8.859375 
Q 40.234375 -1.421875 26.421875 -1.421875 
Q 22.703125 -1.421875 18.890625 -0.6875 
Q 15.09375 0.046875 10.984375 1.515625 
z
M 30.609375 32.421875 
Q 37.25 32.421875 41.125 36.953125 
Q 45.015625 41.5 45.015625 49.421875 
Q 45.015625 57.28125 41.125 61.84375 
Q 37.25 66.40625 30.609375 66.40625 
Q 23.96875 66.40625 20.09375 61.84375 
Q 16.21875 57.28125 16.21875 49.421875 
Q 16.21875 41.5 20.09375 36.953125 
Q 23.96875 32.421875 30.609375 32.421875 
z
" id="DejaVuSans-57"/>
      </defs>
      <g transform="translate(395.347676 414.787528)scale(0.1 -0.1)">
       <use xlink:href="#DejaVuSans-57"/>
      </g>
     </g>
    </g>
    <g id="text_8">
     <!-- Monte Carlo N -->
     <defs>
      <path d="M 9.8125 72.90625 
L 24.515625 72.90625 
L 43.109375 23.296875 
L 61.8125 72.90625 
L 76.515625 72.90625 
L 76.515625 0 
L 66.890625 0 
L 66.890625 64.015625 
L 48.09375 14.015625 
L 38.1875 14.015625 
L 19.390625 64.015625 
L 19.390625 0 
L 9.8125 0 
z
" id="DejaVuSans-77"/>
      <path d="M 30.609375 48.390625 
Q 23.390625 48.390625 19.1875 42.75 
Q 14.984375 37.109375 14.984375 27.296875 
Q 14.984375 17.484375 19.15625 11.84375 
Q 23.34375 6.203125 30.609375 6.203125 
Q 37.796875 6.203125 41.984375 11.859375 
Q 46.1875 17.53125 46.1875 27.296875 
Q 46.1875 37.015625 41.984375 42.703125 
Q 37.796875 48.390625 30.609375 48.390625 
z
M 30.609375 56 
Q 42.328125 56 49.015625 48.375 
Q 55.71875 40.765625 55.71875 27.296875 
Q 55.71875 13.875 49.015625 6.21875 
Q 42.328125 -1.421875 30.609375 -1.421875 
Q 18.84375 -1.421875 12.171875 6.21875 
Q 5.515625 13.875 5.515625 27.296875 
Q 5.515625 40.765625 12.171875 48.375 
Q 18.84375 56 30.609375 56 
z
" id="DejaVuSans-111"/>
      <path d="M 54.890625 33.015625 
L 54.890625 0 
L 45.90625 0 
L 45.90625 32.71875 
Q 45.90625 40.484375 42.875 44.328125 
Q 39.84375 48.1875 33.796875 48.1875 
Q 26.515625 48.1875 22.3125 43.546875 
Q 18.109375 38.921875 18.109375 30.90625 
L 18.109375 0 
L 9.078125 0 
L 9.078125 54.6875 
L 18.109375 54.6875 
L 18.109375 46.1875 
Q 21.34375 51.125 25.703125 53.5625 
Q 30.078125 56 35.796875 56 
Q 45.21875 56 50.046875 50.171875 
Q 54.890625 44.34375 54.890625 33.015625 
z
" id="DejaVuSans-110"/>
      <path d="M 18.3125 70.21875 
L 18.3125 54.6875 
L 36.8125 54.6875 
L 36.8125 47.703125 
L 18.3125 47.703125 
L 18.3125 18.015625 
Q 18.3125 11.328125 20.140625 9.421875 
Q 21.96875 7.515625 27.59375 7.515625 
L 36.8125 7.515625 
L 36.8125 0 
L 27.59375 0 
Q 17.1875 0 13.234375 3.875 
Q 9.28125 7.765625 9.28125 18.015625 
L 9.28125 47.703125 
L 2.6875 47.703125 
L 2.6875 54.6875 
L 9.28125 54.6875 
L 9.28125 70.21875 
z
" id="DejaVuSans-116"/>
      <path d="M 56.203125 29.59375 
L 56.203125 25.203125 
L 14.890625 25.203125 
Q 15.484375 15.921875 20.484375 11.0625 
Q 25.484375 6.203125 34.421875 6.203125 
Q 39.59375 6.203125 44.453125 7.46875 
Q 49.3125 8.734375 54.109375 11.28125 
L 54.109375 2.78125 
Q 49.265625 0.734375 44.1875 -0.34375 
Q 39.109375 -1.421875 33.890625 -1.421875 
Q 20.796875 -1.421875 13.15625 6.1875 
Q 5.515625 13.8125 5.515625 26.8125 
Q 5.515625 40.234375 12.765625 48.109375 
Q 20.015625 56 32.328125 56 
Q 43.359375 56 49.78125 48.890625 
Q 56.203125 41.796875 56.203125 29.59375 
z
M 47.21875 32.234375 
Q 47.125 39.59375 43.09375 43.984375 
Q 39.0625 48.390625 32.421875 48.390625 
Q 24.90625 48.390625 20.390625 44.140625 
Q 15.875 39.890625 15.1875 32.171875 
z
" id="DejaVuSans-101"/>
      <path id="DejaVuSans-32"/>
      <path d="M 64.40625 67.28125 
L 64.40625 56.890625 
Q 59.421875 61.53125 53.78125 63.8125 
Q 48.140625 66.109375 41.796875 66.109375 
Q 29.296875 66.109375 22.65625 58.46875 
Q 16.015625 50.828125 16.015625 36.375 
Q 16.015625 21.96875 22.65625 14.328125 
Q 29.296875 6.6875 41.796875 6.6875 
Q 48.140625 6.6875 53.78125 8.984375 
Q 59.421875 11.28125 64.40625 15.921875 
L 64.40625 5.609375 
Q 59.234375 2.09375 53.4375 0.328125 
Q 47.65625 -1.421875 41.21875 -1.421875 
Q 24.65625 -1.421875 15.125 8.703125 
Q 5.609375 18.84375 5.609375 36.375 
Q 5.609375 53.953125 15.125 64.078125 
Q 24.65625 74.21875 41.21875 74.21875 
Q 47.75 74.21875 53.53125 72.484375 
Q 59.328125 70.75 64.40625 67.28125 
z
" id="DejaVuSans-67"/>
      <path d="M 34.28125 27.484375 
Q 23.390625 27.484375 19.1875 25 
Q 14.984375 22.515625 14.984375 16.5 
Q 14.984375 11.71875 18.140625 8.90625 
Q 21.296875 6.109375 26.703125 6.109375 
Q 34.1875 6.109375 38.703125 11.40625 
Q 43.21875 16.703125 43.21875 25.484375 
L 43.21875 27.484375 
z
M 52.203125 31.203125 
L 52.203125 0 
L 43.21875 0 
L 43.21875 8.296875 
Q 40.140625 3.328125 35.546875 0.953125 
Q 30.953125 -1.421875 24.3125 -1.421875 
Q 15.921875 -1.421875 10.953125 3.296875 
Q 6 8.015625 6 15.921875 
Q 6 25.140625 12.171875 29.828125 
Q 18.359375 34.515625 30.609375 34.515625 
L 43.21875 34.515625 
L 43.21875 35.40625 
Q 43.21875 41.609375 39.140625 45 
Q 35.0625 48.390625 27.6875 48.390625 
Q 23 48.390625 18.546875 47.265625 
Q 14.109375 46.140625 10.015625 43.890625 
L 10.015625 52.203125 
Q 14.9375 54.109375 19.578125 55.046875 
Q 24.21875 56 28.609375 56 
Q 40.484375 56 46.34375 49.84375 
Q 52.203125 43.703125 52.203125 31.203125 
z
" id="DejaVuSans-97"/>
      <path d="M 41.109375 46.296875 
Q 39.59375 47.171875 37.8125 47.578125 
Q 36.03125 48 33.890625 48 
Q 26.265625 48 22.1875 43.046875 
Q 18.109375 38.09375 18.109375 28.8125 
L 18.109375 0 
L 9.078125 0 
L 9.078125 54.6875 
L 18.109375 54.6875 
L 18.109375 46.1875 
Q 20.953125 51.171875 25.484375 53.578125 
Q 30.03125 56 36.53125 56 
Q 37.453125 56 38.578125 55.875 
Q 39.703125 55.765625 41.0625 55.515625 
z
" id="DejaVuSans-114"/>
      <path d="M 9.421875 75.984375 
L 18.40625 75.984375 
L 18.40625 0 
L 9.421875 0 
z
" id="DejaVuSans-108"/>
      <path d="M 9.8125 72.90625 
L 23.09375 72.90625 
L 55.421875 11.921875 
L 55.421875 72.90625 
L 64.984375 72.90625 
L 64.984375 0 
L 51.703125 0 
L 19.390625 60.984375 
L 19.390625 0 
L 9.8125 0 
z
" id="DejaVuSans-78"/>
     </defs>
     <g transform="translate(224.624787 428.465653)scale(0.1 -0.1)">
      <use xlink:href="#DejaVuSans-77"/>
      <use x="86.279297" xlink:href="#DejaVuSans-111"/>
      <use x="147.460938" xlink:href="#DejaVuSans-110"/>
      <use x="210.839844" xlink:href="#DejaVuSans-116"/>
      <use x="250.048828" xlink:href="#DejaVuSans-101"/>
      <use x="311.572266" xlink:href="#DejaVuSans-32"/>
      <use x="343.359375" xlink:href="#DejaVuSans-67"/>
      <use x="413.183594" xlink:href="#DejaVuSans-97"/>
      <use x="474.462891" xlink:href="#DejaVuSans-114"/>
      <use x="515.576172" xlink:href="#DejaVuSans-108"/>
      <use x="543.359375" xlink:href="#DejaVuSans-111"/>
      <use x="604.541016" xlink:href="#DejaVuSans-32"/>
      <use x="636.328125" xlink:href="#DejaVuSans-78"/>
     </g>
    </g>
   </g>
   <g id="matplotlib.axis_2">
    <g id="ytick_1">
     <g id="line2d_8">
      <defs>
       <path d="M 0 0 
L -3.5 0 
" id="mdc963be8fc" style="stroke:#000000;stroke-width:0.8;"/>
      </defs>
      <g>
       <use style="stroke:#000000;stroke-width:0.8;" x="108" xlink:href="#mdc963be8fc" y="390.615701"/>
      </g>
     </g>
     <g id="text_9">
      <!-- 0.50 -->
      <defs>
       <path d="M 31.78125 66.40625 
Q 24.171875 66.40625 20.328125 58.90625 
Q 16.5 51.421875 16.5 36.375 
Q 16.5 21.390625 20.328125 13.890625 
Q 24.171875 6.390625 31.78125 6.390625 
Q 39.453125 6.390625 43.28125 13.890625 
Q 47.125 21.390625 47.125 36.375 
Q 47.125 51.421875 43.28125 58.90625 
Q 39.453125 66.40625 31.78125 66.40625 
z
M 31.78125 74.21875 
Q 44.046875 74.21875 50.515625 64.515625 
Q 56.984375 54.828125 56.984375 36.375 
Q 56.984375 17.96875 50.515625 8.265625 
Q 44.046875 -1.421875 31.78125 -1.421875 
Q 19.53125 -1.421875 13.0625 8.265625 
Q 6.59375 17.96875 6.59375 36.375 
Q 6.59375 54.828125 13.0625 64.515625 
Q 19.53125 74.21875 31.78125 74.21875 
z
" id="DejaVuSans-48"/>
       <path d="M 10.6875 12.40625 
L 21 12.40625 
L 21 0 
L 10.6875 0 
z
" id="DejaVuSans-46"/>
      </defs>
      <g transform="translate(78.734375 394.41492)scale(0.1 -0.1)">
       <use xlink:href="#DejaVuSans-48"/>
       <use x="63.623047" xlink:href="#DejaVuSans-46"/>
       <use x="95.410156" xlink:href="#DejaVuSans-53"/>
       <use x="159.033203" xlink:href="#DejaVuSans-48"/>
      </g>
     </g>
    </g>
    <g id="ytick_2">
     <g id="line2d_9">
      <g>
       <use style="stroke:#000000;stroke-width:0.8;" x="108" xlink:href="#mdc963be8fc" y="344.183173"/>
      </g>
     </g>
     <g id="text_10">
      <!-- 0.55 -->
      <g transform="translate(78.734375 347.982392)scale(0.1 -0.1)">
       <use xlink:href="#DejaVuSans-48"/>
       <use x="63.623047" xlink:href="#DejaVuSans-46"/>
       <use x="95.410156" xlink:href="#DejaVuSans-53"/>
       <use x="159.033203" xlink:href="#DejaVuSans-53"/>
      </g>
     </g>
    </g>
    <g id="ytick_3">
     <g id="line2d_10">
      <g>
       <use style="stroke:#000000;stroke-width:0.8;" x="108" xlink:href="#mdc963be8fc" y="297.750645"/>
      </g>
     </g>
     <g id="text_11">
      <!-- 0.60 -->
      <g transform="translate(78.734375 301.549864)scale(0.1 -0.1)">
       <use xlink:href="#DejaVuSans-48"/>
       <use x="63.623047" xlink:href="#DejaVuSans-46"/>
       <use x="95.410156" xlink:href="#DejaVuSans-54"/>
       <use x="159.033203" xlink:href="#DejaVuSans-48"/>
      </g>
     </g>
    </g>
    <g id="ytick_4">
     <g id="line2d_11">
      <g>
       <use style="stroke:#000000;stroke-width:0.8;" x="108" xlink:href="#mdc963be8fc" y="251.318117"/>
      </g>
     </g>
     <g id="text_12">
      <!-- 0.65 -->
      <g transform="translate(78.734375 255.117335)scale(0.1 -0.1)">
       <use xlink:href="#DejaVuSans-48"/>
       <use x="63.623047" xlink:href="#DejaVuSans-46"/>
       <use x="95.410156" xlink:href="#DejaVuSans-54"/>
       <use x="159.033203" xlink:href="#DejaVuSans-53"/>
      </g>
     </g>
    </g>
    <g id="ytick_5">
     <g id="line2d_12">
      <g>
       <use style="stroke:#000000;stroke-width:0.8;" x="108" xlink:href="#mdc963be8fc" y="204.885588"/>
      </g>
     </g>
     <g id="text_13">
      <!-- 0.70 -->
      <g transform="translate(78.734375 208.684807)scale(0.1 -0.1)">
       <use xlink:href="#DejaVuSans-48"/>
       <use x="63.623047" xlink:href="#DejaVuSans-46"/>
       <use x="95.410156" xlink:href="#DejaVuSans-55"/>
       <use x="159.033203" xlink:href="#DejaVuSans-48"/>
      </g>
     </g>
    </g>
    <g id="ytick_6">
     <g id="line2d_13">
      <g>
       <use style="stroke:#000000;stroke-width:0.8;" x="108" xlink:href="#mdc963be8fc" y="158.45306"/>
      </g>
     </g>
     <g id="text_14">
      <!-- 0.75 -->
      <g transform="translate(78.734375 162.252279)scale(0.1 -0.1)">
       <use xlink:href="#DejaVuSans-48"/>
       <use x="63.623047" xlink:href="#DejaVuSans-46"/>
       <use x="95.410156" xlink:href="#DejaVuSans-55"/>
       <use x="159.033203" xlink:href="#DejaVuSans-53"/>
      </g>
     </g>
    </g>
    <g id="ytick_7">
     <g id="line2d_14">
      <g>
       <use style="stroke:#000000;stroke-width:0.8;" x="108" xlink:href="#mdc963be8fc" y="112.020532"/>
      </g>
     </g>
     <g id="text_15">
      <!-- 0.80 -->
      <g transform="translate(78.734375 115.81975)scale(0.1 -0.1)">
       <use xlink:href="#DejaVuSans-48"/>
       <use x="63.623047" xlink:href="#DejaVuSans-46"/>
       <use x="95.410156" xlink:href="#DejaVuSans-56"/>
       <use x="159.033203" xlink:href="#DejaVuSans-48"/>
      </g>
     </g>
    </g>
    <g id="text_16">
     <!-- IOU -->
     <defs>
      <path d="M 9.8125 72.90625 
L 19.671875 72.90625 
L 19.671875 0 
L 9.8125 0 
z
" id="DejaVuSans-73"/>
      <path d="M 39.40625 66.21875 
Q 28.65625 66.21875 22.328125 58.203125 
Q 16.015625 50.203125 16.015625 36.375 
Q 16.015625 22.609375 22.328125 14.59375 
Q 28.65625 6.59375 39.40625 6.59375 
Q 50.140625 6.59375 56.421875 14.59375 
Q 62.703125 22.609375 62.703125 36.375 
Q 62.703125 50.203125 56.421875 58.203125 
Q 50.140625 66.21875 39.40625 66.21875 
z
M 39.40625 74.21875 
Q 54.734375 74.21875 63.90625 63.9375 
Q 73.09375 53.65625 73.09375 36.375 
Q 73.09375 19.140625 63.90625 8.859375 
Q 54.734375 -1.421875 39.40625 -1.421875 
Q 24.03125 -1.421875 14.8125 8.828125 
Q 5.609375 19.09375 5.609375 36.375 
Q 5.609375 53.65625 14.8125 63.9375 
Q 24.03125 74.21875 39.40625 74.21875 
z
" id="DejaVuSans-79"/>
      <path d="M 8.6875 72.90625 
L 18.609375 72.90625 
L 18.609375 28.609375 
Q 18.609375 16.890625 22.84375 11.734375 
Q 27.09375 6.59375 36.625 6.59375 
Q 46.09375 6.59375 50.34375 11.734375 
Q 54.59375 16.890625 54.59375 28.609375 
L 54.59375 72.90625 
L 64.5 72.90625 
L 64.5 27.390625 
Q 64.5 13.140625 57.4375 5.859375 
Q 50.390625 -1.421875 36.625 -1.421875 
Q 22.796875 -1.421875 15.734375 5.859375 
Q 8.6875 13.140625 8.6875 27.390625 
z
" id="DejaVuSans-85"/>
     </defs>
     <g transform="translate(72.654687 261.004858)rotate(-90)scale(0.1 -0.1)">
      <use xlink:href="#DejaVuSans-73"/>
      <use x="29.492188" xlink:href="#DejaVuSans-79"/>
      <use x="108.203125" xlink:href="#DejaVuSans-85"/>
     </g>
    </g>
   </g>
   <g id="LineCollection_1">
    <path clip-path="url(#p51c21e99d0)" d="M 121.834711 372.760206 
L 121.834711 122.808903 
" style="fill:none;stroke:#1f77b4;stroke-width:1.5;"/>
    <path clip-path="url(#p51c21e99d0)" d="M 167.950413 386.711405 
L 167.950413 129.43048 
" style="fill:none;stroke:#1f77b4;stroke-width:1.5;"/>
    <path clip-path="url(#p51c21e99d0)" d="M 214.066116 371.582617 
L 214.066116 117.192164 
" style="fill:none;stroke:#1f77b4;stroke-width:1.5;"/>
    <path clip-path="url(#p51c21e99d0)" d="M 260.181818 378.250111 
L 260.181818 123.769928 
" style="fill:none;stroke:#1f77b4;stroke-width:1.5;"/>
    <path clip-path="url(#p51c21e99d0)" d="M 306.297521 369.960613 
L 306.297521 120.071533 
" style="fill:none;stroke:#1f77b4;stroke-width:1.5;"/>
    <path clip-path="url(#p51c21e99d0)" d="M 352.413223 376.6925 
L 352.413223 117.708144 
" style="fill:none;stroke:#1f77b4;stroke-width:1.5;"/>
    <path clip-path="url(#p51c21e99d0)" d="M 398.528926 369.438753 
L 398.528926 117.157686 
" style="fill:none;stroke:#1f77b4;stroke-width:1.5;"/>
   </g>
   <g id="line2d_15">
    <defs>
     <path d="M 3 0 
L -3 -0 
" id="maaf72ddb68" style="stroke:#1f77b4;"/>
    </defs>
    <g clip-path="url(#p51c21e99d0)">
     <use style="fill:#1f77b4;stroke:#1f77b4;" x="121.834711" xlink:href="#maaf72ddb68" y="372.760206"/>
     <use style="fill:#1f77b4;stroke:#1f77b4;" x="167.950413" xlink:href="#maaf72ddb68" y="386.711405"/>
     <use style="fill:#1f77b4;stroke:#1f77b4;" x="214.066116" xlink:href="#maaf72ddb68" y="371.582617"/>
     <use style="fill:#1f77b4;stroke:#1f77b4;" x="260.181818" xlink:href="#maaf72ddb68" y="378.250111"/>
     <use style="fill:#1f77b4;stroke:#1f77b4;" x="306.297521" xlink:href="#maaf72ddb68" y="369.960613"/>
     <use style="fill:#1f77b4;stroke:#1f77b4;" x="352.413223" xlink:href="#maaf72ddb68" y="376.6925"/>
     <use style="fill:#1f77b4;stroke:#1f77b4;" x="398.528926" xlink:href="#maaf72ddb68" y="369.438753"/>
    </g>
   </g>
   <g id="line2d_16">
    <g clip-path="url(#p51c21e99d0)">
     <use style="fill:#1f77b4;stroke:#1f77b4;" x="121.834711" xlink:href="#maaf72ddb68" y="122.808903"/>
     <use style="fill:#1f77b4;stroke:#1f77b4;" x="167.950413" xlink:href="#maaf72ddb68" y="129.43048"/>
     <use style="fill:#1f77b4;stroke:#1f77b4;" x="214.066116" xlink:href="#maaf72ddb68" y="117.192164"/>
     <use style="fill:#1f77b4;stroke:#1f77b4;" x="260.181818" xlink:href="#maaf72ddb68" y="123.769928"/>
     <use style="fill:#1f77b4;stroke:#1f77b4;" x="306.297521" xlink:href="#maaf72ddb68" y="120.071533"/>
     <use style="fill:#1f77b4;stroke:#1f77b4;" x="352.413223" xlink:href="#maaf72ddb68" y="117.708144"/>
     <use style="fill:#1f77b4;stroke:#1f77b4;" x="398.528926" xlink:href="#maaf72ddb68" y="117.157686"/>
    </g>
   </g>
   <g id="line2d_17">
    <path clip-path="url(#p51c21e99d0)" d="M 121.834711 247.784554 
L 167.950413 258.070942 
L 214.066116 244.38739 
L 260.181818 251.01002 
L 306.297521 245.016073 
L 352.413223 247.200322 
L 398.528926 243.29822 
" style="fill:none;stroke:#1f77b4;stroke-linecap:square;stroke-width:1.5;"/>
    <defs>
     <path d="M 0 3 
C 0.795609 3 1.55874 2.683901 2.12132 2.12132 
C 2.683901 1.55874 3 0.795609 3 0 
C 3 -0.795609 2.683901 -1.55874 2.12132 -2.12132 
C 1.55874 -2.683901 0.795609 -3 0 -3 
C -0.795609 -3 -1.55874 -2.683901 -2.12132 -2.12132 
C -2.683901 -1.55874 -3 -0.795609 -3 0 
C -3 0.795609 -2.683901 1.55874 -2.12132 2.12132 
C -1.55874 2.683901 -0.795609 3 0 3 
z
" id="m3048d3d0ab" style="stroke:#1f77b4;"/>
    </defs>
    <g clip-path="url(#p51c21e99d0)">
     <use style="fill:#1f77b4;stroke:#1f77b4;" x="121.834711" xlink:href="#m3048d3d0ab" y="247.784554"/>
     <use style="fill:#1f77b4;stroke:#1f77b4;" x="167.950413" xlink:href="#m3048d3d0ab" y="258.070942"/>
     <use style="fill:#1f77b4;stroke:#1f77b4;" x="214.066116" xlink:href="#m3048d3d0ab" y="244.38739"/>
     <use style="fill:#1f77b4;stroke:#1f77b4;" x="260.181818" xlink:href="#m3048d3d0ab" y="251.01002"/>
     <use style="fill:#1f77b4;stroke:#1f77b4;" x="306.297521" xlink:href="#m3048d3d0ab" y="245.016073"/>
     <use style="fill:#1f77b4;stroke:#1f77b4;" x="352.413223" xlink:href="#m3048d3d0ab" y="247.200322"/>
     <use style="fill:#1f77b4;stroke:#1f77b4;" x="398.528926" xlink:href="#m3048d3d0ab" y="243.29822"/>
    </g>
   </g>
   <g id="patch_3">
    <path d="M 108 400.189091 
L 108 103.68 
" style="fill:none;stroke:#000000;stroke-linecap:square;stroke-linejoin:miter;stroke-width:0.8;"/>
   </g>
   <g id="patch_4">
    <path d="M 412.363636 400.189091 
L 412.363636 103.68 
" style="fill:none;stroke:#000000;stroke-linecap:square;stroke-linejoin:miter;stroke-width:0.8;"/>
   </g>
   <g id="patch_5">
    <path d="M 108 400.189091 
L 412.363636 400.189091 
" style="fill:none;stroke:#000000;stroke-linecap:square;stroke-linejoin:miter;stroke-width:0.8;"/>
   </g>
   <g id="patch_6">
    <path d="M 108 103.68 
L 412.363636 103.68 
" style="fill:none;stroke:#000000;stroke-linecap:square;stroke-linejoin:miter;stroke-width:0.8;"/>
   </g>
  </g>
  <g id="axes_2">
   <g id="patch_7">
    <path d="M 473.236364 400.189091 
L 777.6 400.189091 
L 777.6 103.68 
L 473.236364 103.68 
z
" style="fill:#ffffff;"/>
   </g>
   <g id="matplotlib.axis_3">
    <g id="xtick_8">
     <g id="line2d_18">
      <g>
       <use style="stroke:#000000;stroke-width:0.8;" x="487.071074" xlink:href="#m3c354d467d" y="400.189091"/>
      </g>
     </g>
     <g id="text_17">
      <!-- 3 -->
      <g transform="translate(483.889824 414.787528)scale(0.1 -0.1)">
       <use xlink:href="#DejaVuSans-51"/>
      </g>
     </g>
    </g>
    <g id="xtick_9">
     <g id="line2d_19">
      <g>
       <use style="stroke:#000000;stroke-width:0.8;" x="533.186777" xlink:href="#m3c354d467d" y="400.189091"/>
      </g>
     </g>
     <g id="text_18">
      <!-- 4 -->
      <g transform="translate(530.005527 414.787528)scale(0.1 -0.1)">
       <use xlink:href="#DejaVuSans-52"/>
      </g>
     </g>
    </g>
    <g id="xtick_10">
     <g id="line2d_20">
      <g>
       <use style="stroke:#000000;stroke-width:0.8;" x="579.302479" xlink:href="#m3c354d467d" y="400.189091"/>
      </g>
     </g>
     <g id="text_19">
      <!-- 5 -->
      <g transform="translate(576.121229 414.787528)scale(0.1 -0.1)">
       <use xlink:href="#DejaVuSans-53"/>
      </g>
     </g>
    </g>
    <g id="xtick_11">
     <g id="line2d_21">
      <g>
       <use style="stroke:#000000;stroke-width:0.8;" x="625.418182" xlink:href="#m3c354d467d" y="400.189091"/>
      </g>
     </g>
     <g id="text_20">
      <!-- 6 -->
      <g transform="translate(622.236932 414.787528)scale(0.1 -0.1)">
       <use xlink:href="#DejaVuSans-54"/>
      </g>
     </g>
    </g>
    <g id="xtick_12">
     <g id="line2d_22">
      <g>
       <use style="stroke:#000000;stroke-width:0.8;" x="671.533884" xlink:href="#m3c354d467d" y="400.189091"/>
      </g>
     </g>
     <g id="text_21">
      <!-- 7 -->
      <g transform="translate(668.352634 414.787528)scale(0.1 -0.1)">
       <use xlink:href="#DejaVuSans-55"/>
      </g>
     </g>
    </g>
    <g id="xtick_13">
     <g id="line2d_23">
      <g>
       <use style="stroke:#000000;stroke-width:0.8;" x="717.649587" xlink:href="#m3c354d467d" y="400.189091"/>
      </g>
     </g>
     <g id="text_22">
      <!-- 8 -->
      <g transform="translate(714.468337 414.787528)scale(0.1 -0.1)">
       <use xlink:href="#DejaVuSans-56"/>
      </g>
     </g>
    </g>
    <g id="xtick_14">
     <g id="line2d_24">
      <g>
       <use style="stroke:#000000;stroke-width:0.8;" x="763.765289" xlink:href="#m3c354d467d" y="400.189091"/>
      </g>
     </g>
     <g id="text_23">
      <!-- 9 -->
      <g transform="translate(760.584039 414.787528)scale(0.1 -0.1)">
       <use xlink:href="#DejaVuSans-57"/>
      </g>
     </g>
    </g>
    <g id="text_24">
     <!-- Monte Carlo N -->
     <g transform="translate(589.861151 428.465653)scale(0.1 -0.1)">
      <use xlink:href="#DejaVuSans-77"/>
      <use x="86.279297" xlink:href="#DejaVuSans-111"/>
      <use x="147.460938" xlink:href="#DejaVuSans-110"/>
      <use x="210.839844" xlink:href="#DejaVuSans-116"/>
      <use x="250.048828" xlink:href="#DejaVuSans-101"/>
      <use x="311.572266" xlink:href="#DejaVuSans-32"/>
      <use x="343.359375" xlink:href="#DejaVuSans-67"/>
      <use x="413.183594" xlink:href="#DejaVuSans-97"/>
      <use x="474.462891" xlink:href="#DejaVuSans-114"/>
      <use x="515.576172" xlink:href="#DejaVuSans-108"/>
      <use x="543.359375" xlink:href="#DejaVuSans-111"/>
      <use x="604.541016" xlink:href="#DejaVuSans-32"/>
      <use x="636.328125" xlink:href="#DejaVuSans-78"/>
     </g>
    </g>
   </g>
   <g id="matplotlib.axis_4">
    <g id="ytick_8">
     <g id="line2d_25">
      <g>
       <use style="stroke:#000000;stroke-width:0.8;" x="473.236364" xlink:href="#mdc963be8fc" y="391.434465"/>
      </g>
     </g>
     <g id="text_25">
      <!-- 0.65 -->
      <g transform="translate(443.970739 395.233684)scale(0.1 -0.1)">
       <use xlink:href="#DejaVuSans-48"/>
       <use x="63.623047" xlink:href="#DejaVuSans-46"/>
       <use x="95.410156" xlink:href="#DejaVuSans-54"/>
       <use x="159.033203" xlink:href="#DejaVuSans-53"/>
      </g>
     </g>
    </g>
    <g id="ytick_9">
     <g id="line2d_26">
      <g>
       <use style="stroke:#000000;stroke-width:0.8;" x="473.236364" xlink:href="#mdc963be8fc" y="336.194951"/>
      </g>
     </g>
     <g id="text_26">
      <!-- 0.70 -->
      <g transform="translate(443.970739 339.994169)scale(0.1 -0.1)">
       <use xlink:href="#DejaVuSans-48"/>
       <use x="63.623047" xlink:href="#DejaVuSans-46"/>
       <use x="95.410156" xlink:href="#DejaVuSans-55"/>
       <use x="159.033203" xlink:href="#DejaVuSans-48"/>
      </g>
     </g>
    </g>
    <g id="ytick_10">
     <g id="line2d_27">
      <g>
       <use style="stroke:#000000;stroke-width:0.8;" x="473.236364" xlink:href="#mdc963be8fc" y="280.955436"/>
      </g>
     </g>
     <g id="text_27">
      <!-- 0.75 -->
      <g transform="translate(443.970739 284.754655)scale(0.1 -0.1)">
       <use xlink:href="#DejaVuSans-48"/>
       <use x="63.623047" xlink:href="#DejaVuSans-46"/>
       <use x="95.410156" xlink:href="#DejaVuSans-55"/>
       <use x="159.033203" xlink:href="#DejaVuSans-53"/>
      </g>
     </g>
    </g>
    <g id="ytick_11">
     <g id="line2d_28">
      <g>
       <use style="stroke:#000000;stroke-width:0.8;" x="473.236364" xlink:href="#mdc963be8fc" y="225.715922"/>
      </g>
     </g>
     <g id="text_28">
      <!-- 0.80 -->
      <g transform="translate(443.970739 229.515141)scale(0.1 -0.1)">
       <use xlink:href="#DejaVuSans-48"/>
       <use x="63.623047" xlink:href="#DejaVuSans-46"/>
       <use x="95.410156" xlink:href="#DejaVuSans-56"/>
       <use x="159.033203" xlink:href="#DejaVuSans-48"/>
      </g>
     </g>
    </g>
    <g id="ytick_12">
     <g id="line2d_29">
      <g>
       <use style="stroke:#000000;stroke-width:0.8;" x="473.236364" xlink:href="#mdc963be8fc" y="170.476408"/>
      </g>
     </g>
     <g id="text_29">
      <!-- 0.85 -->
      <g transform="translate(443.970739 174.275627)scale(0.1 -0.1)">
       <use xlink:href="#DejaVuSans-48"/>
       <use x="63.623047" xlink:href="#DejaVuSans-46"/>
       <use x="95.410156" xlink:href="#DejaVuSans-56"/>
       <use x="159.033203" xlink:href="#DejaVuSans-53"/>
      </g>
     </g>
    </g>
    <g id="ytick_13">
     <g id="line2d_30">
      <g>
       <use style="stroke:#000000;stroke-width:0.8;" x="473.236364" xlink:href="#mdc963be8fc" y="115.236894"/>
      </g>
     </g>
     <g id="text_30">
      <!-- 0.90 -->
      <g transform="translate(443.970739 119.036112)scale(0.1 -0.1)">
       <use xlink:href="#DejaVuSans-48"/>
       <use x="63.623047" xlink:href="#DejaVuSans-46"/>
       <use x="95.410156" xlink:href="#DejaVuSans-57"/>
       <use x="159.033203" xlink:href="#DejaVuSans-48"/>
      </g>
     </g>
    </g>
    <g id="text_31">
     <!-- DSC -->
     <defs>
      <path d="M 19.671875 64.796875 
L 19.671875 8.109375 
L 31.59375 8.109375 
Q 46.6875 8.109375 53.6875 14.9375 
Q 60.6875 21.78125 60.6875 36.53125 
Q 60.6875 51.171875 53.6875 57.984375 
Q 46.6875 64.796875 31.59375 64.796875 
z
M 9.8125 72.90625 
L 30.078125 72.90625 
Q 51.265625 72.90625 61.171875 64.09375 
Q 71.09375 55.28125 71.09375 36.53125 
Q 71.09375 17.671875 61.125 8.828125 
Q 51.171875 0 30.078125 0 
L 9.8125 0 
z
" id="DejaVuSans-68"/>
      <path d="M 53.515625 70.515625 
L 53.515625 60.890625 
Q 47.90625 63.578125 42.921875 64.890625 
Q 37.9375 66.21875 33.296875 66.21875 
Q 25.25 66.21875 20.875 63.09375 
Q 16.5 59.96875 16.5 54.203125 
Q 16.5 49.359375 19.40625 46.890625 
Q 22.3125 44.4375 30.421875 42.921875 
L 36.375 41.703125 
Q 47.40625 39.59375 52.65625 34.296875 
Q 57.90625 29 57.90625 20.125 
Q 57.90625 9.515625 50.796875 4.046875 
Q 43.703125 -1.421875 29.984375 -1.421875 
Q 24.8125 -1.421875 18.96875 -0.25 
Q 13.140625 0.921875 6.890625 3.21875 
L 6.890625 13.375 
Q 12.890625 10.015625 18.65625 8.296875 
Q 24.421875 6.59375 29.984375 6.59375 
Q 38.421875 6.59375 43.015625 9.90625 
Q 47.609375 13.234375 47.609375 19.390625 
Q 47.609375 24.75 44.3125 27.78125 
Q 41.015625 30.8125 33.5 32.328125 
L 27.484375 33.5 
Q 16.453125 35.6875 11.515625 40.375 
Q 6.59375 45.0625 6.59375 53.421875 
Q 6.59375 63.09375 13.40625 68.65625 
Q 20.21875 74.21875 32.171875 74.21875 
Q 37.3125 74.21875 42.625 73.28125 
Q 47.953125 72.359375 53.515625 70.515625 
z
" id="DejaVuSans-83"/>
     </defs>
     <g transform="translate(437.891051 262.45017)rotate(-90)scale(0.1 -0.1)">
      <use xlink:href="#DejaVuSans-68"/>
      <use x="77.001953" xlink:href="#DejaVuSans-83"/>
      <use x="140.478516" xlink:href="#DejaVuSans-67"/>
     </g>
    </g>
   </g>
   <g id="LineCollection_2">
    <path clip-path="url(#pd2451b5c46)" d="M 487.071074 369.627766 
L 487.071074 122.382904 
" style="fill:none;stroke:#1f77b4;stroke-width:1.5;"/>
    <path clip-path="url(#pd2451b5c46)" d="M 533.186777 386.711405 
L 533.186777 125.210683 
" style="fill:none;stroke:#1f77b4;stroke-width:1.5;"/>
    <path clip-path="url(#pd2451b5c46)" d="M 579.302479 369.001053 
L 579.302479 117.742381 
" style="fill:none;stroke:#1f77b4;stroke-width:1.5;"/>
    <path clip-path="url(#pd2451b5c46)" d="M 625.418182 375.876751 
L 625.418182 122.646512 
" style="fill:none;stroke:#1f77b4;stroke-width:1.5;"/>
    <path clip-path="url(#pd2451b5c46)" d="M 671.533884 366.958095 
L 671.533884 120.154478 
" style="fill:none;stroke:#1f77b4;stroke-width:1.5;"/>
    <path clip-path="url(#pd2451b5c46)" d="M 717.649587 375.458674 
L 717.649587 117.157686 
" style="fill:none;stroke:#1f77b4;stroke-width:1.5;"/>
    <path clip-path="url(#pd2451b5c46)" d="M 763.765289 366.744304 
L 763.765289 117.754782 
" style="fill:none;stroke:#1f77b4;stroke-width:1.5;"/>
   </g>
   <g id="line2d_31">
    <g clip-path="url(#pd2451b5c46)">
     <use style="fill:#1f77b4;stroke:#1f77b4;" x="487.071074" xlink:href="#maaf72ddb68" y="369.627766"/>
     <use style="fill:#1f77b4;stroke:#1f77b4;" x="533.186777" xlink:href="#maaf72ddb68" y="386.711405"/>
     <use style="fill:#1f77b4;stroke:#1f77b4;" x="579.302479" xlink:href="#maaf72ddb68" y="369.001053"/>
     <use style="fill:#1f77b4;stroke:#1f77b4;" x="625.418182" xlink:href="#maaf72ddb68" y="375.876751"/>
     <use style="fill:#1f77b4;stroke:#1f77b4;" x="671.533884" xlink:href="#maaf72ddb68" y="366.958095"/>
     <use style="fill:#1f77b4;stroke:#1f77b4;" x="717.649587" xlink:href="#maaf72ddb68" y="375.458674"/>
     <use style="fill:#1f77b4;stroke:#1f77b4;" x="763.765289" xlink:href="#maaf72ddb68" y="366.744304"/>
    </g>
   </g>
   <g id="line2d_32">
    <g clip-path="url(#pd2451b5c46)">
     <use style="fill:#1f77b4;stroke:#1f77b4;" x="487.071074" xlink:href="#maaf72ddb68" y="122.382904"/>
     <use style="fill:#1f77b4;stroke:#1f77b4;" x="533.186777" xlink:href="#maaf72ddb68" y="125.210683"/>
     <use style="fill:#1f77b4;stroke:#1f77b4;" x="579.302479" xlink:href="#maaf72ddb68" y="117.742381"/>
     <use style="fill:#1f77b4;stroke:#1f77b4;" x="625.418182" xlink:href="#maaf72ddb68" y="122.646512"/>
     <use style="fill:#1f77b4;stroke:#1f77b4;" x="671.533884" xlink:href="#maaf72ddb68" y="120.154478"/>
     <use style="fill:#1f77b4;stroke:#1f77b4;" x="717.649587" xlink:href="#maaf72ddb68" y="117.157686"/>
     <use style="fill:#1f77b4;stroke:#1f77b4;" x="763.765289" xlink:href="#maaf72ddb68" y="117.754782"/>
    </g>
   </g>
   <g id="line2d_33">
    <path clip-path="url(#pd2451b5c46)" d="M 487.071074 246.005335 
L 533.186777 255.961044 
L 579.302479 243.371717 
L 625.418182 249.261632 
L 671.533884 243.556287 
L 717.649587 246.30818 
L 763.765289 242.249543 
" style="fill:none;stroke:#1f77b4;stroke-linecap:square;stroke-width:1.5;"/>
    <g clip-path="url(#pd2451b5c46)">
     <use style="fill:#1f77b4;stroke:#1f77b4;" x="487.071074" xlink:href="#m3048d3d0ab" y="246.005335"/>
     <use style="fill:#1f77b4;stroke:#1f77b4;" x="533.186777" xlink:href="#m3048d3d0ab" y="255.961044"/>
     <use style="fill:#1f77b4;stroke:#1f77b4;" x="579.302479" xlink:href="#m3048d3d0ab" y="243.371717"/>
     <use style="fill:#1f77b4;stroke:#1f77b4;" x="625.418182" xlink:href="#m3048d3d0ab" y="249.261632"/>
     <use style="fill:#1f77b4;stroke:#1f77b4;" x="671.533884" xlink:href="#m3048d3d0ab" y="243.556287"/>
     <use style="fill:#1f77b4;stroke:#1f77b4;" x="717.649587" xlink:href="#m3048d3d0ab" y="246.30818"/>
     <use style="fill:#1f77b4;stroke:#1f77b4;" x="763.765289" xlink:href="#m3048d3d0ab" y="242.249543"/>
    </g>
   </g>
   <g id="patch_8">
    <path d="M 473.236364 400.189091 
L 473.236364 103.68 
" style="fill:none;stroke:#000000;stroke-linecap:square;stroke-linejoin:miter;stroke-width:0.8;"/>
   </g>
   <g id="patch_9">
    <path d="M 777.6 400.189091 
L 777.6 103.68 
" style="fill:none;stroke:#000000;stroke-linecap:square;stroke-linejoin:miter;stroke-width:0.8;"/>
   </g>
   <g id="patch_10">
    <path d="M 473.236364 400.189091 
L 777.6 400.189091 
" style="fill:none;stroke:#000000;stroke-linecap:square;stroke-linejoin:miter;stroke-width:0.8;"/>
   </g>
   <g id="patch_11">
    <path d="M 473.236364 103.68 
L 777.6 103.68 
" style="fill:none;stroke:#000000;stroke-linecap:square;stroke-linejoin:miter;stroke-width:0.8;"/>
   </g>
  </g>
  <g id="axes_3">
   <g id="patch_12">
    <path d="M 108 756 
L 412.363636 756 
L 412.363636 459.490909 
L 108 459.490909 
z
" style="fill:#ffffff;"/>
   </g>
   <g id="matplotlib.axis_5">
    <g id="xtick_15">
     <g id="line2d_34">
      <g>
       <use style="stroke:#000000;stroke-width:0.8;" x="121.834711" xlink:href="#m3c354d467d" y="756"/>
      </g>
     </g>
     <g id="text_32">
      <!-- 3 -->
      <g transform="translate(118.653461 770.598437)scale(0.1 -0.1)">
       <use xlink:href="#DejaVuSans-51"/>
      </g>
     </g>
    </g>
    <g id="xtick_16">
     <g id="line2d_35">
      <g>
       <use style="stroke:#000000;stroke-width:0.8;" x="167.950413" xlink:href="#m3c354d467d" y="756"/>
      </g>
     </g>
     <g id="text_33">
      <!-- 4 -->
      <g transform="translate(164.769163 770.598437)scale(0.1 -0.1)">
       <use xlink:href="#DejaVuSans-52"/>
      </g>
     </g>
    </g>
    <g id="xtick_17">
     <g id="line2d_36">
      <g>
       <use style="stroke:#000000;stroke-width:0.8;" x="214.066116" xlink:href="#m3c354d467d" y="756"/>
      </g>
     </g>
     <g id="text_34">
      <!-- 5 -->
      <g transform="translate(210.884866 770.598437)scale(0.1 -0.1)">
       <use xlink:href="#DejaVuSans-53"/>
      </g>
     </g>
    </g>
    <g id="xtick_18">
     <g id="line2d_37">
      <g>
       <use style="stroke:#000000;stroke-width:0.8;" x="260.181818" xlink:href="#m3c354d467d" y="756"/>
      </g>
     </g>
     <g id="text_35">
      <!-- 6 -->
      <g transform="translate(257.000568 770.598437)scale(0.1 -0.1)">
       <use xlink:href="#DejaVuSans-54"/>
      </g>
     </g>
    </g>
    <g id="xtick_19">
     <g id="line2d_38">
      <g>
       <use style="stroke:#000000;stroke-width:0.8;" x="306.297521" xlink:href="#m3c354d467d" y="756"/>
      </g>
     </g>
     <g id="text_36">
      <!-- 7 -->
      <g transform="translate(303.116271 770.598437)scale(0.1 -0.1)">
       <use xlink:href="#DejaVuSans-55"/>
      </g>
     </g>
    </g>
    <g id="xtick_20">
     <g id="line2d_39">
      <g>
       <use style="stroke:#000000;stroke-width:0.8;" x="352.413223" xlink:href="#m3c354d467d" y="756"/>
      </g>
     </g>
     <g id="text_37">
      <!-- 8 -->
      <g transform="translate(349.231973 770.598437)scale(0.1 -0.1)">
       <use xlink:href="#DejaVuSans-56"/>
      </g>
     </g>
    </g>
    <g id="xtick_21">
     <g id="line2d_40">
      <g>
       <use style="stroke:#000000;stroke-width:0.8;" x="398.528926" xlink:href="#m3c354d467d" y="756"/>
      </g>
     </g>
     <g id="text_38">
      <!-- 9 -->
      <g transform="translate(395.347676 770.598437)scale(0.1 -0.1)">
       <use xlink:href="#DejaVuSans-57"/>
      </g>
     </g>
    </g>
    <g id="text_39">
     <!-- Monte Carlo N -->
     <g transform="translate(224.624787 784.276562)scale(0.1 -0.1)">
      <use xlink:href="#DejaVuSans-77"/>
      <use x="86.279297" xlink:href="#DejaVuSans-111"/>
      <use x="147.460938" xlink:href="#DejaVuSans-110"/>
      <use x="210.839844" xlink:href="#DejaVuSans-116"/>
      <use x="250.048828" xlink:href="#DejaVuSans-101"/>
      <use x="311.572266" xlink:href="#DejaVuSans-32"/>
      <use x="343.359375" xlink:href="#DejaVuSans-67"/>
      <use x="413.183594" xlink:href="#DejaVuSans-97"/>
      <use x="474.462891" xlink:href="#DejaVuSans-114"/>
      <use x="515.576172" xlink:href="#DejaVuSans-108"/>
      <use x="543.359375" xlink:href="#DejaVuSans-111"/>
      <use x="604.541016" xlink:href="#DejaVuSans-32"/>
      <use x="636.328125" xlink:href="#DejaVuSans-78"/>
     </g>
    </g>
   </g>
   <g id="matplotlib.axis_6">
    <g id="ytick_14">
     <g id="line2d_41">
      <g>
       <use style="stroke:#000000;stroke-width:0.8;" x="108" xlink:href="#mdc963be8fc" y="731.390998"/>
      </g>
     </g>
     <g id="text_40">
      <!-- 0 -->
      <g transform="translate(94.6375 735.190217)scale(0.1 -0.1)">
       <use xlink:href="#DejaVuSans-48"/>
      </g>
     </g>
    </g>
    <g id="ytick_15">
     <g id="line2d_42">
      <g>
       <use style="stroke:#000000;stroke-width:0.8;" x="108" xlink:href="#mdc963be8fc" y="692.865031"/>
      </g>
     </g>
     <g id="text_41">
      <!-- 10 -->
      <defs>
       <path d="M 12.40625 8.296875 
L 28.515625 8.296875 
L 28.515625 63.921875 
L 10.984375 60.40625 
L 10.984375 69.390625 
L 28.421875 72.90625 
L 38.28125 72.90625 
L 38.28125 8.296875 
L 54.390625 8.296875 
L 54.390625 0 
L 12.40625 0 
z
" id="DejaVuSans-49"/>
      </defs>
      <g transform="translate(88.275 696.66425)scale(0.1 -0.1)">
       <use xlink:href="#DejaVuSans-49"/>
       <use x="63.623047" xlink:href="#DejaVuSans-48"/>
      </g>
     </g>
    </g>
    <g id="ytick_16">
     <g id="line2d_43">
      <g>
       <use style="stroke:#000000;stroke-width:0.8;" x="108" xlink:href="#mdc963be8fc" y="654.339064"/>
      </g>
     </g>
     <g id="text_42">
      <!-- 20 -->
      <defs>
       <path d="M 19.1875 8.296875 
L 53.609375 8.296875 
L 53.609375 0 
L 7.328125 0 
L 7.328125 8.296875 
Q 12.9375 14.109375 22.625 23.890625 
Q 32.328125 33.6875 34.8125 36.53125 
Q 39.546875 41.84375 41.421875 45.53125 
Q 43.3125 49.21875 43.3125 52.78125 
Q 43.3125 58.59375 39.234375 62.25 
Q 35.15625 65.921875 28.609375 65.921875 
Q 23.96875 65.921875 18.8125 64.3125 
Q 13.671875 62.703125 7.8125 59.421875 
L 7.8125 69.390625 
Q 13.765625 71.78125 18.9375 73 
Q 24.125 74.21875 28.421875 74.21875 
Q 39.75 74.21875 46.484375 68.546875 
Q 53.21875 62.890625 53.21875 53.421875 
Q 53.21875 48.921875 51.53125 44.890625 
Q 49.859375 40.875 45.40625 35.40625 
Q 44.1875 33.984375 37.640625 27.21875 
Q 31.109375 20.453125 19.1875 8.296875 
z
" id="DejaVuSans-50"/>
      </defs>
      <g transform="translate(88.275 658.138283)scale(0.1 -0.1)">
       <use xlink:href="#DejaVuSans-50"/>
       <use x="63.623047" xlink:href="#DejaVuSans-48"/>
      </g>
     </g>
    </g>
    <g id="ytick_17">
     <g id="line2d_44">
      <g>
       <use style="stroke:#000000;stroke-width:0.8;" x="108" xlink:href="#mdc963be8fc" y="615.813097"/>
      </g>
     </g>
     <g id="text_43">
      <!-- 30 -->
      <g transform="translate(88.275 619.612316)scale(0.1 -0.1)">
       <use xlink:href="#DejaVuSans-51"/>
       <use x="63.623047" xlink:href="#DejaVuSans-48"/>
      </g>
     </g>
    </g>
    <g id="ytick_18">
     <g id="line2d_45">
      <g>
       <use style="stroke:#000000;stroke-width:0.8;" x="108" xlink:href="#mdc963be8fc" y="577.28713"/>
      </g>
     </g>
     <g id="text_44">
      <!-- 40 -->
      <g transform="translate(88.275 581.086349)scale(0.1 -0.1)">
       <use xlink:href="#DejaVuSans-52"/>
       <use x="63.623047" xlink:href="#DejaVuSans-48"/>
      </g>
     </g>
    </g>
    <g id="ytick_19">
     <g id="line2d_46">
      <g>
       <use style="stroke:#000000;stroke-width:0.8;" x="108" xlink:href="#mdc963be8fc" y="538.761163"/>
      </g>
     </g>
     <g id="text_45">
      <!-- 50 -->
      <g transform="translate(88.275 542.560381)scale(0.1 -0.1)">
       <use xlink:href="#DejaVuSans-53"/>
       <use x="63.623047" xlink:href="#DejaVuSans-48"/>
      </g>
     </g>
    </g>
    <g id="ytick_20">
     <g id="line2d_47">
      <g>
       <use style="stroke:#000000;stroke-width:0.8;" x="108" xlink:href="#mdc963be8fc" y="500.235196"/>
      </g>
     </g>
     <g id="text_46">
      <!-- 60 -->
      <g transform="translate(88.275 504.034414)scale(0.1 -0.1)">
       <use xlink:href="#DejaVuSans-54"/>
       <use x="63.623047" xlink:href="#DejaVuSans-48"/>
      </g>
     </g>
    </g>
    <g id="ytick_21">
     <g id="line2d_48">
      <g>
       <use style="stroke:#000000;stroke-width:0.8;" x="108" xlink:href="#mdc963be8fc" y="461.709229"/>
      </g>
     </g>
     <g id="text_47">
      <!-- 70 -->
      <g transform="translate(88.275 465.508447)scale(0.1 -0.1)">
       <use xlink:href="#DejaVuSans-55"/>
       <use x="63.623047" xlink:href="#DejaVuSans-48"/>
      </g>
     </g>
    </g>
    <g id="text_48">
     <!-- Std of estimated std -->
     <defs>
      <path d="M 45.40625 46.390625 
L 45.40625 75.984375 
L 54.390625 75.984375 
L 54.390625 0 
L 45.40625 0 
L 45.40625 8.203125 
Q 42.578125 3.328125 38.25 0.953125 
Q 33.9375 -1.421875 27.875 -1.421875 
Q 17.96875 -1.421875 11.734375 6.484375 
Q 5.515625 14.40625 5.515625 27.296875 
Q 5.515625 40.1875 11.734375 48.09375 
Q 17.96875 56 27.875 56 
Q 33.9375 56 38.25 53.625 
Q 42.578125 51.265625 45.40625 46.390625 
z
M 14.796875 27.296875 
Q 14.796875 17.390625 18.875 11.75 
Q 22.953125 6.109375 30.078125 6.109375 
Q 37.203125 6.109375 41.296875 11.75 
Q 45.40625 17.390625 45.40625 27.296875 
Q 45.40625 37.203125 41.296875 42.84375 
Q 37.203125 48.484375 30.078125 48.484375 
Q 22.953125 48.484375 18.875 42.84375 
Q 14.796875 37.203125 14.796875 27.296875 
z
" id="DejaVuSans-100"/>
      <path d="M 37.109375 75.984375 
L 37.109375 68.5 
L 28.515625 68.5 
Q 23.6875 68.5 21.796875 66.546875 
Q 19.921875 64.59375 19.921875 59.515625 
L 19.921875 54.6875 
L 34.71875 54.6875 
L 34.71875 47.703125 
L 19.921875 47.703125 
L 19.921875 0 
L 10.890625 0 
L 10.890625 47.703125 
L 2.296875 47.703125 
L 2.296875 54.6875 
L 10.890625 54.6875 
L 10.890625 58.5 
Q 10.890625 67.625 15.140625 71.796875 
Q 19.390625 75.984375 28.609375 75.984375 
z
" id="DejaVuSans-102"/>
      <path d="M 44.28125 53.078125 
L 44.28125 44.578125 
Q 40.484375 46.53125 36.375 47.5 
Q 32.28125 48.484375 27.875 48.484375 
Q 21.1875 48.484375 17.84375 46.4375 
Q 14.5 44.390625 14.5 40.28125 
Q 14.5 37.15625 16.890625 35.375 
Q 19.28125 33.59375 26.515625 31.984375 
L 29.59375 31.296875 
Q 39.15625 29.25 43.1875 25.515625 
Q 47.21875 21.78125 47.21875 15.09375 
Q 47.21875 7.46875 41.1875 3.015625 
Q 35.15625 -1.421875 24.609375 -1.421875 
Q 20.21875 -1.421875 15.453125 -0.5625 
Q 10.6875 0.296875 5.421875 2 
L 5.421875 11.28125 
Q 10.40625 8.6875 15.234375 7.390625 
Q 20.0625 6.109375 24.8125 6.109375 
Q 31.15625 6.109375 34.5625 8.28125 
Q 37.984375 10.453125 37.984375 14.40625 
Q 37.984375 18.0625 35.515625 20.015625 
Q 33.0625 21.96875 24.703125 23.78125 
L 21.578125 24.515625 
Q 13.234375 26.265625 9.515625 29.90625 
Q 5.8125 33.546875 5.8125 39.890625 
Q 5.8125 47.609375 11.28125 51.796875 
Q 16.75 56 26.8125 56 
Q 31.78125 56 36.171875 55.265625 
Q 40.578125 54.546875 44.28125 53.078125 
z
" id="DejaVuSans-115"/>
      <path d="M 9.421875 54.6875 
L 18.40625 54.6875 
L 18.40625 0 
L 9.421875 0 
z
M 9.421875 75.984375 
L 18.40625 75.984375 
L 18.40625 64.59375 
L 9.421875 64.59375 
z
" id="DejaVuSans-105"/>
      <path d="M 52 44.1875 
Q 55.375 50.25 60.0625 53.125 
Q 64.75 56 71.09375 56 
Q 79.640625 56 84.28125 50.015625 
Q 88.921875 44.046875 88.921875 33.015625 
L 88.921875 0 
L 79.890625 0 
L 79.890625 32.71875 
Q 79.890625 40.578125 77.09375 44.375 
Q 74.3125 48.1875 68.609375 48.1875 
Q 61.625 48.1875 57.5625 43.546875 
Q 53.515625 38.921875 53.515625 30.90625 
L 53.515625 0 
L 44.484375 0 
L 44.484375 32.71875 
Q 44.484375 40.625 41.703125 44.40625 
Q 38.921875 48.1875 33.109375 48.1875 
Q 26.21875 48.1875 22.15625 43.53125 
Q 18.109375 38.875 18.109375 30.90625 
L 18.109375 0 
L 9.078125 0 
L 9.078125 54.6875 
L 18.109375 54.6875 
L 18.109375 46.1875 
Q 21.1875 51.21875 25.484375 53.609375 
Q 29.78125 56 35.6875 56 
Q 41.65625 56 45.828125 52.96875 
Q 50 49.953125 52 44.1875 
z
" id="DejaVuSans-109"/>
     </defs>
     <g transform="translate(82.195312 658.555611)rotate(-90)scale(0.1 -0.1)">
      <use xlink:href="#DejaVuSans-83"/>
      <use x="63.476562" xlink:href="#DejaVuSans-116"/>
      <use x="102.685547" xlink:href="#DejaVuSans-100"/>
      <use x="166.162109" xlink:href="#DejaVuSans-32"/>
      <use x="197.949219" xlink:href="#DejaVuSans-111"/>
      <use x="259.130859" xlink:href="#DejaVuSans-102"/>
      <use x="294.335938" xlink:href="#DejaVuSans-32"/>
      <use x="326.123047" xlink:href="#DejaVuSans-101"/>
      <use x="387.646484" xlink:href="#DejaVuSans-115"/>
      <use x="439.746094" xlink:href="#DejaVuSans-116"/>
      <use x="478.955078" xlink:href="#DejaVuSans-105"/>
      <use x="506.738281" xlink:href="#DejaVuSans-109"/>
      <use x="604.150391" xlink:href="#DejaVuSans-97"/>
      <use x="665.429688" xlink:href="#DejaVuSans-116"/>
      <use x="704.638672" xlink:href="#DejaVuSans-101"/>
      <use x="766.162109" xlink:href="#DejaVuSans-100"/>
      <use x="829.638672" xlink:href="#DejaVuSans-32"/>
      <use x="861.425781" xlink:href="#DejaVuSans-115"/>
      <use x="913.525391" xlink:href="#DejaVuSans-116"/>
      <use x="952.734375" xlink:href="#DejaVuSans-100"/>
     </g>
    </g>
   </g>
   <g id="LineCollection_3">
    <path clip-path="url(#p3c0cfefd16)" d="M 121.834711 725.165631 
L 121.834711 571.12729 
" style="fill:none;stroke:#1f77b4;stroke-width:1.5;"/>
    <path clip-path="url(#p3c0cfefd16)" d="M 167.950413 742.522314 
L 167.950413 534.727733 
" style="fill:none;stroke:#1f77b4;stroke-width:1.5;"/>
    <path clip-path="url(#p3c0cfefd16)" d="M 214.066116 700.973051 
L 214.066116 556.414612 
" style="fill:none;stroke:#1f77b4;stroke-width:1.5;"/>
    <path clip-path="url(#p3c0cfefd16)" d="M 260.181818 707.518667 
L 260.181818 542.143469 
" style="fill:none;stroke:#1f77b4;stroke-width:1.5;"/>
    <path clip-path="url(#p3c0cfefd16)" d="M 306.297521 708.273341 
L 306.297521 533.098833 
" style="fill:none;stroke:#1f77b4;stroke-width:1.5;"/>
    <path clip-path="url(#p3c0cfefd16)" d="M 352.413223 701.759879 
L 352.413223 523.029648 
" style="fill:none;stroke:#1f77b4;stroke-width:1.5;"/>
    <path clip-path="url(#p3c0cfefd16)" d="M 398.528926 735.173525 
L 398.528926 472.968595 
" style="fill:none;stroke:#1f77b4;stroke-width:1.5;"/>
   </g>
   <g id="line2d_49">
    <g clip-path="url(#p3c0cfefd16)">
     <use style="fill:#1f77b4;stroke:#1f77b4;" x="121.834711" xlink:href="#maaf72ddb68" y="725.165631"/>
     <use style="fill:#1f77b4;stroke:#1f77b4;" x="167.950413" xlink:href="#maaf72ddb68" y="742.522314"/>
     <use style="fill:#1f77b4;stroke:#1f77b4;" x="214.066116" xlink:href="#maaf72ddb68" y="700.973051"/>
     <use style="fill:#1f77b4;stroke:#1f77b4;" x="260.181818" xlink:href="#maaf72ddb68" y="707.518667"/>
     <use style="fill:#1f77b4;stroke:#1f77b4;" x="306.297521" xlink:href="#maaf72ddb68" y="708.273341"/>
     <use style="fill:#1f77b4;stroke:#1f77b4;" x="352.413223" xlink:href="#maaf72ddb68" y="701.759879"/>
     <use style="fill:#1f77b4;stroke:#1f77b4;" x="398.528926" xlink:href="#maaf72ddb68" y="735.173525"/>
    </g>
   </g>
   <g id="line2d_50">
    <g clip-path="url(#p3c0cfefd16)">
     <use style="fill:#1f77b4;stroke:#1f77b4;" x="121.834711" xlink:href="#maaf72ddb68" y="571.12729"/>
     <use style="fill:#1f77b4;stroke:#1f77b4;" x="167.950413" xlink:href="#maaf72ddb68" y="534.727733"/>
     <use style="fill:#1f77b4;stroke:#1f77b4;" x="214.066116" xlink:href="#maaf72ddb68" y="556.414612"/>
     <use style="fill:#1f77b4;stroke:#1f77b4;" x="260.181818" xlink:href="#maaf72ddb68" y="542.143469"/>
     <use style="fill:#1f77b4;stroke:#1f77b4;" x="306.297521" xlink:href="#maaf72ddb68" y="533.098833"/>
     <use style="fill:#1f77b4;stroke:#1f77b4;" x="352.413223" xlink:href="#maaf72ddb68" y="523.029648"/>
     <use style="fill:#1f77b4;stroke:#1f77b4;" x="398.528926" xlink:href="#maaf72ddb68" y="472.968595"/>
    </g>
   </g>
   <g id="line2d_51">
    <path clip-path="url(#p3c0cfefd16)" d="M 121.834711 648.14646 
L 167.950413 638.625024 
L 214.066116 628.693831 
L 260.181818 624.831068 
L 306.297521 620.686087 
L 352.413223 612.394764 
L 398.528926 604.07106 
" style="fill:none;stroke:#1f77b4;stroke-linecap:square;stroke-width:1.5;"/>
    <g clip-path="url(#p3c0cfefd16)">
     <use style="fill:#1f77b4;stroke:#1f77b4;" x="121.834711" xlink:href="#m3048d3d0ab" y="648.14646"/>
     <use style="fill:#1f77b4;stroke:#1f77b4;" x="167.950413" xlink:href="#m3048d3d0ab" y="638.625024"/>
     <use style="fill:#1f77b4;stroke:#1f77b4;" x="214.066116" xlink:href="#m3048d3d0ab" y="628.693831"/>
     <use style="fill:#1f77b4;stroke:#1f77b4;" x="260.181818" xlink:href="#m3048d3d0ab" y="624.831068"/>
     <use style="fill:#1f77b4;stroke:#1f77b4;" x="306.297521" xlink:href="#m3048d3d0ab" y="620.686087"/>
     <use style="fill:#1f77b4;stroke:#1f77b4;" x="352.413223" xlink:href="#m3048d3d0ab" y="612.394764"/>
     <use style="fill:#1f77b4;stroke:#1f77b4;" x="398.528926" xlink:href="#m3048d3d0ab" y="604.07106"/>
    </g>
   </g>
   <g id="patch_13">
    <path d="M 108 756 
L 108 459.490909 
" style="fill:none;stroke:#000000;stroke-linecap:square;stroke-linejoin:miter;stroke-width:0.8;"/>
   </g>
   <g id="patch_14">
    <path d="M 412.363636 756 
L 412.363636 459.490909 
" style="fill:none;stroke:#000000;stroke-linecap:square;stroke-linejoin:miter;stroke-width:0.8;"/>
   </g>
   <g id="patch_15">
    <path d="M 108 756 
L 412.363636 756 
" style="fill:none;stroke:#000000;stroke-linecap:square;stroke-linejoin:miter;stroke-width:0.8;"/>
   </g>
   <g id="patch_16">
    <path d="M 108 459.490909 
L 412.363636 459.490909 
" style="fill:none;stroke:#000000;stroke-linecap:square;stroke-linejoin:miter;stroke-width:0.8;"/>
   </g>
  </g>
  <g id="axes_4">
   <g id="patch_17">
    <path d="M 473.236364 756 
L 777.6 756 
L 777.6 459.490909 
L 473.236364 459.490909 
z
" style="fill:#ffffff;"/>
   </g>
   <g id="matplotlib.axis_7">
    <g id="xtick_22">
     <g id="line2d_52">
      <g>
       <use style="stroke:#000000;stroke-width:0.8;" x="487.071074" xlink:href="#m3c354d467d" y="756"/>
      </g>
     </g>
     <g id="text_49">
      <!-- 3 -->
      <g transform="translate(483.889824 770.598437)scale(0.1 -0.1)">
       <use xlink:href="#DejaVuSans-51"/>
      </g>
     </g>
    </g>
    <g id="xtick_23">
     <g id="line2d_53">
      <g>
       <use style="stroke:#000000;stroke-width:0.8;" x="533.186777" xlink:href="#m3c354d467d" y="756"/>
      </g>
     </g>
     <g id="text_50">
      <!-- 4 -->
      <g transform="translate(530.005527 770.598437)scale(0.1 -0.1)">
       <use xlink:href="#DejaVuSans-52"/>
      </g>
     </g>
    </g>
    <g id="xtick_24">
     <g id="line2d_54">
      <g>
       <use style="stroke:#000000;stroke-width:0.8;" x="579.302479" xlink:href="#m3c354d467d" y="756"/>
      </g>
     </g>
     <g id="text_51">
      <!-- 5 -->
      <g transform="translate(576.121229 770.598437)scale(0.1 -0.1)">
       <use xlink:href="#DejaVuSans-53"/>
      </g>
     </g>
    </g>
    <g id="xtick_25">
     <g id="line2d_55">
      <g>
       <use style="stroke:#000000;stroke-width:0.8;" x="625.418182" xlink:href="#m3c354d467d" y="756"/>
      </g>
     </g>
     <g id="text_52">
      <!-- 6 -->
      <g transform="translate(622.236932 770.598437)scale(0.1 -0.1)">
       <use xlink:href="#DejaVuSans-54"/>
      </g>
     </g>
    </g>
    <g id="xtick_26">
     <g id="line2d_56">
      <g>
       <use style="stroke:#000000;stroke-width:0.8;" x="671.533884" xlink:href="#m3c354d467d" y="756"/>
      </g>
     </g>
     <g id="text_53">
      <!-- 7 -->
      <g transform="translate(668.352634 770.598437)scale(0.1 -0.1)">
       <use xlink:href="#DejaVuSans-55"/>
      </g>
     </g>
    </g>
    <g id="xtick_27">
     <g id="line2d_57">
      <g>
       <use style="stroke:#000000;stroke-width:0.8;" x="717.649587" xlink:href="#m3c354d467d" y="756"/>
      </g>
     </g>
     <g id="text_54">
      <!-- 8 -->
      <g transform="translate(714.468337 770.598437)scale(0.1 -0.1)">
       <use xlink:href="#DejaVuSans-56"/>
      </g>
     </g>
    </g>
    <g id="xtick_28">
     <g id="line2d_58">
      <g>
       <use style="stroke:#000000;stroke-width:0.8;" x="763.765289" xlink:href="#m3c354d467d" y="756"/>
      </g>
     </g>
     <g id="text_55">
      <!-- 9 -->
      <g transform="translate(760.584039 770.598437)scale(0.1 -0.1)">
       <use xlink:href="#DejaVuSans-57"/>
      </g>
     </g>
    </g>
    <g id="text_56">
     <!-- Monte Carlo N -->
     <g transform="translate(589.861151 784.276562)scale(0.1 -0.1)">
      <use xlink:href="#DejaVuSans-77"/>
      <use x="86.279297" xlink:href="#DejaVuSans-111"/>
      <use x="147.460938" xlink:href="#DejaVuSans-110"/>
      <use x="210.839844" xlink:href="#DejaVuSans-116"/>
      <use x="250.048828" xlink:href="#DejaVuSans-101"/>
      <use x="311.572266" xlink:href="#DejaVuSans-32"/>
      <use x="343.359375" xlink:href="#DejaVuSans-67"/>
      <use x="413.183594" xlink:href="#DejaVuSans-97"/>
      <use x="474.462891" xlink:href="#DejaVuSans-114"/>
      <use x="515.576172" xlink:href="#DejaVuSans-108"/>
      <use x="543.359375" xlink:href="#DejaVuSans-111"/>
      <use x="604.541016" xlink:href="#DejaVuSans-32"/>
      <use x="636.328125" xlink:href="#DejaVuSans-78"/>
     </g>
    </g>
   </g>
   <g id="matplotlib.axis_8">
    <g id="ytick_22">
     <g id="line2d_59">
      <g>
       <use style="stroke:#000000;stroke-width:0.8;" x="473.236364" xlink:href="#mdc963be8fc" y="728.724485"/>
      </g>
     </g>
     <g id="text_57">
      <!-- 0.72 -->
      <g transform="translate(443.970739 732.523703)scale(0.1 -0.1)">
       <use xlink:href="#DejaVuSans-48"/>
       <use x="63.623047" xlink:href="#DejaVuSans-46"/>
       <use x="95.410156" xlink:href="#DejaVuSans-55"/>
       <use x="159.033203" xlink:href="#DejaVuSans-50"/>
      </g>
     </g>
    </g>
    <g id="ytick_23">
     <g id="line2d_60">
      <g>
       <use style="stroke:#000000;stroke-width:0.8;" x="473.236364" xlink:href="#mdc963be8fc" y="684.72572"/>
      </g>
     </g>
     <g id="text_58">
      <!-- 0.74 -->
      <g transform="translate(443.970739 688.524939)scale(0.1 -0.1)">
       <use xlink:href="#DejaVuSans-48"/>
       <use x="63.623047" xlink:href="#DejaVuSans-46"/>
       <use x="95.410156" xlink:href="#DejaVuSans-55"/>
       <use x="159.033203" xlink:href="#DejaVuSans-52"/>
      </g>
     </g>
    </g>
    <g id="ytick_24">
     <g id="line2d_61">
      <g>
       <use style="stroke:#000000;stroke-width:0.8;" x="473.236364" xlink:href="#mdc963be8fc" y="640.726955"/>
      </g>
     </g>
     <g id="text_59">
      <!-- 0.76 -->
      <g transform="translate(443.970739 644.526174)scale(0.1 -0.1)">
       <use xlink:href="#DejaVuSans-48"/>
       <use x="63.623047" xlink:href="#DejaVuSans-46"/>
       <use x="95.410156" xlink:href="#DejaVuSans-55"/>
       <use x="159.033203" xlink:href="#DejaVuSans-54"/>
      </g>
     </g>
    </g>
    <g id="ytick_25">
     <g id="line2d_62">
      <g>
       <use style="stroke:#000000;stroke-width:0.8;" x="473.236364" xlink:href="#mdc963be8fc" y="596.72819"/>
      </g>
     </g>
     <g id="text_60">
      <!-- 0.78 -->
      <g transform="translate(443.970739 600.527409)scale(0.1 -0.1)">
       <use xlink:href="#DejaVuSans-48"/>
       <use x="63.623047" xlink:href="#DejaVuSans-46"/>
       <use x="95.410156" xlink:href="#DejaVuSans-55"/>
       <use x="159.033203" xlink:href="#DejaVuSans-56"/>
      </g>
     </g>
    </g>
    <g id="ytick_26">
     <g id="line2d_63">
      <g>
       <use style="stroke:#000000;stroke-width:0.8;" x="473.236364" xlink:href="#mdc963be8fc" y="552.729426"/>
      </g>
     </g>
     <g id="text_61">
      <!-- 0.80 -->
      <g transform="translate(443.970739 556.528644)scale(0.1 -0.1)">
       <use xlink:href="#DejaVuSans-48"/>
       <use x="63.623047" xlink:href="#DejaVuSans-46"/>
       <use x="95.410156" xlink:href="#DejaVuSans-56"/>
       <use x="159.033203" xlink:href="#DejaVuSans-48"/>
      </g>
     </g>
    </g>
    <g id="ytick_27">
     <g id="line2d_64">
      <g>
       <use style="stroke:#000000;stroke-width:0.8;" x="473.236364" xlink:href="#mdc963be8fc" y="508.730661"/>
      </g>
     </g>
     <g id="text_62">
      <!-- 0.82 -->
      <g transform="translate(443.970739 512.529879)scale(0.1 -0.1)">
       <use xlink:href="#DejaVuSans-48"/>
       <use x="63.623047" xlink:href="#DejaVuSans-46"/>
       <use x="95.410156" xlink:href="#DejaVuSans-56"/>
       <use x="159.033203" xlink:href="#DejaVuSans-50"/>
      </g>
     </g>
    </g>
    <g id="ytick_28">
     <g id="line2d_65">
      <g>
       <use style="stroke:#000000;stroke-width:0.8;" x="473.236364" xlink:href="#mdc963be8fc" y="464.731896"/>
      </g>
     </g>
     <g id="text_63">
      <!-- 0.84 -->
      <g transform="translate(443.970739 468.531115)scale(0.1 -0.1)">
       <use xlink:href="#DejaVuSans-48"/>
       <use x="63.623047" xlink:href="#DejaVuSans-46"/>
       <use x="95.410156" xlink:href="#DejaVuSans-56"/>
       <use x="159.033203" xlink:href="#DejaVuSans-52"/>
      </g>
     </g>
    </g>
    <g id="text_64">
     <!-- pearson r -->
     <defs>
      <path d="M 18.109375 8.203125 
L 18.109375 -20.796875 
L 9.078125 -20.796875 
L 9.078125 54.6875 
L 18.109375 54.6875 
L 18.109375 46.390625 
Q 20.953125 51.265625 25.265625 53.625 
Q 29.59375 56 35.59375 56 
Q 45.5625 56 51.78125 48.09375 
Q 58.015625 40.1875 58.015625 27.296875 
Q 58.015625 14.40625 51.78125 6.484375 
Q 45.5625 -1.421875 35.59375 -1.421875 
Q 29.59375 -1.421875 25.265625 0.953125 
Q 20.953125 3.328125 18.109375 8.203125 
z
M 48.6875 27.296875 
Q 48.6875 37.203125 44.609375 42.84375 
Q 40.53125 48.484375 33.40625 48.484375 
Q 26.265625 48.484375 22.1875 42.84375 
Q 18.109375 37.203125 18.109375 27.296875 
Q 18.109375 17.390625 22.1875 11.75 
Q 26.265625 6.109375 33.40625 6.109375 
Q 40.53125 6.109375 44.609375 11.75 
Q 48.6875 17.390625 48.6875 27.296875 
z
" id="DejaVuSans-112"/>
     </defs>
     <g transform="translate(437.891051 631.593111)rotate(-90)scale(0.1 -0.1)">
      <use xlink:href="#DejaVuSans-112"/>
      <use x="63.476562" xlink:href="#DejaVuSans-101"/>
      <use x="125" xlink:href="#DejaVuSans-97"/>
      <use x="186.279297" xlink:href="#DejaVuSans-114"/>
      <use x="227.392578" xlink:href="#DejaVuSans-115"/>
      <use x="279.492188" xlink:href="#DejaVuSans-111"/>
      <use x="340.673828" xlink:href="#DejaVuSans-110"/>
      <use x="404.052734" xlink:href="#DejaVuSans-32"/>
      <use x="435.839844" xlink:href="#DejaVuSans-114"/>
     </g>
    </g>
   </g>
   <g id="line2d_66">
    <path clip-path="url(#pe801e26eb0)" d="M 487.071074 690.07013 
L 533.186777 687.310025 
L 579.302479 579.171032 
L 625.418182 530.191315 
L 671.533884 620.119936 
L 717.649587 688.507088 
L 763.765289 512.295615 
" style="fill:none;stroke:#1f77b4;stroke-linecap:square;stroke-width:1.5;"/>
   </g>
   <g id="line2d_67">
    <path clip-path="url(#pe801e26eb0)" d="M 487.071074 711.259841 
L 533.186777 706.303383 
L 579.302479 614.913226 
L 625.418182 586.712648 
L 671.533884 683.864887 
L 717.649587 715.842936 
L 763.765289 540.793619 
" style="fill:none;stroke:#ff7f0e;stroke-linecap:square;stroke-width:1.5;"/>
   </g>
   <g id="line2d_68">
    <path clip-path="url(#pe801e26eb0)" d="M 487.071074 698.608184 
L 533.186777 537.589609 
L 579.302479 589.614378 
L 625.418182 539.598424 
L 671.533884 632.764139 
L 717.649587 620.428543 
L 763.765289 518.766084 
" style="fill:none;stroke:#2ca02c;stroke-linecap:square;stroke-width:1.5;"/>
   </g>
   <g id="line2d_69">
    <path clip-path="url(#pe801e26eb0)" d="M 487.071074 706.761401 
L 533.186777 550.397561 
L 579.302479 600.684134 
L 625.418182 570.984368 
L 671.533884 656.576377 
L 717.649587 642.242735 
L 763.765289 531.325662 
" style="fill:none;stroke:#d62728;stroke-linecap:square;stroke-width:1.5;"/>
   </g>
   <g id="line2d_70">
    <path clip-path="url(#pe801e26eb0)" d="M 487.071074 715.270128 
L 533.186777 621.170594 
L 579.302479 573.290397 
L 625.418182 513.325458 
L 671.533884 617.377624 
L 717.649587 656.675548 
L 763.765289 472.968595 
" style="fill:none;stroke:#9467bd;stroke-linecap:square;stroke-width:1.5;"/>
   </g>
   <g id="line2d_71">
    <path clip-path="url(#pe801e26eb0)" d="M 487.071074 741.307597 
L 533.186777 653.015837 
L 579.302479 626.671125 
L 625.418182 586.40247 
L 671.533884 705.104064 
L 717.649587 698.86141 
L 763.765289 517.124035 
" style="fill:none;stroke:#8c564b;stroke-linecap:square;stroke-width:1.5;"/>
   </g>
   <g id="line2d_72">
    <path clip-path="url(#pe801e26eb0)" d="M 487.071074 730.689751 
L 533.186777 501.840365 
L 579.302479 593.543641 
L 625.418182 534.654423 
L 671.533884 641.679814 
L 717.649587 607.667498 
L 763.765289 498.286844 
" style="fill:none;stroke:#e377c2;stroke-linecap:square;stroke-width:1.5;"/>
   </g>
   <g id="line2d_73">
    <path clip-path="url(#pe801e26eb0)" d="M 487.071074 742.522314 
L 533.186777 523.520089 
L 579.302479 619.183923 
L 625.418182 582.200554 
L 671.533884 679.333693 
L 717.649587 642.884797 
L 763.765289 531.064226 
" style="fill:none;stroke:#7f7f7f;stroke-linecap:square;stroke-width:1.5;"/>
   </g>
   <g id="patch_18">
    <path d="M 473.236364 756 
L 473.236364 459.490909 
" style="fill:none;stroke:#000000;stroke-linecap:square;stroke-linejoin:miter;stroke-width:0.8;"/>
   </g>
   <g id="patch_19">
    <path d="M 777.6 756 
L 777.6 459.490909 
" style="fill:none;stroke:#000000;stroke-linecap:square;stroke-linejoin:miter;stroke-width:0.8;"/>
   </g>
   <g id="patch_20">
    <path d="M 473.236364 756 
L 777.6 756 
" style="fill:none;stroke:#000000;stroke-linecap:square;stroke-linejoin:miter;stroke-width:0.8;"/>
   </g>
   <g id="patch_21">
    <path d="M 473.236364 459.490909 
L 777.6 459.490909 
" style="fill:none;stroke:#000000;stroke-linecap:square;stroke-linejoin:miter;stroke-width:0.8;"/>
   </g>
   <g id="legend_1">
    <g id="patch_22">
     <path d="M 480.236364 584.915909 
L 714.320739 584.915909 
Q 716.320739 584.915909 716.320739 582.915909 
L 716.320739 466.490909 
Q 716.320739 464.490909 714.320739 464.490909 
L 480.236364 464.490909 
Q 478.236364 464.490909 478.236364 466.490909 
L 478.236364 582.915909 
Q 478.236364 584.915909 480.236364 584.915909 
z
" style="fill:#ffffff;opacity:0.8;stroke:#cccccc;stroke-linejoin:miter;"/>
    </g>
    <g id="line2d_74">
     <path d="M 482.236364 472.589347 
L 502.236364 472.589347 
" style="fill:none;stroke:#1f77b4;stroke-linecap:square;stroke-width:1.5;"/>
    </g>
    <g id="line2d_75"/>
    <g id="text_65">
     <!-- mean pairwise Dice coefficient/true IOU -->
     <defs>
      <path d="M 4.203125 54.6875 
L 13.1875 54.6875 
L 24.421875 12.015625 
L 35.59375 54.6875 
L 46.1875 54.6875 
L 57.421875 12.015625 
L 68.609375 54.6875 
L 77.59375 54.6875 
L 63.28125 0 
L 52.6875 0 
L 40.921875 44.828125 
L 29.109375 0 
L 18.5 0 
z
" id="DejaVuSans-119"/>
      <path d="M 48.78125 52.59375 
L 48.78125 44.1875 
Q 44.96875 46.296875 41.140625 47.34375 
Q 37.3125 48.390625 33.40625 48.390625 
Q 24.65625 48.390625 19.8125 42.84375 
Q 14.984375 37.3125 14.984375 27.296875 
Q 14.984375 17.28125 19.8125 11.734375 
Q 24.65625 6.203125 33.40625 6.203125 
Q 37.3125 6.203125 41.140625 7.25 
Q 44.96875 8.296875 48.78125 10.40625 
L 48.78125 2.09375 
Q 45.015625 0.34375 40.984375 -0.53125 
Q 36.96875 -1.421875 32.421875 -1.421875 
Q 20.0625 -1.421875 12.78125 6.34375 
Q 5.515625 14.109375 5.515625 27.296875 
Q 5.515625 40.671875 12.859375 48.328125 
Q 20.21875 56 33.015625 56 
Q 37.15625 56 41.109375 55.140625 
Q 45.0625 54.296875 48.78125 52.59375 
z
" id="DejaVuSans-99"/>
      <path d="M 25.390625 72.90625 
L 33.6875 72.90625 
L 8.296875 -9.28125 
L 0 -9.28125 
z
" id="DejaVuSans-47"/>
      <path d="M 8.5 21.578125 
L 8.5 54.6875 
L 17.484375 54.6875 
L 17.484375 21.921875 
Q 17.484375 14.15625 20.5 10.265625 
Q 23.53125 6.390625 29.59375 6.390625 
Q 36.859375 6.390625 41.078125 11.03125 
Q 45.3125 15.671875 45.3125 23.6875 
L 45.3125 54.6875 
L 54.296875 54.6875 
L 54.296875 0 
L 45.3125 0 
L 45.3125 8.40625 
Q 42.046875 3.421875 37.71875 1 
Q 33.40625 -1.421875 27.6875 -1.421875 
Q 18.265625 -1.421875 13.375 4.4375 
Q 8.5 10.296875 8.5 21.578125 
z
M 31.109375 56 
z
" id="DejaVuSans-117"/>
     </defs>
     <g transform="translate(510.236364 476.089347)scale(0.1 -0.1)">
      <use xlink:href="#DejaVuSans-109"/>
      <use x="97.412109" xlink:href="#DejaVuSans-101"/>
      <use x="158.935547" xlink:href="#DejaVuSans-97"/>
      <use x="220.214844" xlink:href="#DejaVuSans-110"/>
      <use x="283.59375" xlink:href="#DejaVuSans-32"/>
      <use x="315.380859" xlink:href="#DejaVuSans-112"/>
      <use x="378.857422" xlink:href="#DejaVuSans-97"/>
      <use x="440.136719" xlink:href="#DejaVuSans-105"/>
      <use x="467.919922" xlink:href="#DejaVuSans-114"/>
      <use x="509.033203" xlink:href="#DejaVuSans-119"/>
      <use x="590.820312" xlink:href="#DejaVuSans-105"/>
      <use x="618.603516" xlink:href="#DejaVuSans-115"/>
      <use x="670.703125" xlink:href="#DejaVuSans-101"/>
      <use x="732.226562" xlink:href="#DejaVuSans-32"/>
      <use x="764.013672" xlink:href="#DejaVuSans-68"/>
      <use x="841.015625" xlink:href="#DejaVuSans-105"/>
      <use x="868.798828" xlink:href="#DejaVuSans-99"/>
      <use x="923.779297" xlink:href="#DejaVuSans-101"/>
      <use x="985.302734" xlink:href="#DejaVuSans-32"/>
      <use x="1017.089844" xlink:href="#DejaVuSans-99"/>
      <use x="1072.070312" xlink:href="#DejaVuSans-111"/>
      <use x="1133.251953" xlink:href="#DejaVuSans-101"/>
      <use x="1194.775391" xlink:href="#DejaVuSans-102"/>
      <use x="1229.980469" xlink:href="#DejaVuSans-102"/>
      <use x="1265.185547" xlink:href="#DejaVuSans-105"/>
      <use x="1292.96875" xlink:href="#DejaVuSans-99"/>
      <use x="1347.949219" xlink:href="#DejaVuSans-105"/>
      <use x="1375.732422" xlink:href="#DejaVuSans-101"/>
      <use x="1437.255859" xlink:href="#DejaVuSans-110"/>
      <use x="1500.634766" xlink:href="#DejaVuSans-116"/>
      <use x="1539.84375" xlink:href="#DejaVuSans-47"/>
      <use x="1573.535156" xlink:href="#DejaVuSans-116"/>
      <use x="1612.744141" xlink:href="#DejaVuSans-114"/>
      <use x="1653.857422" xlink:href="#DejaVuSans-117"/>
      <use x="1717.236328" xlink:href="#DejaVuSans-101"/>
      <use x="1778.759766" xlink:href="#DejaVuSans-32"/>
      <use x="1810.546875" xlink:href="#DejaVuSans-73"/>
      <use x="1840.039062" xlink:href="#DejaVuSans-79"/>
      <use x="1918.75" xlink:href="#DejaVuSans-85"/>
     </g>
    </g>
    <g id="line2d_76">
     <path d="M 482.236364 487.267472 
L 502.236364 487.267472 
" style="fill:none;stroke:#ff7f0e;stroke-linecap:square;stroke-width:1.5;"/>
    </g>
    <g id="line2d_77"/>
    <g id="text_66">
     <!-- global Dice coefficient/true IOU -->
     <defs>
      <path d="M 45.40625 27.984375 
Q 45.40625 37.75 41.375 43.109375 
Q 37.359375 48.484375 30.078125 48.484375 
Q 22.859375 48.484375 18.828125 43.109375 
Q 14.796875 37.75 14.796875 27.984375 
Q 14.796875 18.265625 18.828125 12.890625 
Q 22.859375 7.515625 30.078125 7.515625 
Q 37.359375 7.515625 41.375 12.890625 
Q 45.40625 18.265625 45.40625 27.984375 
z
M 54.390625 6.78125 
Q 54.390625 -7.171875 48.1875 -13.984375 
Q 42 -20.796875 29.203125 -20.796875 
Q 24.46875 -20.796875 20.265625 -20.09375 
Q 16.0625 -19.390625 12.109375 -17.921875 
L 12.109375 -9.1875 
Q 16.0625 -11.328125 19.921875 -12.34375 
Q 23.78125 -13.375 27.78125 -13.375 
Q 36.625 -13.375 41.015625 -8.765625 
Q 45.40625 -4.15625 45.40625 5.171875 
L 45.40625 9.625 
Q 42.625 4.78125 38.28125 2.390625 
Q 33.9375 0 27.875 0 
Q 17.828125 0 11.671875 7.65625 
Q 5.515625 15.328125 5.515625 27.984375 
Q 5.515625 40.671875 11.671875 48.328125 
Q 17.828125 56 27.875 56 
Q 33.9375 56 38.28125 53.609375 
Q 42.625 51.21875 45.40625 46.390625 
L 45.40625 54.6875 
L 54.390625 54.6875 
z
" id="DejaVuSans-103"/>
      <path d="M 48.6875 27.296875 
Q 48.6875 37.203125 44.609375 42.84375 
Q 40.53125 48.484375 33.40625 48.484375 
Q 26.265625 48.484375 22.1875 42.84375 
Q 18.109375 37.203125 18.109375 27.296875 
Q 18.109375 17.390625 22.1875 11.75 
Q 26.265625 6.109375 33.40625 6.109375 
Q 40.53125 6.109375 44.609375 11.75 
Q 48.6875 17.390625 48.6875 27.296875 
z
M 18.109375 46.390625 
Q 20.953125 51.265625 25.265625 53.625 
Q 29.59375 56 35.59375 56 
Q 45.5625 56 51.78125 48.09375 
Q 58.015625 40.1875 58.015625 27.296875 
Q 58.015625 14.40625 51.78125 6.484375 
Q 45.5625 -1.421875 35.59375 -1.421875 
Q 29.59375 -1.421875 25.265625 0.953125 
Q 20.953125 3.328125 18.109375 8.203125 
L 18.109375 0 
L 9.078125 0 
L 9.078125 75.984375 
L 18.109375 75.984375 
z
" id="DejaVuSans-98"/>
     </defs>
     <g transform="translate(510.236364 490.767472)scale(0.1 -0.1)">
      <use xlink:href="#DejaVuSans-103"/>
      <use x="63.476562" xlink:href="#DejaVuSans-108"/>
      <use x="91.259766" xlink:href="#DejaVuSans-111"/>
      <use x="152.441406" xlink:href="#DejaVuSans-98"/>
      <use x="215.917969" xlink:href="#DejaVuSans-97"/>
      <use x="277.197266" xlink:href="#DejaVuSans-108"/>
      <use x="304.980469" xlink:href="#DejaVuSans-32"/>
      <use x="336.767578" xlink:href="#DejaVuSans-68"/>
      <use x="413.769531" xlink:href="#DejaVuSans-105"/>
      <use x="441.552734" xlink:href="#DejaVuSans-99"/>
      <use x="496.533203" xlink:href="#DejaVuSans-101"/>
      <use x="558.056641" xlink:href="#DejaVuSans-32"/>
      <use x="589.84375" xlink:href="#DejaVuSans-99"/>
      <use x="644.824219" xlink:href="#DejaVuSans-111"/>
      <use x="706.005859" xlink:href="#DejaVuSans-101"/>
      <use x="767.529297" xlink:href="#DejaVuSans-102"/>
      <use x="802.734375" xlink:href="#DejaVuSans-102"/>
      <use x="837.939453" xlink:href="#DejaVuSans-105"/>
      <use x="865.722656" xlink:href="#DejaVuSans-99"/>
      <use x="920.703125" xlink:href="#DejaVuSans-105"/>
      <use x="948.486328" xlink:href="#DejaVuSans-101"/>
      <use x="1010.009766" xlink:href="#DejaVuSans-110"/>
      <use x="1073.388672" xlink:href="#DejaVuSans-116"/>
      <use x="1112.597656" xlink:href="#DejaVuSans-47"/>
      <use x="1146.289062" xlink:href="#DejaVuSans-116"/>
      <use x="1185.498047" xlink:href="#DejaVuSans-114"/>
      <use x="1226.611328" xlink:href="#DejaVuSans-117"/>
      <use x="1289.990234" xlink:href="#DejaVuSans-101"/>
      <use x="1351.513672" xlink:href="#DejaVuSans-32"/>
      <use x="1383.300781" xlink:href="#DejaVuSans-73"/>
      <use x="1412.792969" xlink:href="#DejaVuSans-79"/>
      <use x="1491.503906" xlink:href="#DejaVuSans-85"/>
     </g>
    </g>
    <g id="line2d_78">
     <path d="M 482.236364 501.945597 
L 502.236364 501.945597 
" style="fill:none;stroke:#2ca02c;stroke-linecap:square;stroke-width:1.5;"/>
    </g>
    <g id="line2d_79"/>
    <g id="text_67">
     <!-- mean pairwise IOU/true IOU -->
     <g transform="translate(510.236364 505.445597)scale(0.1 -0.1)">
      <use xlink:href="#DejaVuSans-109"/>
      <use x="97.412109" xlink:href="#DejaVuSans-101"/>
      <use x="158.935547" xlink:href="#DejaVuSans-97"/>
      <use x="220.214844" xlink:href="#DejaVuSans-110"/>
      <use x="283.59375" xlink:href="#DejaVuSans-32"/>
      <use x="315.380859" xlink:href="#DejaVuSans-112"/>
      <use x="378.857422" xlink:href="#DejaVuSans-97"/>
      <use x="440.136719" xlink:href="#DejaVuSans-105"/>
      <use x="467.919922" xlink:href="#DejaVuSans-114"/>
      <use x="509.033203" xlink:href="#DejaVuSans-119"/>
      <use x="590.820312" xlink:href="#DejaVuSans-105"/>
      <use x="618.603516" xlink:href="#DejaVuSans-115"/>
      <use x="670.703125" xlink:href="#DejaVuSans-101"/>
      <use x="732.226562" xlink:href="#DejaVuSans-32"/>
      <use x="764.013672" xlink:href="#DejaVuSans-73"/>
      <use x="793.505859" xlink:href="#DejaVuSans-79"/>
      <use x="872.216797" xlink:href="#DejaVuSans-85"/>
      <use x="945.410156" xlink:href="#DejaVuSans-47"/>
      <use x="979.101562" xlink:href="#DejaVuSans-116"/>
      <use x="1018.310547" xlink:href="#DejaVuSans-114"/>
      <use x="1059.423828" xlink:href="#DejaVuSans-117"/>
      <use x="1122.802734" xlink:href="#DejaVuSans-101"/>
      <use x="1184.326172" xlink:href="#DejaVuSans-32"/>
      <use x="1216.113281" xlink:href="#DejaVuSans-73"/>
      <use x="1245.605469" xlink:href="#DejaVuSans-79"/>
      <use x="1324.316406" xlink:href="#DejaVuSans-85"/>
     </g>
    </g>
    <g id="line2d_80">
     <path d="M 482.236364 516.623722 
L 502.236364 516.623722 
" style="fill:none;stroke:#d62728;stroke-linecap:square;stroke-width:1.5;"/>
    </g>
    <g id="line2d_81"/>
    <g id="text_68">
     <!-- global IOU/true IOU -->
     <g transform="translate(510.236364 520.123722)scale(0.1 -0.1)">
      <use xlink:href="#DejaVuSans-103"/>
      <use x="63.476562" xlink:href="#DejaVuSans-108"/>
      <use x="91.259766" xlink:href="#DejaVuSans-111"/>
      <use x="152.441406" xlink:href="#DejaVuSans-98"/>
      <use x="215.917969" xlink:href="#DejaVuSans-97"/>
      <use x="277.197266" xlink:href="#DejaVuSans-108"/>
      <use x="304.980469" xlink:href="#DejaVuSans-32"/>
      <use x="336.767578" xlink:href="#DejaVuSans-73"/>
      <use x="366.259766" xlink:href="#DejaVuSans-79"/>
      <use x="444.970703" xlink:href="#DejaVuSans-85"/>
      <use x="518.164062" xlink:href="#DejaVuSans-47"/>
      <use x="551.855469" xlink:href="#DejaVuSans-116"/>
      <use x="591.064453" xlink:href="#DejaVuSans-114"/>
      <use x="632.177734" xlink:href="#DejaVuSans-117"/>
      <use x="695.556641" xlink:href="#DejaVuSans-101"/>
      <use x="757.080078" xlink:href="#DejaVuSans-32"/>
      <use x="788.867188" xlink:href="#DejaVuSans-73"/>
      <use x="818.359375" xlink:href="#DejaVuSans-79"/>
      <use x="897.070312" xlink:href="#DejaVuSans-85"/>
     </g>
    </g>
    <g id="line2d_82">
     <path d="M 482.236364 531.301847 
L 502.236364 531.301847 
" style="fill:none;stroke:#9467bd;stroke-linecap:square;stroke-width:1.5;"/>
    </g>
    <g id="line2d_83"/>
    <g id="text_69">
     <!-- mean pairwise Dice coefficient/true DSC -->
     <g transform="translate(510.236364 534.801847)scale(0.1 -0.1)">
      <use xlink:href="#DejaVuSans-109"/>
      <use x="97.412109" xlink:href="#DejaVuSans-101"/>
      <use x="158.935547" xlink:href="#DejaVuSans-97"/>
      <use x="220.214844" xlink:href="#DejaVuSans-110"/>
      <use x="283.59375" xlink:href="#DejaVuSans-32"/>
      <use x="315.380859" xlink:href="#DejaVuSans-112"/>
      <use x="378.857422" xlink:href="#DejaVuSans-97"/>
      <use x="440.136719" xlink:href="#DejaVuSans-105"/>
      <use x="467.919922" xlink:href="#DejaVuSans-114"/>
      <use x="509.033203" xlink:href="#DejaVuSans-119"/>
      <use x="590.820312" xlink:href="#DejaVuSans-105"/>
      <use x="618.603516" xlink:href="#DejaVuSans-115"/>
      <use x="670.703125" xlink:href="#DejaVuSans-101"/>
      <use x="732.226562" xlink:href="#DejaVuSans-32"/>
      <use x="764.013672" xlink:href="#DejaVuSans-68"/>
      <use x="841.015625" xlink:href="#DejaVuSans-105"/>
      <use x="868.798828" xlink:href="#DejaVuSans-99"/>
      <use x="923.779297" xlink:href="#DejaVuSans-101"/>
      <use x="985.302734" xlink:href="#DejaVuSans-32"/>
      <use x="1017.089844" xlink:href="#DejaVuSans-99"/>
      <use x="1072.070312" xlink:href="#DejaVuSans-111"/>
      <use x="1133.251953" xlink:href="#DejaVuSans-101"/>
      <use x="1194.775391" xlink:href="#DejaVuSans-102"/>
      <use x="1229.980469" xlink:href="#DejaVuSans-102"/>
      <use x="1265.185547" xlink:href="#DejaVuSans-105"/>
      <use x="1292.96875" xlink:href="#DejaVuSans-99"/>
      <use x="1347.949219" xlink:href="#DejaVuSans-105"/>
      <use x="1375.732422" xlink:href="#DejaVuSans-101"/>
      <use x="1437.255859" xlink:href="#DejaVuSans-110"/>
      <use x="1500.634766" xlink:href="#DejaVuSans-116"/>
      <use x="1539.84375" xlink:href="#DejaVuSans-47"/>
      <use x="1573.535156" xlink:href="#DejaVuSans-116"/>
      <use x="1612.744141" xlink:href="#DejaVuSans-114"/>
      <use x="1653.857422" xlink:href="#DejaVuSans-117"/>
      <use x="1717.236328" xlink:href="#DejaVuSans-101"/>
      <use x="1778.759766" xlink:href="#DejaVuSans-32"/>
      <use x="1810.546875" xlink:href="#DejaVuSans-68"/>
      <use x="1887.548828" xlink:href="#DejaVuSans-83"/>
      <use x="1951.025391" xlink:href="#DejaVuSans-67"/>
     </g>
    </g>
    <g id="line2d_84">
     <path d="M 482.236364 545.979972 
L 502.236364 545.979972 
" style="fill:none;stroke:#8c564b;stroke-linecap:square;stroke-width:1.5;"/>
    </g>
    <g id="line2d_85"/>
    <g id="text_70">
     <!-- global Dice coefficient/true DSC -->
     <g transform="translate(510.236364 549.479972)scale(0.1 -0.1)">
      <use xlink:href="#DejaVuSans-103"/>
      <use x="63.476562" xlink:href="#DejaVuSans-108"/>
      <use x="91.259766" xlink:href="#DejaVuSans-111"/>
      <use x="152.441406" xlink:href="#DejaVuSans-98"/>
      <use x="215.917969" xlink:href="#DejaVuSans-97"/>
      <use x="277.197266" xlink:href="#DejaVuSans-108"/>
      <use x="304.980469" xlink:href="#DejaVuSans-32"/>
      <use x="336.767578" xlink:href="#DejaVuSans-68"/>
      <use x="413.769531" xlink:href="#DejaVuSans-105"/>
      <use x="441.552734" xlink:href="#DejaVuSans-99"/>
      <use x="496.533203" xlink:href="#DejaVuSans-101"/>
      <use x="558.056641" xlink:href="#DejaVuSans-32"/>
      <use x="589.84375" xlink:href="#DejaVuSans-99"/>
      <use x="644.824219" xlink:href="#DejaVuSans-111"/>
      <use x="706.005859" xlink:href="#DejaVuSans-101"/>
      <use x="767.529297" xlink:href="#DejaVuSans-102"/>
      <use x="802.734375" xlink:href="#DejaVuSans-102"/>
      <use x="837.939453" xlink:href="#DejaVuSans-105"/>
      <use x="865.722656" xlink:href="#DejaVuSans-99"/>
      <use x="920.703125" xlink:href="#DejaVuSans-105"/>
      <use x="948.486328" xlink:href="#DejaVuSans-101"/>
      <use x="1010.009766" xlink:href="#DejaVuSans-110"/>
      <use x="1073.388672" xlink:href="#DejaVuSans-116"/>
      <use x="1112.597656" xlink:href="#DejaVuSans-47"/>
      <use x="1146.289062" xlink:href="#DejaVuSans-116"/>
      <use x="1185.498047" xlink:href="#DejaVuSans-114"/>
      <use x="1226.611328" xlink:href="#DejaVuSans-117"/>
      <use x="1289.990234" xlink:href="#DejaVuSans-101"/>
      <use x="1351.513672" xlink:href="#DejaVuSans-32"/>
      <use x="1383.300781" xlink:href="#DejaVuSans-68"/>
      <use x="1460.302734" xlink:href="#DejaVuSans-83"/>
      <use x="1523.779297" xlink:href="#DejaVuSans-67"/>
     </g>
    </g>
    <g id="line2d_86">
     <path d="M 482.236364 560.658097 
L 502.236364 560.658097 
" style="fill:none;stroke:#e377c2;stroke-linecap:square;stroke-width:1.5;"/>
    </g>
    <g id="line2d_87"/>
    <g id="text_71">
     <!-- mean pairwise IOU/true DSC -->
     <g transform="translate(510.236364 564.158097)scale(0.1 -0.1)">
      <use xlink:href="#DejaVuSans-109"/>
      <use x="97.412109" xlink:href="#DejaVuSans-101"/>
      <use x="158.935547" xlink:href="#DejaVuSans-97"/>
      <use x="220.214844" xlink:href="#DejaVuSans-110"/>
      <use x="283.59375" xlink:href="#DejaVuSans-32"/>
      <use x="315.380859" xlink:href="#DejaVuSans-112"/>
      <use x="378.857422" xlink:href="#DejaVuSans-97"/>
      <use x="440.136719" xlink:href="#DejaVuSans-105"/>
      <use x="467.919922" xlink:href="#DejaVuSans-114"/>
      <use x="509.033203" xlink:href="#DejaVuSans-119"/>
      <use x="590.820312" xlink:href="#DejaVuSans-105"/>
      <use x="618.603516" xlink:href="#DejaVuSans-115"/>
      <use x="670.703125" xlink:href="#DejaVuSans-101"/>
      <use x="732.226562" xlink:href="#DejaVuSans-32"/>
      <use x="764.013672" xlink:href="#DejaVuSans-73"/>
      <use x="793.505859" xlink:href="#DejaVuSans-79"/>
      <use x="872.216797" xlink:href="#DejaVuSans-85"/>
      <use x="945.410156" xlink:href="#DejaVuSans-47"/>
      <use x="979.101562" xlink:href="#DejaVuSans-116"/>
      <use x="1018.310547" xlink:href="#DejaVuSans-114"/>
      <use x="1059.423828" xlink:href="#DejaVuSans-117"/>
      <use x="1122.802734" xlink:href="#DejaVuSans-101"/>
      <use x="1184.326172" xlink:href="#DejaVuSans-32"/>
      <use x="1216.113281" xlink:href="#DejaVuSans-68"/>
      <use x="1293.115234" xlink:href="#DejaVuSans-83"/>
      <use x="1356.591797" xlink:href="#DejaVuSans-67"/>
     </g>
    </g>
    <g id="line2d_88">
     <path d="M 482.236364 575.336222 
L 502.236364 575.336222 
" style="fill:none;stroke:#7f7f7f;stroke-linecap:square;stroke-width:1.5;"/>
    </g>
    <g id="line2d_89"/>
    <g id="text_72">
     <!-- global IOU/true DSC -->
     <g transform="translate(510.236364 578.836222)scale(0.1 -0.1)">
      <use xlink:href="#DejaVuSans-103"/>
      <use x="63.476562" xlink:href="#DejaVuSans-108"/>
      <use x="91.259766" xlink:href="#DejaVuSans-111"/>
      <use x="152.441406" xlink:href="#DejaVuSans-98"/>
      <use x="215.917969" xlink:href="#DejaVuSans-97"/>
      <use x="277.197266" xlink:href="#DejaVuSans-108"/>
      <use x="304.980469" xlink:href="#DejaVuSans-32"/>
      <use x="336.767578" xlink:href="#DejaVuSans-73"/>
      <use x="366.259766" xlink:href="#DejaVuSans-79"/>
      <use x="444.970703" xlink:href="#DejaVuSans-85"/>
      <use x="518.164062" xlink:href="#DejaVuSans-47"/>
      <use x="551.855469" xlink:href="#DejaVuSans-116"/>
      <use x="591.064453" xlink:href="#DejaVuSans-114"/>
      <use x="632.177734" xlink:href="#DejaVuSans-117"/>
      <use x="695.556641" xlink:href="#DejaVuSans-101"/>
      <use x="757.080078" xlink:href="#DejaVuSans-32"/>
      <use x="788.867188" xlink:href="#DejaVuSans-68"/>
      <use x="865.869141" xlink:href="#DejaVuSans-83"/>
      <use x="929.345703" xlink:href="#DejaVuSans-67"/>
     </g>
    </g>
   </g>
  </g>
 </g>
 <defs>
  <clipPath id="p51c21e99d0">
   <rect height="296.509091" width="304.363636" x="108" y="103.68"/>
  </clipPath>
  <clipPath id="pd2451b5c46">
   <rect height="296.509091" width="304.363636" x="473.236364" y="103.68"/>
  </clipPath>
  <clipPath id="p3c0cfefd16">
   <rect height="296.509091" width="304.363636" x="108" y="459.490909"/>
  </clipPath>
  <clipPath id="pe801e26eb0">
   <rect height="296.509091" width="304.363636" x="473.236364" y="459.490909"/>
  </clipPath>
 </defs>
</svg>
